<svg height="511pt" viewBox="-25 0 511 511.23231" width="511pt" xmlns="http://www.w3.org/2000/svg"><g fill="#4482c3"><path d="m388.042969 363.605469c-2.050781 0-4.03125-.734375-5.582031-2.074219-1.050782-.851562-2.355469-1.902344-4.164063-3.414062-20.417969-16.710938-33.425781-40.804688-36.199219-67.042969-.378906-4.617188 2.992188-8.691407 7.597656-9.183594 4.601563-.492187 8.757813 2.773437 9.367188 7.363281 2.324219 21.828125 13.167969 41.851563 30.171875 55.730469 1.785156 1.488281 3.015625 2.484375 3.664063 3.003906.296874.230469 1.109374.929688 1.363281 1.203125 2.355469 2.480469 3.003906 6.125 1.652343 9.261719-1.355468 3.140625-4.453124 5.167969-7.871093 5.152344zm0 0"/><path d="m173.949219 165.289062c-3.96875-.023437-7.390625-2.78125-8.265625-6.652343-.875-3.867188 1.035156-7.832031 4.605468-9.558594 12.183594-5.785156 25.203126-9.609375 38.578126-11.332031 4.675781-.597656 8.949218 2.710937 9.542968 7.386718.597656 4.671876-2.710937 8.945313-7.382812 9.542969-11.585938 1.480469-22.867188 4.785157-33.417969 9.796875-1.144531.539063-2.394531.820313-3.660156.816406zm0 0"/><path d="m107.292969 434.859375c-3.664063 0-6.917969-2.339844-8.085938-5.8125-3.472656-10.335937-5.238281-21.171875-5.222656-32.074219v-22.273437c0-4.714844 3.820313-8.535157 8.53125-8.535157 4.714844 0 8.535156 3.820313 8.535156 8.535157v21.757812c-.054687 9.226563 1.410157 18.398438 4.332031 27.144531.730469 2.148438.574219 4.5-.433593 6.53125-1.007813 2.03125-2.78125 3.578126-4.933594 4.300782-.878906.285156-1.796875.429687-2.722656.425781zm0 0"/><path d="m103.292969 263.765625c-.285157.015625-.570313.015625-.855469 0-2.253906-.230469-4.324219-1.351563-5.75-3.113281-1.429688-1.761719-2.097656-4.019532-1.859375-6.273438 1.019531-9.628906 3.136719-19.113281 6.304687-28.261718 7.9375-23.113282 22.082032-43.597657 40.882813-59.203126 2.359375-1.9375 5.566406-2.46875 8.421875-1.394531 2.855469 1.070313 4.921875 3.585938 5.421875 6.59375.496094 3.007813-.648437 6.054688-3.003906 7.992188-5.339844 4.378906-10.261719 9.246093-14.695313 14.539062-9.242187 10.878907-16.332031 23.410157-20.898437 36.933594-2.757813 7.941406-4.601563 16.167969-5.496094 24.523437-.445313 4.347657-4.101563 7.65625-8.472656 7.664063zm0 0"/><path d="m102.515625 349.097656c-4.710937 0-8.53125-3.820312-8.53125-8.53125v-51.199218c0-4.714844 3.820313-8.535157 8.53125-8.535157 4.714844 0 8.535156 3.820313 8.535156 8.535157v51.199218c0 4.710938-3.820312 8.53125-8.535156 8.53125zm0 0"/><path d="m348.601562 261.804688c-4.226562-.011719-7.8125-3.117188-8.421874-7.296876-7.054688-51.03125-46.613282-91.464843-97.476563-99.628906-4.667969-.664062-7.910156-4.988281-7.242187-9.652344.667968-4.667968 4.988281-7.910156 9.65625-7.242187 58.332031 9.261719 103.769531 55.550781 111.941406 114.046875.679687 4.664062-2.550782 8.996094-7.210938 9.679688-.414062.0625-.828125.09375-1.246094.09375zm0 0"/><path d="m274.410156 501.84375c-1.667968 0-3.296875-.496094-4.683594-1.421875-.675781-.453125-.851562-.546875-61.285156-50.144531l-9.191406-7.523438c-23.425781-19.164062-36.984375-47.855468-36.914062-78.125-.085938-20.367187-.085938-39.671875-.085938-55.636718v-19.625c0-4.714844 3.820312-8.535157 8.53125-8.535157 4.714844 0 8.535156 3.820313 8.535156 8.535157v19.625c0 15.949218 0 35.226562.085938 55.082031-.191406 25.328125 11.066406 49.386719 30.632812 65.46875l9.191406 7.535156c30.207032 24.746094 58.742188 48.171875 60.375 49.441406 2.953126 2.214844 4.148438 6.078125 2.957032 9.574219-1.1875 3.496094-4.488282 5.832031-8.179688 5.785156zm0 0"/><path d="m172.488281 263.765625c-.699219.003906-1.394531-.082031-2.074219-.257813-4.570312-1.140624-7.347656-5.769531-6.210937-10.339843 2.292969-9.328125 6.730469-17.988281 12.953125-25.300781 9.660156-11.652344 23.152344-19.480469 38.058594-22.085938 3.640625-.671875 7.335937-1.003906 11.035156-.980469 29.328125-.0625 54.90625 19.90625 61.960938 48.375 1.136718 4.574219-1.652344 9.207031-6.230469 10.34375-4.574219 1.132813-9.207031-1.65625-10.34375-6.230469-5.167969-20.847656-23.90625-35.472656-45.386719-35.421874-2.664062-.023438-5.320312.210937-7.9375.699218-10.996094 1.898438-20.953125 7.667969-28.074219 16.265625-4.546875 5.335938-7.789062 11.660157-9.472656 18.464844-.945313 3.800781-4.359375 6.46875-8.277344 6.46875zm0 0"/><path d="m344.605469 416.425781c-2.261719 0-4.433594-.898437-6.03125-2.5-.667969-.546875-12.050781-10.007812-28.484375-23.5-23.414063-19.167969-36.964844-47.847656-36.90625-78.105469v-22.953124c0-4.714844 3.820312-8.535157 8.53125-8.535157 4.714844 0 8.535156 3.820313 8.535156 8.535157v22.355468c-.191406 25.355469 11.078125 49.441406 30.667969 65.535156.289062.230469 28.535156 23.441407 29.722656 24.628907 2.4375 2.441406 3.167969 6.109375 1.847656 9.296875-1.320312 3.1875-4.429687 5.269531-7.882812 5.269531zm0 0"/><path d="m322.847656 442.964844c-2.265625 0-4.433594-.898438-6.035156-2.5l-26.066406-21.554688-15.070313-12.457031c-23.125-19.121094-36.566406-47.523437-36.695312-77.527344v-.988281c.070312-15.054688.070312-28.332031.070312-38.570312 0-4.714844 3.820313-8.535157 8.53125-8.535157 4.714844 0 8.535157 3.820313 8.535157 8.535157 0 10.238281 0 23.574218-.085938 38.527343v.980469c.117188 24.9375 11.296875 48.539062 30.523438 64.425781l15.070312 12.460938c26.699219 22.089843 26.742188 22.125 27.253906 22.636719 2.441406 2.441406 3.171875 6.109374 1.851563 9.300781-1.320313 3.1875-4.433594 5.265625-7.882813 5.265625zm0 0"/><path d="m242.042969 263.765625c-2.570313.003906-5.007813-1.152344-6.628907-3.148437-2.414062-3.046876-6.132812-4.765626-10.019531-4.632813-3.101562.214844-6.019531 1.542969-8.214843 3.746094-.28125.289062-.546876.59375-.792969.910156l-13.09375-10.953125c.566406-.675781 1.136719-1.351562 1.820312-2.023438 5.164063-5.160156 12.03125-8.257812 19.320313-8.714843 9.359375-.480469 18.375 3.574219 24.222656 10.898437 2.078125 2.554688 2.5 6.074219 1.089844 9.046875-1.414063 2.972657-4.410156 4.867188-7.703125 4.871094zm0 0"/><path d="m296.222656 475.316406c-.933594-.003906-1.855468-.160156-2.738281-.460937-1.621094-.546875-1.621094-.546875-8.925781-6.496094l-8.378906-6.824219c-.28125-.226562-.546876-.46875-.796876-.726562-10.46875-8.53125-25.417968-20.703125-41.90625-34.203125-23.457031-19.175781-37.046874-47.886719-37.007812-78.1875v-11.265625c-.085938-16.957032-.085938-32.425782-.085938-44.375v-3.410156c0-4.714844 3.820313-8.535157 8.535157-8.535157 4.710937 0 8.53125 3.820313 8.53125 8.535157v3.410156c0 11.949218 0 27.367187.085937 44.375v11.265625c-.042968 25.179687 11.238282 49.042969 30.71875 64.996093 16.878906 13.808594 32.144532 26.265626 42.667969 34.792969.269531.21875.527344.453125.769531.707031l7.636719 6.210938c2.910156 2.363281 4.835937 3.941406 5.605469 4.539062 3.140625 2.082032 4.550781 5.972657 3.460937 9.582032-1.085937 3.605468-4.414062 6.074218-8.179687 6.070312zm0 0"/><path d="m105.851562 45.398438c-3.945312.003906-7.378906-2.699219-8.304687-6.539063-.921875-3.835937.90625-7.804687 4.421875-9.597656 55.308594-28.148438 118.644531-36.308594 179.277344-23.09375 4.605468 1.015625 7.515625 5.570312 6.503906 10.171875-1.015625 4.605468-5.566406 7.515625-10.171875 6.503906-56.773437-12.378906-116.078125-4.742188-167.859375 21.613281-1.195312.613281-2.523438.9375-3.867188.941407zm0 0"/><path d="m344.34375 46.675781c-1.390625.003907-2.757812-.335937-3.988281-.988281-10.054688-5.304688-20.46875-9.90625-31.160157-13.765625-2.867187-1.035156-4.964843-3.523437-5.5-6.523437-.539062-3 .570313-6.0625 2.898438-8.027344 2.332031-1.964844 5.535156-2.535156 8.402344-1.5 11.445312 4.128906 22.585937 9.050781 33.347656 14.730468 3.46875 1.832032 5.238281 5.796876 4.292969 9.605469-.949219 3.804688-4.371094 6.476563-8.292969 6.46875zm0 0"/><path d="m63.007812 121.089844c-3.417968 0-6.503906-2.039063-7.847656-5.179688s-.683594-6.78125 1.675782-9.25c59.121093-62.054687 147.457031-86.785156 230.203124-64.453125 4.34375 1.394531 6.824219 5.960938 5.628907 10.363281-1.199219 4.402344-5.644531 7.082032-10.097657 6.089844-76.695312-20.644531-158.539062 2.289063-213.335937 59.78125-1.621094 1.703125-3.875 2.660156-6.226563 2.648438zm0 0"/><path d="m404.9375 138.921875c-2.632812 0-5.117188-1.214844-6.734375-3.292969-22.363281-28.726562-51.488281-51.472656-84.777344-66.210937-4.3125-1.902344-6.265625-6.941407-4.359375-11.253907 1.902344-4.3125 6.941406-6.265624 11.253906-4.359374 35.855469 15.886718 67.222657 40.394531 91.308594 71.34375 2 2.574218 2.359375 6.0625.929688 8.988281-1.429688 2.929687-4.40625 4.785156-7.664063 4.785156zm0 0"/><path d="m113.609375 122.027344c-3.691406.003906-6.964844-2.367188-8.117187-5.871094-1.152344-3.507812.082031-7.355469 3.058593-9.539062 18.023438-13.234376 38.164063-23.308594 59.5625-29.792969 2.925781-.929688 6.128907-.210938 8.382813 1.875 2.253906 2.089843 3.210937 5.230469 2.503906 8.21875-.707031 2.992187-2.964844 5.371093-5.914062 6.230469-19.554688 5.925781-37.960938 15.132812-54.433594 27.222656-1.460938 1.074218-3.230469 1.652344-5.042969 1.65625zm0 0"/><path d="m43.722656 217.863281c-2.734375.003907-5.304687-1.304687-6.910156-3.519531-1.605469-2.210938-2.054688-5.058594-1.207031-7.65625 9.03125-27.917969 24.167969-53.472656 44.3125-74.804688 2.082031-2.25 5.210937-3.210937 8.195312-2.515624 2.988281.695312 5.371094 2.933593 6.246094 5.871093s.109375 6.121094-2.007813 8.335938c-18.417968 19.5-32.261718 42.863281-40.515624 68.386719-1.136719 3.519531-4.414063 5.902343-8.113282 5.902343zm0 0"/><path d="m417.730469 263.765625c-4.492188.011719-8.226563-3.464844-8.535157-7.945313-7-95.933593-86.757812-170.257812-182.945312-170.488281-6.816406.011719-13.628906.394531-20.402344 1.144531-3.046875.363282-6.054687-.9375-7.875-3.40625-1.820312-2.46875-2.179687-5.722656-.933594-8.527343 1.242188-2.804688 3.894532-4.722657 6.945313-5.03125 7.394531-.816407 14.828125-1.234375 22.265625-1.246094 105.15625.246094 192.347656 81.5 199.996094 186.378906.160156 2.257813-.582032 4.492188-2.070313 6.203125-1.484375 1.710938-3.589843 2.761719-5.847656 2.917969zm0 0"/><path d="m409.714844 337.238281c-2.183594 0-4.285156-.835937-5.871094-2.339843-8.929688-8.457032-16.042969-18.644532-20.90625-29.941407-1.894531-4.382812-3.417969-8.921875-4.546875-13.558593-1-4.53125 1.796875-9.027344 6.300781-10.132813s9.066406 1.589844 10.269532 6.070313c.90625 3.707031 2.121093 7.332031 3.636718 10.835937 3.976563 9.167969 9.753906 17.445313 16.988282 24.335937 2.539062 2.402344 3.351562 6.109376 2.058593 9.355469-1.292969 3.246094-4.433593 5.375-7.929687 5.375zm0 0"/><path d="m383.511719 263.765625c-4.445313.015625-8.15625-3.378906-8.535157-7.808594-2.816406-32.476562-16.042968-63.175781-37.707031-87.535156-3.09375-3.515625-2.769531-8.867187.714844-11.988281 3.488281-3.125 8.84375-2.851563 12 .605468 24.128906 27.121094 38.859375 61.304688 42 97.46875.417969 4.691407-3.042969 8.832032-7.730469 9.257813-.257812 0-.496094 0-.742187 0zm0 0"/><path d="m68.988281 263.765625h-.726562c-2.253907-.1875-4.34375-1.265625-5.804688-2.996094-1.460937-1.730469-2.175781-3.972656-1.984375-6.226562 1.558594-18.835938 6.40625-37.25 14.328125-54.410157 27.519531-61.03125 89.023438-99.539062 155.945313-97.648437 2.265625.0625 4.410156 1.019531 5.96875 2.664063 1.554687 1.640624 2.398437 3.835937 2.335937 6.101562-.210937 4.675781-4.085937 8.34375-8.765625 8.300781-60.066406-1.714843-115.269531 32.859375-139.945312 87.648438-7.109375 15.371093-11.460938 31.871093-12.851563 48.75-.371093 4.417969-4.066406 7.8125-8.5 7.816406zm0 0"/><path d="m68.585938 307.5c-4.269532-.113281-7.855469-3.25-8.53125-7.46875-.292969-3.546875-.359376-7.109375-.207032-10.664062 0-4.714844 3.824219-8.535157 8.535156-8.535157 4.710938 0 8.535157 3.820313 8.535157 8.535157 0 4.128906 0 7.542968.039062 8.53125.355469 2.203124-.199219 4.453124-1.535156 6.238281-1.332031 1.789062-3.335937 2.957031-5.546875 3.242187-.425781.078125-.855469.117188-1.289062.121094zm0 0"/><path d="m317.121094 147.457031c-1.742188 0-3.441406-.535156-4.871094-1.527343-13.796875-9.640626-29.175781-16.789063-45.441406-21.121094l-3.011719-.734375c-3.019531-.679688-5.4375-2.941407-6.3125-5.910157s-.074219-6.179687 2.09375-8.390624c2.167969-2.210938 5.363281-3.070313 8.347656-2.253907l3.148438.769531c18.234375 4.835938 35.480469 12.832032 50.953125 23.628907 3.066406 2.128906 4.386718 6.003906 3.269531 9.566406-1.121094 3.558594-4.425781 5.980469-8.160156 5.972656zm0 0"/><path d="m366.367188 389.972656c-2.261719 0-4.433594-.898437-6.035157-2.5-.332031-.253906-6.535156-5.375-16.210937-13.25-23.359375-19.203125-36.871094-47.875-36.804688-78.117187v-6.738281c0-4.714844 3.820313-8.535157 8.53125-8.535157 4.714844 0 8.535156 3.820313 8.535156 8.535157v6.3125c-.148437 25.28125 11.089844 49.289062 30.601563 65.367187 7.550781 6.167969 16.734375 13.652344 17.414063 14.378906 2.441406 2.4375 3.171874 6.109375 1.851562 9.296875s-4.433594 5.265625-7.882812 5.269532zm0 0"/><path d="m314.476562 263.765625c-4.15625-.003906-7.703124-2.996094-8.40625-7.089844-3.992187-27.308593-21.671874-50.675781-46.859374-61.941406-25.191407-11.269531-54.394532-8.871094-77.410157 6.355469-10.371093 6.773437-19.046875 15.84375-25.355469 26.503906-5.320312 8.816406-8.800781 18.617188-10.238281 28.816406-.769531 4.550782-5.019531 7.664063-9.59375 7.027344-4.570312-.636719-7.804687-4.792969-7.300781-9.382812 1.734375-12.453126 5.972656-24.425782 12.457031-35.199219 19.6875-33.117188 56.863281-51.722657 95.171875-47.632813 43.8125 5.367188 78.820313 39.007813 85.929688 82.566406.792968 4.640626-2.320313 9.050782-6.960938 9.847657-.472656.089843-.953125.132812-1.433594.128906zm0 0"/><path d="m231.882812 511.230469c-1.964843 0-3.871093-.675781-5.394531-1.917969-11.828125-9.652344-27.535156-22.570312-44.332031-36.371094l-17.132812-14.085937c-23.410157-19.167969-36.960938-47.84375-36.90625-78.097657v-91.390624c0-4.714844 3.820312-8.535157 8.53125-8.535157 4.714843 0 8.535156 3.820313 8.535156 8.535157v90.964843c-.148438 25.289063 11.121094 49.292969 30.667968 65.339844l17.117188 14.085937c16.777344 13.78125 32.46875 26.683594 44.28125 36.328126 2.792969 2.277343 3.855469 6.066406 2.648438 9.464843-1.203126 3.394531-4.414063 5.671875-8.015626 5.679688zm0 0"/><path d="m316.957031 70.144531h-.082031c-4.707031-.023437-8.503906-3.851562-8.492188-8.554687.011719-4.703125 3.828126-8.511719 8.535157-8.511719 4.703125 0 8.519531 3.808594 8.53125 8.511719s-3.785157 8.53125-8.492188 8.554687zm0 0"/></g><path d="m452.382812 263.765625h-443.734374c-4.710938 0-8.53125-3.820313-8.53125-8.535156 0-4.710938 3.820312-8.53125 8.53125-8.53125h443.734374c4.710938 0 8.535157 3.820312 8.535157 8.53125 0 4.714843-3.824219 8.535156-8.535157 8.535156zm0 0" fill="#e64c3c"/></svg>