<svg height="512pt" viewBox="-71 0 512 512" width="512pt" xmlns="http://www.w3.org/2000/svg"><path d="m0 79.449219h370.757812v432.550781h-370.757812zm0 0" fill="#547580"/><path d="m247.171875 454.53125c31.605469-26.070312 43.445313-69.175781 29.59375-107.734375s-50.414063-64.273437-91.386719-64.273437c-40.96875 0-77.53125 25.714843-91.386718 64.273437-13.851563 38.558594-2.011719 81.664063 29.59375 107.734375" fill="#ff5364"/><path d="m370.757812 70.621094v8.828125h-370.757812v-8.828125c0-39.003906 31.617188-70.621094 70.621094-70.621094h229.515625c39.003906 0 70.621093 31.617188 70.621093 70.621094zm0 0" fill="#35495e"/><g fill="#2c2f38"><path d="m247.171875 52.964844h-123.585937c-4.875 0-8.828126-3.953125-8.828126-8.828125s3.953126-8.828125 8.828126-8.828125h123.585937c4.875 0 8.828125 3.953125 8.828125 8.828125s-3.953125 8.828125-8.828125 8.828125zm0 0"/><path d="m326.621094 52.964844c-2.339844-.015625-4.585938-.933594-6.269532-2.558594-3.414062-3.480469-3.414062-9.054688 0-12.535156 2.527344-2.546875 6.34375-3.3125 9.65625-1.9375 3.308594 1.375 5.460938 4.617187 5.441407 8.203125-.035157 2.339843-.949219 4.574219-2.5625 6.269531-.855469.777344-1.84375 1.40625-2.910157 1.851562-1.0625.453126-2.203124.695313-3.355468.707032zm0 0"/><path d="m300.136719 52.964844c-2.339844-.015625-4.582031-.933594-6.265625-2.558594-3.414063-3.480469-3.414063-9.054688 0-12.535156 2.523437-2.546875 6.339844-3.3125 9.652344-1.9375s5.464843 4.617187 5.441406 8.203125c-.035156 2.339843-.949219 4.574219-2.558594 6.269531-.859375.777344-1.84375 1.40625-2.914062 1.851562-1.0625.453126-2.199219.695313-3.355469.707032zm0 0"/></g><path d="m220.160156 338.890625c16.375 6.894531 27.019532 22.929687 27.011719 40.695313v132.414062h-123.585937v-132.414062c-.003907-17.765626 10.640624-33.800782 27.011718-40.695313" fill="#fdd7ad"/><path d="m167.722656 317.792969h35.3125c14.625 0 26.480469 11.855469 26.480469 26.484375v61.792968c0 19.5-15.808594 35.308594-35.308594 35.308594h-17.65625c-19.5 0-35.308593-15.808594-35.308593-35.308594v-61.792968c0-14.628906 11.855468-26.484375 26.480468-26.484375zm0 0" fill="#f9eab0"/><path d="m35.308594 132.414062c-4.875 0-8.824219-3.953124-8.824219-8.828124v-8.828126c0-4.875 3.949219-8.828124 8.824219-8.828124 4.878906 0 8.828125 3.953124 8.828125 8.828124v8.828126c0 4.875-3.949219 8.828124-8.828125 8.828124zm0 0" fill="#95a5a5"/><path d="m35.308594 273.65625c-4.875 0-8.824219-3.953125-8.824219-8.828125v-105.929687c0-4.878907 3.949219-8.828126 8.824219-8.828126 4.878906 0 8.828125 3.949219 8.828125 8.828126v105.929687c0 4.875-3.949219 8.828125-8.828125 8.828125zm0 0" fill="#95a5a5"/><path d="m229.074219 411.453125c-2.652344 17.207031-17.457031 29.914063-34.867188 29.925781h-17.65625c-17.410156-.011718-32.210937-12.71875-34.867187-29.925781 9.875-14.414063 26.222656-23.03125 43.695312-23.03125s33.824219 8.617187 43.695313 23.03125zm0 0" fill="#f5efca"/><path d="m141.242188 114.757812h88.273437c9.753906 0 17.65625 7.90625 17.65625 17.65625v88.277344c0 9.75-7.902344 17.652344-17.65625 17.652344h-88.273437c-9.75 0-17.65625-7.902344-17.65625-17.652344v-88.277344c0-9.75 7.90625-17.65625 17.65625-17.65625zm0 0" fill="#c03a2b"/><path d="m229.515625 105.929688h-88.273437c-14.625 0-26.484376 11.859374-26.484376 26.484374v88.277344c0 14.625 11.859376 26.480469 26.484376 26.480469h88.273437c14.628906 0 26.484375-11.855469 26.484375-26.480469v-88.277344c0-14.625-11.855469-26.484374-26.484375-26.484374zm8.828125 114.761718c0 4.875-3.949219 8.824219-8.828125 8.824219h-88.273437c-4.875 0-8.828126-3.949219-8.828126-8.824219v-88.277344c0-4.875 3.953126-8.828124 8.828126-8.828124h88.273437c4.878906 0 8.828125 3.953124 8.828125 8.828124zm0 0" fill="#fff"/><path d="m218.101562 143.828125c-3.445312-3.445313-9.035156-3.445313-12.480468 0l-20.242188 20.242187-20.242187-20.242187c-3.460938-3.34375-8.96875-3.296875-12.375.105469-3.402344 3.40625-3.453125 8.914062-.105469 12.375l20.242188 20.242187-20.242188 20.242188c-2.296875 2.214843-3.214844 5.5-2.40625 8.585937.804688 3.085938 3.214844 5.496094 6.304688 6.304688 3.085937.808594 6.367187-.113282 8.582031-2.40625l20.242187-20.242188 20.242188 20.242188c3.464844 3.34375 8.96875 3.296875 12.375-.109375s3.453125-8.910157.105468-12.375l-20.238281-20.242188 20.238281-20.242187c3.449219-3.445313 3.449219-9.035156 0-12.480469zm0 0" fill="#fff"/></svg>