<svg height="511pt" viewBox="0 0 511.24285 511" width="511pt" xmlns="http://www.w3.org/2000/svg"><path d="m502.699219 400.25c0-56.554688-45.921875-102.398438-102.570313-102.398438-56.648437 0-102.570312 45.84375-102.570312 102.398438s45.921875 102.398438 102.570312 102.398438c56.648438 0 102.570313-45.84375 102.570313-102.398438zm0 0" fill="#fb7b76"/><g fill="#4482c3"><path d="m138.761719 165.414062c-3.964844-.027343-7.390625-2.785156-8.265625-6.65625-.871094-3.867187 1.035156-7.828124 4.605468-9.558593 12.183594-5.785157 25.203126-9.609375 38.578126-11.332031 3.027343-.386719 6.027343.871093 7.871093 3.296874 1.847657 2.425782 2.257813 5.652344 1.082031 8.464844-1.179687 2.8125-3.769531 4.78125-6.792968 5.167969-11.585938 1.480469-22.863282 4.789063-33.417969 9.796875-1.144531.539062-2.394531.820312-3.660156.820312zm0 0"/><path d="m72.109375 434.980469c-3.664063 0-6.921875-2.339844-8.089844-5.8125-3.472656-10.335938-5.234375-21.171875-5.222656-32.074219v-22.273438c0-4.710937 3.820313-8.535156 8.535156-8.535156 4.710938 0 8.53125 3.824219 8.53125 8.535156v21.761719c-.050781 9.222657 1.414063 18.394531 4.335938 27.144531.726562 2.144532.570312 4.496094-.4375 6.527344-1.007813 2.03125-2.78125 3.578125-4.929688 4.300782-.878906.285156-1.796875.429687-2.722656.425781zm0 0"/><path d="m67.332031 349.21875c-4.714843 0-8.535156-3.820312-8.535156-8.53125v-71.765625c.027344-31.152344 11.042969-61.300781 31.113281-85.128906 5.097656-6.105469 10.75-11.722657 16.886719-16.785157 2.355469-1.9375 5.566406-2.46875 8.421875-1.394531s4.921875 3.585938 5.417969 6.597657c.5 3.007812-.644531 6.054687-3.003907 7.988281-5.328124 4.390625-10.234374 9.265625-14.660156 14.566406-17.484375 20.757813-27.082031 47.015625-27.109375 74.15625v71.765625c0 4.710938-3.820312 8.53125-8.53125 8.53125zm0 0"/><path d="m313.414062 261.925781c-4.226562-.011719-7.808593-3.113281-8.421874-7.296875-7.054688-51.03125-46.613282-91.460937-97.476563-99.628906-3.019531-.429688-5.578125-2.4375-6.710937-5.269531-1.136719-2.828125-.675782-6.046875 1.207031-8.445313 1.882812-2.398437 4.902343-3.609375 7.917969-3.179687 58.335937 9.261719 103.769531 55.550781 111.941406 114.046875.679687 4.664062-2.546875 8.996094-7.210938 9.679687-.410156.0625-.828125.09375-1.246094.09375zm0 0"/><path d="m239.226562 501.96875c-1.667968-.003906-3.300781-.5-4.6875-1.425781-.671874-.453125-.851562-.546875-61.285156-50.144531l-9.191406-7.523438c-23.425781-19.164062-36.984375-47.855469-36.914062-78.125-.085938-20.367188-.085938-39.671875-.085938-55.636719v-40.191406c-.027344-1.546875.0625-3.09375.273438-4.625.808593-13.351563 5.941406-26.078125 14.625-36.25 9.664062-11.660156 23.160156-19.496094 38.078124-22.101563 3.632813-.6875 7.324219-1.03125 11.023438-1.023437 34.5.1875 62.699219 27.570313 63.90625 62.046875.070312.648438.101562 1.300781.09375 1.953125v42.921875c-.082031 14.875 3.789062 29.507812 11.222656 42.394531 1.679688 2.644531 1.777344 6 .25 8.734375-1.527344 2.738282-4.433594 4.417969-7.566406 4.375-3.136719-.042968-5.992188-1.800781-7.445312-4.578125-8.859376-15.292969-13.527344-32.652343-13.527344-50.328125v-43.519531c-.078125-.421875-.105469-.851563-.085938-1.28125-.777344-25.347656-21.488281-45.527344-46.847656-45.652344-2.660156-.019531-5.316406.214844-7.933594.699219-11 1.902344-20.957031 7.667969-28.074218 16.265625-6.464844 7.617187-10.246094 17.144531-10.761719 27.117187-.132813.945313-.1875 1.898438-.164063 2.851563v40.191406c0 15.949219 0 35.226563.085938 55.082031-.191406 25.328126 11.066406 49.386719 30.636718 65.46875l9.1875 7.535157c30.210938 24.746093 58.746094 48.171875 60.375 49.441406 2.953126 2.214844 4.148438 6.078125 2.960938 9.574219-1.191406 3.496094-4.492188 5.832031-8.183594 5.785156zm0 0"/><path d="m261.035156 475.4375c-.929687-.003906-1.855468-.160156-2.738281-.460938-1.621094-.546874-1.621094-.546874-8.925781-6.496093l-8.378906-6.824219c-.277344-.226562-.542969-.46875-.792969-.726562-10.472657-8.53125-25.421875-20.703126-41.90625-34.199219-23.460938-19.179688-37.050781-47.890625-37.011719-78.191407v-11.265624c-.085938-16.957032-.085938-32.425782-.085938-44.371094v-23.980469c-.03125-7.929687 3.113282-15.542969 8.730469-21.136719 5.164063-5.160156 12.035157-8.257812 19.320313-8.714844 8.046875-.417968 15.90625 2.519532 21.707031 8.109376 6.347656 6.011718 9.953125 14.363281 9.976563 23.105468v13.570313c0 10.675781 0 26.222656-.085938 44.160156v.980469c.117188 24.941406 11.300781 48.539062 30.523438 64.425781 3.492187 2.886719 6.878906 5.683594 10.011718 8.21875 2.371094 1.921875 3.542969 4.960937 3.066406 7.976563-.476562 3.015624-2.527343 5.550781-5.378906 6.644531-2.847656 1.09375-6.066406.585937-8.441406-1.335938-3.179688-2.558593-6.621094-5.417969-10.136719-8.335937-23.125-19.113282-36.570312-47.511719-36.691406-77.515625v-1.015625c.082031-18.03125.082031-33.546875.082031-44.203125v-13.570313c-.011718-4.050781-1.6875-7.921875-4.632812-10.707031-2.382813-2.351563-5.632813-3.609375-8.976563-3.472656-3.117187.203125-6.050781 1.535156-8.257812 3.746093-2.414063 2.398438-3.761719 5.667969-3.75 9.070313v23.980469c0 11.945312 0 27.363281.085937 44.371094v11.265624c-.042968 25.179688 11.238282 49.042969 30.722656 64.996094 16.878907 13.808594 32.144532 26.265625 42.664063 34.792969.269531.21875.527344.457031.769531.707031l7.636719 6.210938c2.910156 2.363281 4.839844 3.945312 5.605469 4.539062 3.144531 2.082032 4.550781 5.972656 3.464844 9.582032-1.089844 3.605468-4.414063 6.074218-8.183594 6.070312zm0 0"/><path d="m70.667969 45.519531c-3.949219.003907-7.382813-2.699219-8.304688-6.539062-.925781-3.835938.902344-7.804688 4.421875-9.597657 55.304688-28.148437 118.640625-36.308593 179.277344-23.089843 4.601562 1.011719 7.515625 5.566406 6.5 10.171875-1.011719 4.601562-5.566406 7.515625-10.171875 6.5-56.769531-12.375-116.074219-4.738282-167.859375 21.617187-1.195312.613281-2.519531.933594-3.863281.9375zm0 0"/><path d="m309.15625 46.800781c-1.390625 0-2.757812-.339843-3.984375-.992187-10.054687-5.304688-20.46875-9.90625-31.164063-13.761719-4.433593-1.605469-6.726562-6.496094-5.125-10.929687 1.601563-4.429688 6.496094-6.726563 10.925782-5.125 11.445312 4.128906 22.589844 9.050781 33.351562 14.730468 3.46875 1.832032 5.238282 5.796875 4.289063 9.605469-.945313 3.804687-4.367188 6.476563-8.292969 6.472656zm0 0"/><path d="m27.820312 121.210938c-3.414062 0-6.503906-2.039063-7.847656-5.179688s-.683594-6.78125 1.679688-9.25c59.121094-62.054688 147.453125-86.785156 230.203125-64.453125 3.066406.683594 5.507812 3 6.355469 6.023437.847656 3.023438-.035157 6.269532-2.296876 8.449219-2.261718 2.179688-5.539062 2.941407-8.53125 1.980469-76.691406-20.644531-158.535156 2.289062-213.332031 59.78125-1.625 1.703125-3.878906 2.660156-6.230469 2.648438zm0 0"/><path d="m369.75 139.042969c-2.628906 0-5.113281-1.214844-6.730469-3.292969-22.367187-28.726562-51.492187-51.46875-84.78125-66.210938-4.308593-1.902343-6.261719-6.941406-4.359375-11.253906 1.90625-4.3125 6.945313-6.265625 11.257813-4.359375 35.851562 15.886719 67.21875 40.394531 91.304687 71.347657 2 2.570312 2.363282 6.058593.929688 8.984374-1.429688 2.929688-4.402344 4.785157-7.664063 4.785157zm0 0"/><path d="m78.421875 122.148438c-3.6875.003906-6.964844-2.363282-8.113281-5.871094-1.152344-3.507813.082031-7.355469 3.054687-9.539063 18.023438-13.234375 38.164063-23.308593 59.5625-29.789062 2.929688-.933594 6.128907-.214844 8.382813 1.871093 2.253906 2.089844 3.210937 5.230469 2.503906 8.21875-.703125 2.992188-2.960938 5.371094-5.910156 6.234376-19.554688 5.933593-37.960938 15.148437-54.425782 27.253906-1.46875 1.0625-3.238281 1.632812-5.054687 1.621094zm0 0"/><path d="m8.535156 217.984375c-2.734375.003906-5.300781-1.304687-6.90625-3.519531-1.6054685-2.210938-2.054687-5.058594-1.207031-7.65625 9.027344-27.917969 24.167969-53.472656 44.3125-74.804688 2.082031-2.25 5.210937-3.210937 8.195313-2.515625 2.984374.695313 5.367187 2.9375 6.246093 5.871094.875 2.9375.109375 6.121094-2.007812 8.335937-18.421875 19.5-32.261719 42.863282-40.515625 68.386719-1.140625 3.519531-4.417969 5.902344-8.117188 5.902344zm0 0"/><path d="m381.773438 256.121094c-4.347657-.003906-7.996094-3.277344-8.472657-7.601563-10.144531-92.941406-88.746093-163.273437-182.238281-163.066406-6.816406.011719-13.625.394531-20.402344 1.144531-3.046875.363282-6.050781-.9375-7.871094-3.40625-1.824218-2.464844-2.179687-5.722656-.9375-8.527344 1.246094-2.800781 3.898438-4.722656 6.949219-5.03125 7.390625-.816406 14.824219-1.234374 22.261719-1.246093 102.203125-.21875 188.121094 76.671875 199.203125 178.273437.5 4.671875-2.878906 8.871094-7.550781 9.386719-.3125.039063-.625.066406-.941406.074219zm0 0"/><path d="m348.324219 263.886719c-4.441407.015625-8.15625-3.378907-8.53125-7.808594-2.816407-32.476563-16.042969-63.175781-37.710938-87.535156-3.089843-3.515625-2.769531-8.867188.71875-11.988281 3.488281-3.125 8.839844-2.851563 11.996094.605468 24.128906 27.121094 38.859375 61.304688 42 97.46875.421875 4.691406-3.039063 8.835938-7.730469 9.257813-.253906 0-.496094 0-.742187 0zm0 0"/><path d="m33.265625 307.269531c-4.511719.042969-8.261719-3.457031-8.535156-7.960937-.066407-1.074219-.066407-11.296875-.066407-30.386719 0-2.910156.085938-5.8125.179688-8.636719 1.074219-20.769531 6.085938-41.144531 14.769531-60.039062 27.523438-61.03125 89.027344-99.539063 155.949219-97.640625 2.261719.0625 4.410156 1.019531 5.964844 2.664062 1.558594 1.644531 2.398437 3.835938 2.335937 6.101563-.203125 4.679687-4.082031 8.351562-8.761719 8.300781-60.066406-1.714844-115.273437 32.859375-139.949218 87.648437-7.777344 16.902344-12.273438 35.128907-13.25 53.707032-.078125 2.449218-.164063 5.171875-.164063 7.894531 0 1.40625 0 27.222656.078125 29.464844.164063 4.679687-3.449218 8.625-8.125 8.875zm0 0"/><path d="m281.933594 147.578125c-1.742188 0-3.441406-.535156-4.871094-1.527344-13.796875-9.640625-29.175781-16.789062-45.441406-21.121093l-3.011719-.734376c-4.46875-1.226562-7.144531-5.796874-6.023437-10.292968 1.125-4.5 5.632812-7.277344 10.15625-6.261719l3.148437.769531c18.234375 4.835938 35.480469 12.832032 50.949219 23.628906 3.066406 2.128907 4.390625 6.007813 3.269531 9.566407-1.121094 3.5625-4.425781 5.980469-8.15625 5.972656zm0 0"/><path d="m196.695312 511.355469c-1.964843 0-3.871093-.679688-5.394531-1.921875-11.824219-9.652344-27.535156-22.570313-44.328125-36.367188l-17.136718-14.089844c-23.410157-19.167968-36.960938-47.84375-36.90625-78.097656v-111.957031c-.003907-4.238281.28125-8.472656.855468-12.671875 1.621094-13.179688 5.984375-25.871094 12.796875-37.265625 19.6875-33.121094 56.871094-51.730469 95.183594-47.640625 50.410156 6.007812 88.144531 49.117188 87.429687 99.882812v24.574219c-.011718 3.527344.21875 7.046875.691407 10.539063.414062 3.023437-.820313 6.03125-3.230469 7.898437-2.410156 1.867188-5.632812 2.308594-8.457031 1.152344-2.820313-1.152344-4.8125-3.726563-5.222657-6.746094-.5625-4.113281-.847656-8.261719-.847656-12.417969v-25c.882813-30.203124-15.125-58.382812-41.511718-73.09375-26.390626-14.710937-58.777344-13.507812-84.003907 3.121094-10.371093 6.773438-19.042969 15.84375-25.351562 26.503906-5.628907 9.390626-9.226563 19.855469-10.566407 30.71875-.46875 3.460938-.699218 6.953126-.699218 10.445313v111.53125c-.144532 25.289063 11.121094 49.292969 30.667968 65.339844l17.121094 14.085937c16.765625 13.78125 32.46875 26.683594 44.277344 36.328125 2.792969 2.277344 3.855469 6.066407 2.652344 9.464844-1.207032 3.398437-4.414063 5.671875-8.019532 5.683594zm0 0"/></g><path d="m400.128906 511.183594c-61.242187-.097656-110.820312-49.808594-110.753906-111.054688.066406-61.242187 49.75-110.84375 110.996094-110.8125 61.242187.03125 110.871094 49.691406 110.871094 110.933594-.117188 61.289062-49.824219 110.914062-111.113282 110.933594zm0-204.800782c-51.816406.097657-93.75 42.167969-93.6875 93.984376.066406 51.820312 42.109375 93.78125 93.925782 93.75 51.820312-.035157 93.808593-42.050782 93.808593-93.867188-.109375-51.867188-42.179687-93.859375-94.046875-93.867188zm0 0" fill="#c03a2b"/><path d="m442.796875 451.621094c-2.261719 0-4.433594-.902344-6.03125-2.5l-85.335937-85.335938c-3.234376-3.347656-3.1875-8.667968.105468-11.960937 3.289063-3.292969 8.613282-3.335938 11.960938-.105469l85.332031 85.335938c2.441406 2.441406 3.171875 6.109374 1.851563 9.296874-1.320313 3.1875-4.433594 5.269532-7.882813 5.269532zm0 0" fill="#ecf0f1"/><path d="m357.464844 451.621094c-3.453125 0-6.5625-2.082032-7.882813-5.269532-1.320312-3.1875-.589843-6.855468 1.847657-9.296874l85.335937-85.335938c3.347656-3.230469 8.667969-3.1875 11.960937.105469 3.292969 3.292969 3.335938 8.613281.101563 11.960937l-85.332031 85.335938c-1.597656 1.597656-3.769532 2.5-6.03125 2.5zm0 0" fill="#ecf0f1"/></svg>