<svg height="512pt" viewBox="0 0 512 512" width="512pt" xmlns="http://www.w3.org/2000/svg"><path d="m9.429688 256c2.84375 26.679688 12.675781 52.136719 28.5 73.804688 41.644531 59.589843 123.820312 105.394531 218.367187 105.394531 94.550781 0 176.726563-45.804688 218.371094-105.394531 15.824219-21.667969 25.65625-47.125 28.5-73.804688-2.84375-26.679688-12.675781-52.136719-28.5-73.804688-41.644531-59.589843-123.820313-105.394531-218.371094-105.394531-94.546875 0-176.722656 45.804688-218.367187 105.394531-15.824219 21.667969-25.65625 47.125-28.5 73.804688zm0 0" fill="#d75e72"/><path d="m502.613281 256c-3.316406 21.289062-13.292969 40.976562-28.5 56.234375-41.6875 45.398437-123.863281 80.300781-218.410156 80.300781-94.550781 0-176.726563-34.902344-218.371094-80.300781-15.207031-15.257813-25.183593-34.945313-28.5-56.234375 3.316407-21.289062 13.292969-40.976562 28.5-56.234375 41.644531-45.398437 123.820313-80.300781 218.371094-80.300781 94.546875 0 176.722656 34.902344 218.367187 80.300781 15.222657 15.253906 25.214844 34.941406 28.542969 56.234375zm0 0" fill="#d1d4d1"/><path d="m469.332031 256c-2.625 20.722656-11.175781 40.25-24.625 56.234375-35.960937 45.398437-107 80.300781-188.707031 80.300781s-152.746094-34.902344-188.707031-80.300781c-13.449219-15.984375-22-35.511719-24.625-56.234375 2.625-20.722656 11.175781-40.25 24.625-56.234375 35.960937-45.398437 107-80.300781 188.707031-80.300781s152.746094 34.902344 188.707031 80.300781c13.449219 15.984375 22 35.511719 24.625 56.234375zm0 0" fill="#fff"/><path d="m358.101562 256c0 56.554688-45.847656 102.398438-102.398437 102.398438-56.554687 0-102.402344-45.84375-102.402344-102.398438s45.847657-102.398438 102.402344-102.398438c56.550781 0 102.398437 45.84375 102.398437 102.398438zm0 0" fill="#2fa8cc"/><path d="m255.703125 366.933594c-61.269531 0-110.933594-49.667969-110.933594-110.933594s49.664063-110.933594 110.933594-110.933594c61.265625 0 110.929687 49.667969 110.929687 110.933594-.070312 61.238281-49.695312 110.863281-110.929687 110.933594zm0-204.800782c-51.84375 0-93.867187 42.027344-93.867187 93.867188s42.023437 93.867188 93.867187 93.867188c51.839844 0 93.863281-42.027344 93.863281-93.867188-.054687-51.816406-42.046875-93.808594-93.863281-93.867188zm0 0" fill="#2980ba"/><path d="m50.902344 256c.46875 19.609375-4.210938 38.996094-13.570313 56.234375-15.207031-15.257813-25.183593-34.945313-28.5-56.234375 3.316407-21.289062 13.292969-40.976562 28.5-56.234375 9.359375 17.238281 14.039063 36.625 13.570313 56.234375zm0 0" fill="#fb7b76"/><path d="m502.613281 256c-3.316406 21.289062-13.292969 40.976562-28.5 56.234375-9.375-17.234375-14.066406-36.621094-13.613281-56.234375-.46875-19.609375 4.210938-38.996094 13.570312-56.234375 15.222657 15.253906 25.214844 34.941406 28.542969 56.234375zm0 0" fill="#fb7b76"/><path d="m289.835938 256c0 18.851562-15.285157 34.132812-34.132813 34.132812-18.851563 0-34.136719-15.28125-34.136719-34.132812s15.285156-34.132812 34.136719-34.132812c18.847656 0 34.132813 15.28125 34.132813 34.132812zm0 0" fill="#2c2f38"/><path d="m323.96875 200.535156c0 16.492188-13.371094 29.863282-29.867188 29.863282-16.496093 0-29.867187-13.371094-29.867187-29.863282 0-16.496094 13.371094-29.867187 29.867187-29.867187 16.496094 0 29.867188 13.371093 29.867188 29.867187zm0 0" fill="#fff"/><g fill="#24ae5f"><path d="m8.535156 76.800781c-4.714844 0-8.535156-3.820312-8.535156-8.535156v-42.664063c0-14.140624 11.460938-25.601562 25.601562-25.601562h42.664063c4.714844 0 8.535156 3.820312 8.535156 8.535156 0 4.710938-3.820312 8.53125-8.535156 8.53125h-42.664063c-4.714843 0-8.535156 3.820313-8.535156 8.535156v42.664063c0 4.714844-3.820312 8.535156-8.53125 8.535156zm0 0"/><path d="m503.464844 76.800781c-4.710938 0-8.53125-3.820312-8.53125-8.535156v-42.664063c0-4.714843-3.820313-8.535156-8.535156-8.535156h-42.664063c-4.714844 0-8.535156-3.820312-8.535156-8.53125 0-4.714844 3.820312-8.535156 8.535156-8.535156h42.664063c14.140624 0 25.601562 11.460938 25.601562 25.601562v42.664063c0 4.714844-3.820312 8.535156-8.535156 8.535156zm0 0"/><path d="m68.265625 512h-42.664063c-14.140624 0-25.601562-11.460938-25.601562-25.601562v-42.664063c0-4.714844 3.820312-8.535156 8.535156-8.535156 4.710938 0 8.53125 3.820312 8.53125 8.535156v42.664063c0 4.714843 3.820313 8.535156 8.535156 8.535156h42.664063c4.714844 0 8.535156 3.820312 8.535156 8.53125 0 4.714844-3.820312 8.535156-8.535156 8.535156zm0 0"/><path d="m486.398438 512h-42.664063c-4.714844 0-8.535156-3.820312-8.535156-8.535156 0-4.710938 3.820312-8.53125 8.535156-8.53125h42.664063c4.714843 0 8.535156-3.820313 8.535156-8.535156v-42.664063c0-4.714844 3.820312-8.535156 8.53125-8.535156 4.714844 0 8.535156 3.820312 8.535156 8.535156v42.664063c0 14.140624-11.460938 25.601562-25.601562 25.601562zm0 0"/><path d="m42.667969 85.332031c-4.714844 0-8.535157-3.820312-8.535157-8.53125v-19.628906c.035157-12.710937 10.328126-23.003906 23.039063-23.039063h19.628906c4.710938 0 8.53125 3.820313 8.53125 8.535157 0 4.710937-3.820312 8.53125-8.53125 8.53125h-19.628906c-3.296875 0-5.972656 2.675781-5.972656 5.972656v19.628906c0 4.710938-3.820313 8.53125-8.53125 8.53125zm0 0"/><path d="m469.332031 85.332031c-4.710937 0-8.53125-3.820312-8.53125-8.53125v-19.628906c0-3.296875-2.675781-5.972656-5.972656-5.972656h-19.628906c-4.710938 0-8.53125-3.820313-8.53125-8.53125 0-4.714844 3.820312-8.535157 8.53125-8.535157h19.628906c12.710937.035157 23.003906 10.328126 23.039063 23.039063v19.628906c0 4.710938-3.820313 8.53125-8.535157 8.53125zm0 0"/><path d="m76.800781 477.867188h-19.628906c-12.710937-.035157-23.003906-10.328126-23.039063-23.039063v-19.628906c0-4.710938 3.820313-8.53125 8.535157-8.53125 4.710937 0 8.53125 3.820312 8.53125 8.53125v19.628906c0 3.296875 2.675781 5.972656 5.972656 5.972656h19.628906c4.710938 0 8.53125 3.820313 8.53125 8.53125 0 4.714844-3.820312 8.535157-8.53125 8.535157zm0 0"/><path d="m454.828125 477.867188h-19.628906c-4.710938 0-8.53125-3.820313-8.53125-8.535157 0-4.710937 3.820312-8.53125 8.53125-8.53125h19.628906c3.296875 0 5.972656-2.675781 5.972656-5.972656v-19.628906c0-4.710938 3.820313-8.53125 8.53125-8.53125 4.714844 0 8.535157 3.820312 8.535157 8.53125v19.628906c-.035157 12.710937-10.328126 23.003906-23.039063 23.039063zm0 0"/></g><path d="m411.734375 451.933594c-9.054687.027344-17.742187-3.566406-24.132813-9.984375l-131.414062-131.414063-131.414062 131.414063c-13.328126 13.324219-34.933594 13.324219-48.261719 0l-6.078125-6.082031c-6.402344-6.402344-9.996094-15.085938-9.996094-24.136719 0-9.054688 3.59375-17.738281 9.996094-24.136719l131.414062-131.414062-131.414062-131.414063c-6.402344-6.402344-9.996094-15.082031-9.996094-24.136719 0-9.050781 3.59375-17.734375 9.996094-24.136718l6.078125-6.066407c13.328125-13.324219 34.933593-13.324219 48.261719 0l87.484374 87.492188 43.878907 43.945312 131.464843-131.464843c13.328126-13.324219 34.933594-13.324219 48.265626 0l6.074218 6.078124c6.402344 6.402344 9.996094 15.082032 9.996094 24.136719 0 9.050781-3.59375 17.734375-9.996094 24.136719l-131.414062 131.453125 43.332031 43.265625 88.082031 88.125c6.402344 6.402344 10.003906 15.085938 10.003906 24.140625s-3.601562 17.738281-10.003906 24.140625l-6.074218 6.066406c-6.386719 6.421875-15.078126 10.019532-24.132813 9.992188zm0 0" fill="#c03a2b"/><path d="m416.511719 386.304688 13.363281 13.363281c6.664062 6.664062 6.664062 17.46875 0 24.132812l-6.074219 6.074219c-6.664062 6.664062-17.46875 6.664062-24.132812 0l-143.496094-143.496094-3.585937 3.582032-139.945313 139.949218c-6.664063 6.660156-17.46875 6.660156-24.132813 0l-6.074218-6.078125c-6.664063-6.664062-6.664063-17.464843 0-24.128906l34.300781-34.304687 109.226563-109.226563-4.179688-4.183594-105.300781-105.300781-20.738281-20.734375-13.277344-13.3125c-6.660156-6.664063-6.660156-17.46875 0-24.132813l6.078125-6.074218c6.664062-6.664063 17.464843-6.664063 24.132812 0l21.382813 21.417968 66.132812 66.132813 51.96875 52.054687h.085938l3.925781 3.921876 55.636719-55.636719 38.742187-38.738281 49.117188-49.121094c6.664062-6.660156 17.46875-6.660156 24.132812 0l6.074219 6.078125c6.664062 6.664062 6.664062 17.464843 0 24.132812l-34.269531 34.269531-53.761719 53.757813-52.222656 52.226563-3.242188 3.242187 3.242188 3.242187v.085938l52.140625 52.050781 53.585937 53.589844zm0 0" fill="#e64c3c"/></svg>