<svg height="512pt" viewBox="-71 0 512 512" width="512pt" xmlns="http://www.w3.org/2000/svg"><path d="m0 79.449219h370.757812v432.550781h-370.757812zm0 0" fill="#547580"/><path d="m370.757812 70.621094v8.828125h-370.757812v-8.828125c0-39.003906 31.617188-70.621094 70.621094-70.621094h229.515625c39.003906 0 70.621093 31.617188 70.621093 70.621094zm0 0" fill="#35495e"/><g fill="#2c2f38"><path d="m247.171875 52.964844h-123.585937c-4.875 0-8.828126-3.953125-8.828126-8.828125s3.953126-8.828125 8.828126-8.828125h123.585937c4.875 0 8.828125 3.953125 8.828125 8.828125s-3.953125 8.828125-8.828125 8.828125zm0 0"/><path d="m326.621094 52.964844c-2.339844-.015625-4.585938-.933594-6.269532-2.558594-3.414062-3.480469-3.414062-9.054688 0-12.535156 2.527344-2.546875 6.34375-3.3125 9.65625-1.9375 3.308594 1.375 5.460938 4.617187 5.441407 8.203125-.035157 2.339843-.949219 4.574219-2.5625 6.269531-.855469.777344-1.84375 1.40625-2.910157 1.851562-1.0625.453126-2.203124.695313-3.355468.707032zm0 0"/><path d="m300.136719 52.964844c-2.339844-.015625-4.582031-.933594-6.265625-2.558594-3.414063-3.480469-3.414063-9.054688 0-12.535156 2.523437-2.546875 6.339844-3.3125 9.652344-1.9375s5.464843 4.617187 5.441406 8.203125c-.035156 2.339843-.949219 4.574219-2.558594 6.269531-.859375.777344-1.84375 1.40625-2.914062 1.851562-1.0625.453126-2.199219.695313-3.355469.707032zm0 0"/></g><path d="m35.308594 132.414062c-4.875 0-8.824219-3.953124-8.824219-8.828124v-8.828126c0-4.875 3.949219-8.828124 8.824219-8.828124 4.878906 0 8.828125 3.953124 8.828125 8.828124v8.828126c0 4.875-3.949219 8.828124-8.828125 8.828124zm0 0" fill="#95a5a5"/><path d="m35.308594 273.65625c-4.875 0-8.824219-3.953125-8.824219-8.828125v-105.929687c0-4.878907 3.949219-8.828126 8.824219-8.828126 4.878906 0 8.828125 3.949219 8.828125 8.828126v105.929687c0 4.875-3.949219 8.828125-8.828125 8.828125zm0 0" fill="#95a5a5"/><path d="m141.242188 114.757812h88.273437c9.753906 0 17.65625 7.90625 17.65625 17.65625v88.277344c0 9.75-7.902344 17.652344-17.65625 17.652344h-88.273437c-9.75 0-17.65625-7.902344-17.65625-17.652344v-88.277344c0-9.75 7.90625-17.65625 17.65625-17.65625zm0 0" fill="#c03a2b"/><path d="m229.515625 105.929688h-88.273437c-14.625 0-26.484376 11.859374-26.484376 26.484374v88.277344c0 14.625 11.859376 26.480469 26.484376 26.480469h88.273437c14.628906 0 26.484375-11.855469 26.484375-26.480469v-88.277344c0-14.625-11.855469-26.484374-26.484375-26.484374zm8.828125 114.761718c0 4.875-3.949219 8.824219-8.828125 8.824219h-88.273437c-4.875 0-8.828126-3.949219-8.828126-8.824219v-88.277344c0-4.875 3.953126-8.828124 8.828126-8.828124h88.273437c4.878906 0 8.828125 3.953124 8.828125 8.828124zm0 0" fill="#fff"/><path d="m218.101562 143.828125c-3.445312-3.445313-9.035156-3.445313-12.480468 0l-20.242188 20.242187-20.242187-20.242187c-3.460938-3.34375-8.96875-3.296875-12.375.105469-3.402344 3.40625-3.453125 8.914062-.105469 12.375l20.242188 20.242187-20.242188 20.242188c-2.296875 2.214843-3.214844 5.5-2.40625 8.585937.804688 3.085938 3.214844 5.496094 6.304688 6.304688 3.085937.808594 6.367187-.113282 8.582031-2.40625l20.242187-20.242188 20.242188 20.242188c3.464844 3.34375 8.96875 3.296875 12.375-.109375s3.453125-8.910157.105468-12.375l-20.238281-20.242188 20.238281-20.242187c3.449219-3.445313 3.449219-9.035156 0-12.480469zm0 0" fill="#fff"/><path d="m326.621094 388.414062c-1.875 12.34375-7.578125 23.789063-16.304688 32.722657-23.824218 26.421875-70.839844 46.726562-124.9375 46.726562-54.09375 0-101.109375-20.304687-124.9375-46.726562-8.726562-8.933594-14.425781-20.378907-16.304687-32.722657 1.878906-12.347656 7.578125-23.792968 16.304687-32.722656 23.828125-26.421875 70.84375-46.726562 124.9375-46.726562 54.097656 0 101.113282 20.304687 124.9375 46.726562 8.726563 8.929688 14.429688 20.375 16.304688 32.722656zm0 0" fill="#d1d4d1"/><path d="m300.136719 388.414062c-1.273438 11.84375-5.667969 23.136719-12.738281 32.722657-23.328126 30.117187-59.515626 47.441406-97.605469 46.726562-38.089844.714844-74.277344-16.609375-97.605469-46.726562-7.066406-9.585938-11.464844-20.878907-12.738281-32.722657 1.273437-11.84375 5.671875-23.136718 12.738281-32.722656 23.328125-30.117187 59.515625-47.441406 97.605469-46.726562 38.089843-.714844 74.277343 16.609375 97.605469 46.726562 7.070312 9.585938 11.464843 20.878906 12.738281 32.722656zm0 0" fill="#fff"/><path d="m264.828125 388.414062c0 43.878907-35.570313 79.449219-79.449219 79.449219s-79.449218-35.570312-79.449218-79.449219c0-43.878906 35.570312-79.449218 79.449218-79.449218s79.449219 35.570312 79.449219 79.449218zm0 0" fill="#3b97d3"/><path d="m185.378906 476.691406c-48.753906 0-88.277344-39.523437-88.277344-88.277344 0-48.753906 39.523438-88.277343 88.277344-88.277343s88.277344 39.523437 88.277344 88.277343c-.054688 48.730469-39.546875 88.222657-88.277344 88.277344zm0-158.898437c-39.003906 0-70.621094 31.617187-70.621094 70.621093 0 39.003907 31.617188 70.621094 70.621094 70.621094s70.621094-31.617187 70.621094-70.621094c-.042969-38.984374-31.636719-70.578124-70.621094-70.621093zm0 0" fill="#2980ba"/><path d="m211.863281 388.414062c0 14.625-11.859375 26.484376-26.484375 26.484376s-26.480468-11.859376-26.480468-26.484376 11.855468-26.484374 26.480468-26.484374 26.484375 11.859374 26.484375 26.484374zm0 0" fill="#2c2f38"/><path d="m185.378906 476.691406c-52.683594 0-104.289062-19.484375-131.488281-49.640625-9.964844-10.300781-16.449219-23.46875-18.535156-37.648437-.070313-.65625-.070313-1.320313 0-1.976563 2.085937-14.1875 8.570312-27.359375 18.535156-37.667969 27.199219-30.136718 78.804687-49.621093 131.488281-49.621093s104.289063 19.484375 131.53125 49.640625c9.96875 10.296875 16.453125 23.46875 18.539063 37.648437.070312.65625.070312 1.320313 0 1.976563-2.089844 14.1875-8.570313 27.359375-18.539063 37.667968-27.242187 30.136719-78.847656 49.621094-131.53125 49.621094zm-132.34375-88.277344c1.894532 10.117188 6.75 19.441407 13.957032 26.792969 24.011718 26.632813 70.472656 43.828125 118.386718 43.828125 47.917969 0 94.375-17.195312 118.378906-43.8125 7.207032-7.355468 12.070313-16.6875 13.964844-26.808594-1.890625-10.117187-6.75-19.441406-13.957031-26.792968-24.011719-26.632813-70.46875-43.828125-118.386719-43.828125-47.914062 0-94.375 17.195312-118.378906 43.8125-7.207031 7.355469-12.070312 16.683593-13.964844 26.808593zm0 0" fill="#fb7b76"/><path d="m176.550781 361.929688c0 9.753906-7.902343 17.65625-17.652343 17.65625-9.753907 0-17.65625-7.902344-17.65625-17.65625 0-9.75 7.902343-17.652344 17.65625-17.652344 9.75 0 17.652343 7.902344 17.652343 17.652344zm0 0" fill="#fff"/></svg>