<svg height="511pt" viewBox="0 -34 511.9903 511" width="511pt" xmlns="http://www.w3.org/2000/svg"><path d="m153.589844 156.824219c25.238281-11.96875 38.8125-39.835938 32.675781-67.089844-6.136719-27.25-30.339844-46.613281-58.273437-46.613281-27.9375 0-52.140626 19.363281-58.277344 46.613281-6.136719 27.253906 7.4375 55.121094 32.675781 67.089844zm0 0" fill="#ff5364"/><path d="m307.53125 307.695312v42.667969c0 47.125-38.203125 85.332031-85.332031 85.332031h-81.324219c-23.398438.046876-44.796875-13.183593-55.210938-34.132812l-70.3125-81.835938c-9.496093-11.03125-9.101562-27.453124.910157-38.015624s26.394531-11.835938 37.914062-2.945313l48.214844 37.207031v-204.542968c0-14.140626 11.460937-25.601563 25.601563-25.601563 14.136718 0 25.597656 11.460937 25.597656 25.601563v102.398437c0-14.136719 11.460937-25.601563 25.601562-25.601563 14.136719 0 25.597656 11.464844 25.597656 25.601563v17.066406c0-14.136719 11.460938-25.597656 25.601563-25.597656 14.136719 0 25.601563 11.460937 25.601563 25.597656v17.066407c0-14.136719 11.460937-25.597657 25.597656-25.597657 14.140625 0 25.601562 11.460938 25.601562 25.597657v59.734374zm0 0" fill="#fdd7ad"/><path d="m315.722656 305.988281v-58.027343c-.003906-12.617188-6.972656-24.203126-18.117187-30.125-11.140625-5.921876-24.644531-5.210938-35.105469 1.847656-3.441406-10.003906-11.347656-17.835938-21.382812-21.179688-10.039063-3.34375-21.058594-1.824218-29.816407 4.113282-3.257812-9.644532-10.699219-17.300782-20.25-20.832032-9.546875-3.527344-20.179687-2.554687-28.925781 2.65625v-73.011718c0-18.851563-15.285156-34.132813-34.132812-34.132813-18.851563 0-34.136719 15.28125-34.136719 34.132813v187.175781l-34.464844-26.597657c-14.992187-11.515624-36.261719-9.84375-49.269531 3.878907-13.003906 13.71875-13.539063 35.046875-1.238282 49.402343l69.648438 81.070313c12.050781 23.296875 36.113281 37.914063 62.34375 37.867187h81.324219c51.816406-.058593 93.804687-42.050781 93.867187-93.863281v-42.667969c-.054687-.578124-.167968-1.152343-.34375-1.707031zm-93.523437 121.171875h-81.324219c-20.164062.050782-38.605469-11.351562-47.574219-29.414062-.316406-.613282-.710937-1.1875-1.167969-1.707032l-70.304687-81.859374c-6.652344-7.707032-6.386719-19.199219.613281-26.597657 6.996094-7.394531 18.457032-8.289062 26.523438-2.074219l44.890625 34.65625v13.132813c0 4.710937 3.820312 8.53125 8.535156 8.53125 4.710937 0 8.53125-3.820313 8.53125-8.53125v-221.867187c0-9.425782 7.644531-17.066407 17.070313-17.066407 9.421874 0 17.066406 7.640625 17.066406 17.066407v145.066406c0 4.710937 3.820312 8.53125 8.53125 8.53125 4.714844 0 8.535156-3.820313 8.535156-8.53125v-42.667969c0-9.425781 7.640625-17.066406 17.066406-17.066406 9.425782 0 17.066406 7.640625 17.066406 17.066406v42.667969c0 4.710937 3.820313 8.53125 8.53125 8.53125 4.714844 0 8.535157-3.820313 8.535157-8.53125v-25.601563c0-9.425781 7.640625-17.066406 17.066406-17.066406s17.066406 7.640625 17.066406 17.066406v25.601563c0 4.710937 3.820313 8.53125 8.535157 8.53125 4.710937 0 8.53125-3.820313 8.53125-8.53125v-8.535156c0-9.425782 7.640624-17.066407 17.066406-17.066407 9.425781 0 17.066406 7.640625 17.066406 17.066407v93.867187c.050781.578125.167969 1.152344.34375 1.707031v6.828125c-.054688 42.390625-34.40625 76.746094-76.800781 76.796875zm0 0" fill="#f09372"/><g fill="#ff5364"><path d="m230.390625 94.363281c0 4.710938-3.820313 8.53125-8.535156 8.53125-4.710938 0-8.53125-3.820312-8.53125-8.53125 0-4.714843 3.820312-8.535156 8.53125-8.535156 4.714843 0 8.535156 3.820313 8.535156 8.535156zm0 0"/><path d="m264.523438 94.363281c0 4.710938-3.820313 8.53125-8.53125 8.53125-4.714844 0-8.535157-3.820312-8.535157-8.53125 0-4.714843 3.820313-8.535156 8.535157-8.535156 4.710937 0 8.53125 3.820313 8.53125 8.535156zm0 0"/><path d="m298.65625 94.363281c0 4.710938-3.820312 8.53125-8.53125 8.53125-4.714844 0-8.535156-3.820312-8.535156-8.53125 0-4.714843 3.820312-8.535156 8.535156-8.535156 4.710938 0 8.53125 3.820313 8.53125 8.535156zm0 0"/></g><path d="m503.457031 94.363281c0 47.125-38.207031 85.332031-85.332031 85.332031-47.128906 0-85.335938-38.207031-85.335938-85.332031 0-47.128906 38.207032-85.335937 85.335938-85.335937 47.125 0 85.332031 38.207031 85.332031 85.335937zm0 0" fill="#65ddb9"/><path d="m418.125 188.226562c-51.84375 0-93.867188-42.023437-93.867188-93.863281 0-51.84375 42.023438-93.867187 93.867188-93.867187 51.839844 0 93.867188 42.023437 93.867188 93.867187-.0625 51.8125-42.054688 93.804688-93.867188 93.863281zm0-170.664062c-42.417969 0-76.800781 34.382812-76.800781 76.800781 0 42.414063 34.382812 76.796875 76.800781 76.796875 42.414062 0 76.796875-34.382812 76.796875-76.796875-.050781-42.394531-34.402344-76.75-76.796875-76.800781zm0 0" fill="#24ae5f"/><path d="m401.519531 133.914062c-4.53125.011719-8.875-1.78125-12.085937-4.976562l-20.007813-20.007812c-3.234375-3.351563-3.191406-8.671876.101563-11.964844 3.292968-3.289063 8.613281-3.335938 11.960937-.101563l19.9375 19.933594 52.90625-62.097656c3.0625-3.589844 8.457031-4.019531 12.046875-.957031 3.59375 3.0625 4.019532 8.457031.957032 12.050781l-53.761719 63.144531c-.289063.34375-.605469.664062-.945313.957031-3.105468 2.625-7.046875 4.050781-11.109375 4.019531zm0 0" fill="#ecf0f1"/></svg>