<svg height="511pt" viewBox="-4 0 511 511.23234" width="511pt" xmlns="http://www.w3.org/2000/svg"><g fill="#4482c3"><path d="m128.117188 164.183594c-3.957032-.003906-7.394532-2.722656-8.304688-6.570313-.910156-3.851562.945312-7.820312 4.480469-9.59375 11.558593-5.808593 23.996093-9.660156 36.8125-11.410156 4.628906-.550781 8.84375 2.71875 9.464843 7.339844.621094 4.621093-2.582031 8.882812-7.195312 9.574219-10.949219 1.496093-21.578125 4.792968-31.453125 9.761718-1.179687.59375-2.484375.898438-3.804687.898438zm0 0"/><path d="m64.558594 434.859375c-3.675782 0-6.9375-2.355469-8.097656-5.847656-3.421876-10.335938-5.160157-21.152344-5.144532-32.039063v-22.273437c0-4.714844 3.820313-8.535157 8.53125-8.535157 4.714844 0 8.535156 3.820313 8.535156 8.535157v21.761719c-.058593 9.230468 1.382813 18.40625 4.265626 27.175781.863281 2.601562.425781 5.460937-1.179688 7.683593-1.601562 2.222657-4.175781 3.539063-6.917969 3.539063zm0 0"/><path d="m59.847656 349.097656c-4.710937 0-8.53125-3.820312-8.53125-8.53125v-72.976562c-.035156-14.675782 2.242188-29.265625 6.742188-43.230469 4.902344-15.605469 12.617187-30.183594 22.757812-43.015625 4.8125-6.175781 10.191406-11.890625 16.066406-17.066406 3.558594-2.867188 8.742188-2.421875 11.761719 1.007812 3.015625 3.429688 2.796875 8.625-.496093 11.789063-5.085938 4.5-9.746094 9.457031-13.917969 14.816406-8.859375 11.238281-15.597657 24-19.875 37.65625-3.972657 12.289063-5.988281 25.125-5.972657 38.042969v72.976562c0 4.710938-3.820312 8.53125-8.535156 8.53125zm0 0"/><path d="m298.78125 222.292969c-3.25.019531-6.226562-1.8125-7.679688-4.71875-16.671874-34.25-49.046874-58.175781-86.679687-64.058594-3.019531-.4375-5.574219-2.449219-6.707031-5.28125-1.132813-2.832031-.667969-6.050781 1.21875-8.449219 1.886718-2.394531 4.910156-3.601562 7.929687-3.167968 43.195313 6.65625 80.402344 34.039062 99.597657 73.304687 1.339843 2.652344 1.199218 5.8125-.367188 8.339844-1.570312 2.523437-4.339844 4.050781-7.3125 4.03125zm0 0"/><path d="m225.839844 493.535156c-23.96875-15.6875-47.078125-32.644531-69.230469-50.800781-23.4375-19.152344-37.003906-47.839844-36.941406-78.105469-.085938-20.375-.085938-39.671875-.085938-55.636718v-40.191407c-.027343-1.546875.0625-3.09375.273438-4.625.792969-13.371093 5.9375-26.113281 14.644531-36.292969 9.660156-11.664062 23.167969-19.5 38.089844-22.101562 3.640625-.675781 7.335937-1.003906 11.035156-.980469 34.515625.164063 62.742188 27.550781 63.957031 62.046875.066407.648438.097657 1.300782.09375 1.953125v42.921875c-.074219 11.941406 2.550781 23.742188 7.679688 34.527344 1.292969 2.761719 1.015625 6.003906-.730469 8.503906s-4.695312 3.878906-7.730469 3.617188c-3.039062-.261719-5.707031-2.125-7-4.886719-6.140625-12.851563-9.320312-26.917969-9.300781-41.164063v-43.519531c-.078125-.421875-.105469-.851562-.078125-1.28125-.796875-25.375-21.546875-45.558593-46.933594-45.652343-2.660156-.023438-5.320312.210937-7.9375.699218-11.007812 1.894532-20.972656 7.664063-28.097656 16.265625-6.476563 7.609375-10.261719 17.140625-10.777344 27.117188-.117187.945312-.160156 1.898437-.121093 2.851562v40.191407c0 15.949218 0 35.21875.085937 55.089843-.167969 25.339844 11.121094 49.394531 30.71875 65.453125 21.605469 17.707032 44.136719 34.246094 67.5 49.550782zm0 0"/><path d="m247.582031 469.332031c-1.953125.003907-3.851562-.667969-5.367187-1.902343l-1.988282-1.613282c-1.902343-1.535156-4.105468-3.328125-6.585937-5.296875-.304687-.234375-.589844-.484375-.855469-.761719-10.476562-8.464843-25.445312-20.597656-41.957031-34.019531-23.464844-19.027343-37.082031-47.632812-37.0625-77.84375v-11.203125c-.050781-16.871094-.050781-32.246094-.050781-44.144531v-23.890625c.023437-15.773438 12.328125-28.800781 28.074218-29.722656 8.070313-.410156 15.953126 2.53125 21.777344 8.132812 6.308594 5.976563 9.894532 14.273438 9.925782 22.960938v13.5c0 10.625 0 26.089844-.085938 43.929687v.984375c.121094 24.847656 11.316406 48.347656 30.539062 64.09375l9.023438 7.363282c3.539062 3.003906 4.023438 8.289062 1.09375 11.890624-2.929688 3.601563-8.203125 4.199219-11.863281 1.34375l-9.019531-7.363281c-23.164063-18.972656-36.65625-47.292969-36.796876-77.234375v-.992187c.085938-17.917969.085938-33.363281.085938-43.972657v-13.523437c-.019531-4.003906-1.679688-7.820313-4.59375-10.566406-2.394531-2.394531-5.699219-3.660157-9.085938-3.480469-3.125.195312-6.066406 1.523438-8.285156 3.730469-2.378906 2.375-3.714844 5.597656-3.722656 8.957031v23.894531c0 11.871094 0 27.222657.085938 44.09375v11.253907c-.011719 25.074218 11.292968 48.816406 30.773437 64.605468 16.894531 13.738282 32.175781 26.128906 42.664063 34.613282.261718.207031.511718.433593.742187.671874 2.203125 1.765626 4.191406 3.414063 5.921875 4.789063l1.972656 1.59375c2.777344 2.28125 3.832032 6.058594 2.628906 9.445313-1.199218 3.390624-4.394531 5.664062-7.988281 5.683593zm0 0"/><path d="m68.382812 45.398438c-3.9375 0-7.359374-2.691407-8.292968-6.515626-.929688-3.820312.871094-7.785156 4.367187-9.597656 54.285157-28.164062 116.746094-36.34375 176.453125-23.105468 2.976563.664062 5.371094 2.863281 6.28125 5.773437.914063 2.910156.203125 6.085937-1.859375 8.328125-2.0625 2.246094-5.167969 3.21875-8.144531 2.554688-55.792969-12.363282-114.15625-4.714844-164.878906 21.605468-1.214844.628906-2.558594.957032-3.925782.957032zm0 0"/><path d="m307.316406 51.199219c-1.542968 0-3.054687-.417969-4.378906-1.210938-10.566406-6.316406-21.589844-11.828125-32.980469-16.496093-4.230469-1.867188-6.199219-6.761719-4.449219-11.039063 1.753907-4.277344 6.59375-6.382813 10.917969-4.746094 12.1875 4.984375 23.984375 10.878907 35.285157 17.636719 3.292968 1.972656 4.863281 5.902344 3.839843 9.601562-1.027343 3.699219-4.394531 6.261719-8.234375 6.253907zm0 0"/><path d="m25.714844 119.46875c-3.4375 0-6.539063-2.058594-7.871094-5.226562-1.332031-3.167969-.636719-6.828126 1.769531-9.28125 59.914063-60.695313 147.710938-84.707032 230.171875-62.949219 3.039063.695312 5.457032 3 6.300782 6.003906.847656 3.003906-.015626 6.230469-2.246094 8.410156-2.230469 2.183594-5.472656 2.972657-8.460938 2.0625-76.511718-20.144531-157.957031 2.132813-213.5625 58.417969-1.605468 1.640625-3.804687 2.5625-6.101562 2.5625zm0 0"/><path d="m367.050781 136.535156c-2.53125 0-4.933593-1.121094-6.554687-3.066406-24.414063-28.949219-55.488282-51.542969-90.554688-65.839844-4.359375-1.792968-6.441406-6.777344-4.652344-11.136718 1.789063-4.359376 6.777344-6.441407 11.136719-4.652344 37.632813 15.355468 70.980469 39.613281 97.175781 70.691406 2.125 2.542969 2.585938 6.085938 1.179688 9.085938-1.402344 3-4.417969 4.917968-7.730469 4.917968zm0 0"/><path d="m76.914062 119.46875c-3.800781 0-7.144531-2.511719-8.203124-6.164062-1.054688-3.652344.429687-7.5625 3.648437-9.589844 19.21875-12.015625 40.175781-21 62.128906-26.640625 2.980469-.839844 6.175781 0 8.359375 2.191406 2.183594 2.1875 3.011719 5.390625 2.160156 8.363281-.847656 2.976563-3.238281 5.257813-6.25 5.964844-20.257812 5.199219-39.597656 13.484375-57.335937 24.558594-1.351563.851562-2.910156 1.304687-4.507813 1.316406zm0 0"/><path d="m8.648438 204.800781c-2.753907 0-5.339844-1.332031-6.941407-3.574219-1.601562-2.242187-2.023437-5.117187-1.128906-7.722656 9.253906-26.921875 24.539063-51.367187 44.6875-71.476562 3.339844-3.246094 8.664063-3.214844 11.964844.070312 3.300781 3.28125 3.359375 8.605469.136719 11.960938-18.328126 18.292968-32.230469 40.53125-40.644532 65.015625-1.195312 3.433593-4.4375 5.730469-8.074218 5.726562zm0 0"/><path d="m358.515625 187.734375c-3.261719.003906-6.242187-1.847656-7.679687-4.78125-31.496094-60.742187-94.566407-98.519531-162.988282-97.621094-4.710937 0-8.53125-3.820312-8.53125-8.53125 0-4.714843 3.820313-8.535156 8.53125-8.535156 74.941406-.898437 143.96875 40.585937 178.347656 107.179687 1.296876 2.648438 1.136719 5.777344-.425781 8.277344s-4.304687 4.015625-7.253906 4.011719zm0 0"/><path d="m324.382812 202.410156c-2.96875.003906-5.722656-1.535156-7.28125-4.0625-6.792968-11.003906-14.941406-21.109375-24.257812-30.078125-2.207031-2.117187-3.113281-5.25-2.375-8.214843.738281-2.96875 3.003906-5.3125 5.945312-6.148438 2.9375-.839844 6.101563-.039062 8.289063 2.09375 10.347656 9.972656 19.402344 21.210938 26.949219 33.441406 1.601562 2.628906 1.660156 5.921875.15625 8.609375-1.507813 2.6875-4.34375 4.355469-7.425782 4.359375zm0 0"/><path d="m25.785156 307.148438c-4.488281.011718-8.21875-3.457032-8.535156-7.933594-.066406-1.085938-.066406-11.324219-.066406-30.414063 0-2.910156.085937-5.820312.179687-8.644531 1.109375-20.839844 6.265625-41.265625 15.179688-60.132812 29.082031-61.582032 92.03125-99.945313 160.09375-97.5625 4.710937.125 8.425781 4.042968 8.300781 8.753906-.195312 4.679687-4.070312 8.355468-8.753906 8.304687-61.28125-2.214843-117.984375 32.300781-144.160156 87.753907-7.972657 16.828124-12.597657 35.046874-13.613282 53.640624-.074218 2.433594-.160156 5.121094-.160156 7.886719 0 1.40625 0 27.179688.074219 29.457031.195312 4.679688-3.417969 8.640626-8.097657 8.875zm0 0"/><path d="m273.183594 145.066406c-1.847656 0-3.644532-.597656-5.121094-1.707031-11.171875-8.453125-23.804688-14.785156-37.265625-18.671875l-2.492187-.65625c-4.484376-1.277344-7.113282-5.921875-5.902344-10.425781 1.214844-4.503907 5.820312-7.199219 10.339844-6.050781l2.628906.699218c15.503906 4.457032 30.058594 11.730469 42.929687 21.453125 2.941407 2.203125 4.136719 6.039063 2.976563 9.523438s-4.421875 5.835937-8.09375 5.835937zm0 0"/><path d="m196.382812 511.230469c-1.933593.003906-3.808593-.652344-5.316406-1.859375-7.046875-5.605469-16.691406-12.558594-26.898437-19.914063-12.953125-9.347656-27.648438-19.9375-40.875-30.535156-23.882813-18.910156-37.824219-47.699219-37.84375-78.164063v-111.957031c-.011719-4.25.273437-8.496093.851562-12.707031 1.6875-13.230469 6.171875-25.953125 13.160157-37.316406 7.886718-12.933594 18.632812-23.890625 31.410156-32.023438 19.582031-12.480468 42.8125-17.953125 65.902344-15.53125 43.308593 4.597656 73.644531 40.277344 84.480468 73.597656 1.261719 4.414063-1.195312 9.03125-5.558594 10.457032-4.359374 1.421875-9.066406-.859375-10.652343-5.164063-8.832031-27.179687-34.527344-58.113281-70.027344-61.910156-19.253906-2.019531-38.621094 2.542969-54.953125 12.9375-10.589844 6.734375-19.492188 15.8125-26.027344 26.527344-5.746094 9.355469-9.433594 19.828125-10.8125 30.722656-.472656 3.449219-.710937 6.925781-.707031 10.410156v111.53125c-.070313 25.425781 11.523437 49.480469 31.453125 65.269531 12.886719 10.335938 27.394531 20.789063 40.183594 30.003907 10.378906 7.484375 20.171875 14.507812 27.546875 20.421875 2.835937 2.257812 3.933593 6.066406 2.734375 9.488281-1.195313 3.421875-4.425782 5.714844-8.050782 5.714844zm0 0"/></g><path d="m290.25 503.46875v-187.734375c0-56.554687 45.84375-102.402344 102.398438-102.402344h8.535156c56.554687 0 102.398437 45.847657 102.398437 102.402344v187.734375zm0 0" fill="#fdd7ad"/><path d="m396.914062 384c-19.351562-.007812-38.613281-2.613281-57.273437-7.746094-9.4375-2.976562-16.113281-11.398437-16.855469-21.265625l-6.824218-67.277343c-.910157-8.441407 2.386718-16.789063 8.824218-22.324219 41.636719-35.230469 102.632813-35.230469 144.269532 0 6.441406 5.550781 9.726562 13.917969 8.792968 22.367187l-6.828125 67.285156c-.75 9.851563-7.414062 18.261719-16.835937 21.238282-18.660156 5.125-37.917969 7.722656-57.269532 7.722656zm0 0" fill="#f09372"/><path d="m469.449219 265.898438c0 .425781-.085938.855468-.085938 1.195312l-7.507812 82.859375c-.113281 3.582031-2.367188 6.746094-5.71875 8.019531-1.621094.597656-3.328125 1.023438-4.949219 1.535156h-.085938c-11.039062 3.0625-22.3125 5.203126-33.707031 6.402344-4.519531.425782-9.042969.765625-13.652343.9375-2.304688.085938-4.523438.085938-6.828126.085938-2.300781 0-4.605468 0-6.910156-.085938-2.644531-.085937-5.289062-.253906-7.9375-.511718-4.09375-.339844-8.191406-.769532-12.203125-1.363282-2.558593-.257812-5.03125-.683594-7.59375-1.109375-6.484375-1.109375-13.054687-2.5625-19.539062-4.355469h-.085938c-1.621093-.511718-3.328125-.9375-4.949219-1.535156-3.351562-1.273437-5.605468-4.4375-5.71875-8.019531l-7.507812-82.859375c-.390625-3.0625.683594-6.128906 2.898438-8.277344 9.582031-8.984375 20.714843-16.152344 32.855468-21.164062 23.503906-9.671875 49.878906-9.671875 73.386719 0 12.140625 5.011718 23.273437 12.179687 32.851563 21.164062 1.949218 1.835938 3.03125 4.40625 2.988281 7.082032zm0 0" fill="#f9eab0"/><path d="m426.78125 443.734375h-59.730469c-4.714843 0-8.535156-3.820313-8.535156-8.535156 0-4.710938 3.820313-8.53125 8.535156-8.53125h59.730469c4.714844 0 8.535156 3.820312 8.535156 8.53125 0 4.714843-3.820312 8.535156-8.535156 8.535156zm0 0" fill="#f09372"/><path d="m426.78125 477.867188h-59.730469c-4.714843 0-8.535156-3.820313-8.535156-8.535157 0-4.710937 3.820313-8.53125 8.535156-8.53125h59.730469c4.714844 0 8.535156 3.820313 8.535156 8.53125 0 4.714844-3.820312 8.535157-8.535156 8.535157zm0 0" fill="#f09372"/><path d="m451.101562 359.507812c-11.039062 3.0625-22.3125 5.203126-33.707031 6.402344-4.519531.425782-9.042969.765625-13.652343.9375-2.304688.085938-4.523438.085938-6.828126.085938-2.300781 0-4.605468 0-6.910156-.085938-2.644531-.085937-5.289062-.253906-7.9375-.511718-4.09375-.339844-8.191406-.769532-12.203125-1.363282-.9375-.085937-1.789062-.257812-2.730469-.34375l-4.863281-.765625c-6.484375-1.109375-13.054687-2.5625-19.539062-4.355469 5.566406-25.464843 28.117187-43.617187 54.183593-43.617187 26.070313 0 48.621094 18.152344 54.1875 43.617187zm0 0" fill="#f5efca"/></svg>