<svg height="512pt" viewBox="-4 0 512 512.00323" width="512pt" xmlns="http://www.w3.org/2000/svg"><g fill="#4482c3"><path d="m136.507812 165.550781c-3.972656-.007812-7.417968-2.757812-8.300781-6.632812-.886719-3.875 1.023438-7.847657 4.597657-9.582031 12.007812-5.800782 24.863281-9.640626 38.085937-11.367188 4.617187-.5 8.789063 2.78125 9.386719 7.386719.597656 4.609375-2.601563 8.84375-7.195313 9.535156-11.402343 1.488281-22.496093 4.800781-32.851562 9.804687-1.160157.5625-2.433594.855469-3.722657.855469zm0 0"/><path d="m65.90625 435.519531c-3.480469 0-6.609375-2.109375-7.910156-5.332031-4.222656-10.355469-6.390625-21.429688-6.394532-32.609375v-22.304687c0-4.710938 3.820313-8.53125 8.535157-8.53125 4.710937 0 8.53125 3.820312 8.53125 8.53125v21.792968c-.046875 9.152344 1.691406 18.226563 5.121093 26.710938 1.066407 2.628906.757813 5.617187-.828124 7.972656-1.582032 2.355469-4.234376 3.765625-7.074219 3.769531zm0 0"/><path d="m59.710938 349.613281c-4.714844 0-8.535157-3.820312-8.535157-8.53125v-71.878906c-.015625-14.734375 2.730469-29.34375 8.097657-43.066406 6.105468-15.839844 15.320312-30.300781 27.101562-42.523438 5.800781-6.148437 12.152344-11.753906 18.980469-16.742187 2.464843-1.792969 5.699219-2.136719 8.484375-.898438 2.785156 1.238282 4.699218 3.867188 5.023437 6.898438.320313 3.03125-1 6.003906-3.464843 7.800781-5.988282 4.367187-11.554688 9.285156-16.632813 14.683594-10.242187 10.609375-18.257813 23.160156-23.566406 36.917969-4.609375 11.765624-6.96875 24.292968-6.957031 36.929687v71.878906c0 4.710938-3.820313 8.53125-8.53125 8.53125zm0 0"/><path d="m251.488281 172.375c-1.621093.003906-3.207031-.457031-4.574219-1.328125-12.9375-8.269531-27.476562-13.703125-42.667968-15.941406-4.578125-.773438-7.699219-5.070313-7.019532-9.664063.683594-4.59375 4.914063-7.800781 9.519532-7.214844 17.558594 2.585938 34.367187 8.859376 49.324218 18.414063 3.203126 2.035156 4.675782 5.945313 3.617188 9.589844-1.0625 3.644531-4.402344 6.148437-8.199219 6.144531zm0 0"/><path d="m238.910156 503.46875c-1.601562 0-3.171875-.457031-4.523437-1.3125-.675781-.4375-.851563-.546875-69.699219-53.761719l-5.640625-4.359375c-24.738281-18.671875-39.347656-47.8125-39.511719-78.804687-.09375-20.574219-.09375-40.03125-.09375-56.132813v-40.523437c-.023437-1.425781.050782-2.851563.222656-4.269531.898438-13.808594 6.445313-26.902344 15.746094-37.152344 11.273438-11.875 26.191406-19.648438 42.382813-22.085938l.921875-.136718c2.179687-.507813 4.476562-.121094 6.371094 1.074218 1.890624 1.195313 3.226562 3.105469 3.699218 5.292969 1.003906 4.648437-1.90625 9.246094-6.535156 10.324219-.324219.078125-1.214844.222656-1.546875.257812-12.367187 1.820313-23.796875 7.652344-32.527344 16.597656-6.832031 7.496094-10.886719 17.105469-11.496093 27.230469-.015626.285157-.050782.570313-.101563.851563-.074219.65625-.097656 1.320312-.070313 1.980468v40.523438c0 16.078125 0 35.507812.09375 55.535156.023438 25.898438 12.175782 50.289063 32.839844 65.902344l5.648438 4.363281c34.472656 26.648438 67.035156 51.8125 68.792968 53.109375 3.039063 2.152344 4.332032 6.027344 3.195313 9.574219-1.140625 3.542969-4.445313 5.941406-8.167969 5.921875zm0 0"/><path d="m255.976562 477.871094c-.917968 0-1.828124-.148438-2.695312-.4375-1.621094-.535156-1.621094-.535156-8.859375-6.355469l-8.875-7.125c-.300781-.230469-.585937-.476563-.851563-.742187-10.769531-8.644532-26.15625-21.035157-43.121093-34.75-24.035157-19.332032-38.011719-48.519532-38-79.367188v-10.148438c0-4.710937 3.824219-8.53125 8.535156-8.53125 4.714844 0 8.535156 3.820313 8.535156 8.53125v10.148438c.003907 25.699219 11.660157 50.007812 31.691407 66.105469 17.375 14.03125 33.082031 26.675781 43.878906 35.347656.28125.222656.542968.464844.792968.726563l8.105469 6.5c2.867188 2.304687 4.769531 3.839843 5.539063 4.421874 3.160156 2.066407 4.585937 5.960938 3.507812 9.582032-1.078125 3.617187-4.410156 6.09375-8.183594 6.09375zm0 0"/><path d="m69.4375 45.441406c-3.929688 0-7.351562-2.6875-8.28125-6.507812-.933594-3.816406.859375-7.777344 4.347656-9.59375 54.398438-28.214844 116.988282-36.410156 176.820313-23.148438 2.972656.664063 5.367187 2.863282 6.28125 5.773438.910156 2.910156.203125 6.085937-1.859375 8.328125-2.0625 2.246093-5.167969 3.21875-8.144532 2.554687-55.914062-12.382812-114.398437-4.726562-165.238281 21.640625-1.214843.628907-2.558593.957031-3.925781.953125zm0 0"/><path d="m304.429688 46.730469c-1.410157.003906-2.800782-.347657-4.039063-1.023438-9.902344-5.304687-20.167969-9.910156-30.71875-13.78125-4.355469-1.671875-6.5625-6.53125-4.953125-10.910156 1.609375-4.382813 6.4375-6.65625 10.839844-5.105469 11.304687 4.160156 22.304687 9.109375 32.914062 14.8125 3.449219 1.851563 5.195313 5.808594 4.238282 9.605469-.957032 3.792969-4.371094 6.449219-8.28125 6.445313zm0 0"/><path d="m27.214844 121.253906c-3.40625 0-6.484375-2.019531-7.835938-5.144531-1.351562-3.125-.71875-6.753906 1.613282-9.234375 43.109374-46.480469 103.683593-72.832031 167.074218-72.6875 20.261719-.03125 40.4375 2.6875 59.964844 8.089844 2.9375.816406 5.214844 3.140625 5.976562 6.089844.761719 2.953124-.109374 6.089843-2.285156 8.222656-2.175781 2.136718-5.328125 2.949218-8.265625 2.132812-18.039062-4.988281-36.671875-7.5-55.390625-7.46875-58.675781-.121094-114.738281 24.28125-154.632812 67.3125-1.613282 1.714844-3.863282 2.6875-6.21875 2.6875zm0 0"/><path d="m364.136719 139.097656c-2.65625 0-5.160157-1.238281-6.777344-3.347656-21.90625-28.65625-50.585937-51.429688-83.464844-66.269531-2.804687-1.230469-4.734375-3.871094-5.054687-6.921875-.324219-3.046875 1.015625-6.03125 3.503906-7.820313 2.488281-1.789062 5.746094-2.105469 8.53125-.828125 35.476562 16.003906 66.421875 40.566406 90.0625 71.480469 1.972656 2.578125 2.3125 6.054687.875 8.96875-1.4375 2.910156-4.402344 4.753906-7.652344 4.753906zm0 0"/><path d="m77.09375 122.191406c-3.675781 0-6.9375-2.351562-8.097656-5.835937s.039062-7.320313 2.976562-9.523438c17.726563-13.246093 37.601563-23.351562 58.75-29.867187 4.503906-1.390625 9.285156 1.128906 10.675782 5.632812 1.394531 4.503906-1.128907 9.28125-5.632813 10.675782-19.285156 5.9375-37.410156 15.148437-53.578125 27.230468-1.472656 1.09375-3.261719 1.6875-5.09375 1.6875zm0 0"/><path d="m8.507812 218.175781c-.867187-.007812-1.730468-.144531-2.558593-.402343-2.15625-.683594-3.953125-2.199219-4.992188-4.210938-1.0390622-2.007812-1.238281-4.351562-.554687-6.507812 8.765625-27.847657 23.566406-53.417969 43.339844-74.894532 2.03125-2.378906 5.195312-3.457031 8.25-2.8125 3.058593.644532 5.519531 2.90625 6.417968 5.902344.894532 2.992188.085938 6.234375-2.113281 8.453125-18.089844 19.648437-31.625 43.042969-39.648437 68.515625-1.121094 3.546875-4.417969 5.957031-8.140626 5.957031zm0 0"/><path d="m358.027344 193.554688c-3.308594 0-6.316406-1.910157-7.722656-4.90625-28.664063-62.203126-90.554688-102.363282-159.035157-103.199219-6.558593.011719-13.113281.390625-19.628906 1.132812-3.050781.390625-6.078125-.894531-7.917969-3.359375s-2.210937-5.730468-.972656-8.542968c1.242188-2.816407 3.902344-4.746094 6.960938-5.054688 7.167968-.820312 14.375-1.234375 21.589843-1.246094 75.085938.851563 142.980469 44.839844 174.449219 113.015625 2 4.265625.167969 9.347657-4.097656 11.351563-1.132813.535156-2.371094.8125-3.625.808594zm0 0"/><path d="m25.644531 307.597656c-4.496093.035156-8.238281-3.441406-8.535156-7.929687-.066406-1.09375-.066406-11.339844-.066406-30.464844 0-2.910156.085937-5.820313.179687-8.644531 1.105469-20.863282 6.261719-41.3125 15.179688-60.210938 29.042968-61.632812 92-100.054687 160.09375-97.695312 3.050781.078125 5.824218 1.78125 7.277344 4.460937 1.453124 2.679688 1.367187 5.933594-.226563 8.535157-1.59375 2.597656-4.453125 4.148437-7.503906 4.070312-61.316407-2.207031-118.039063 32.375-144.160157 87.890625-7.976562 16.871094-12.601562 35.128906-13.609374 53.761719-.078126 2.429687-.164063 5.164062-.164063 7.882812 0 1.417969 0 27.222656.078125 29.5.195312 4.683594-3.417969 8.648438-8.097656 8.882813zm0 0"/><path d="m277.609375 147.628906c-1.765625 0-3.484375-.550781-4.925781-1.570312-13.539063-9.625-28.679688-16.777344-44.714844-21.117188l-3.003906-.742187c-2.953125-.765625-5.273438-3.042969-6.089844-5.980469s-.003906-6.089844 2.132812-8.265625c2.136719-2.175781 5.273438-3.046875 8.226563-2.285156l3.105469.769531c18.015625 4.863281 35.023437 12.886719 50.234375 23.695312 3.03125 2.148438 4.324219 6.011719 3.199219 9.550782-1.128907 3.542968-4.414063 5.945312-8.132813 5.945312zm0 0"/><path d="m194.535156 512.003906c-1.886718 0-3.722656-.625-5.214844-1.785156-12.335937-9.546875-28.660156-22.261719-46.136718-35.839844l-18.851563-14.683594c-24.492187-18.667968-38.914062-47.660156-39.023437-78.457031v-112.222656c0-4.28125.296875-8.558594.898437-12.800781 1.753907-13.324219 6.394531-26.109375 13.59375-37.460938 8.1875-13.015625 19.25-23.984375 32.339844-32.058594 20.238281-12.46875 44.019531-17.917968 67.667969-15.503906 5.28125.535156 10.511718 1.46875 15.652344 2.796875 3.011718.710938 5.402343 2.992188 6.25 5.964844.851562 2.972656.023437 6.175781-2.160157 8.367187-2.183593 2.191407-5.378906 3.027344-8.359375 2.191407-4.289062-1.113281-8.660156-1.894531-13.070312-2.339844-19.902344-2.0625-39.925782 2.519531-56.953125 13.03125-10.894531 6.699219-20.105469 15.816406-26.921875 26.640625-5.890625 9.308594-9.675782 19.792969-11.09375 30.71875-.507813 3.460938-.765625 6.957031-.777344 10.453125v111.789063c.035156 25.652343 12.023438 49.824218 32.429688 65.371093l18.855468 14.695313c17.460938 13.601562 33.757813 26.308594 46.082032 35.839844 2.890624 2.230468 4.042968 6.050781 2.867187 9.507812s-4.421875 5.78125-8.074219 5.785156zm0 0"/></g><path d="m493.628906 445.101562-77.3125-78.589843c-1.578125-1.597657-3.726562-2.496094-5.972656-2.496094s-4.394531.898437-5.972656 2.496094l-5.886719 6.058593-30.125-30.636718c24.617187-37.195313 19.621094-86.585938-11.945313-118.101563-17.386718-17.375-40.875-27.265625-65.453124-27.5625-13.242188-.097656-26.359376 2.609375-38.484376 7.9375-10.742187 4.65625-20.503906 11.316407-28.757812 19.625-34.269531 34.296875-36.75 89.066407-5.71875 126.320313s85.34375 44.714844 125.273438 17.210937c.511718-.339843.9375-.683593 1.449218-1.023437l29.867188 30.378906-5.886719 6.058594c-3.242187 3.386718-3.242187 8.726562 0 12.117187l77.308594 78.589844c6.277343 6.386719 14.855469 9.984375 23.808593 9.984375 8.953126 0 17.53125-3.597656 23.808594-9.984375 13.054688-13.484375 13.054688-34.894531 0-48.382813zm0 0" fill="#95a5a5"/><path d="m356.414062 223.832031c-17.386718-17.375-40.875-27.265625-65.453124-27.5625-13.242188-.097656-26.359376 2.609375-38.484376 7.9375-10.742187 4.65625-20.503906 11.316407-28.757812 19.625-34.269531 34.296875-36.75 89.066407-5.71875 126.320313s85.34375 44.714844 125.273438 17.210937c.511718-.339843.9375-.683593 1.449218-1.023437 4.167969-2.964844 8.078125-6.277344 11.691406-9.898438 4.449219-4.433594 8.449219-9.289062 11.945313-14.507812 24.617187-37.195313 19.621094-86.585938-11.945313-118.101563zm0 0" fill="#547580"/><path d="m332.347656 332.460938c-21.925781 21.746093-56.78125 23.296874-80.554687 3.585937-1.367188-1.128906-2.679688-2.324219-3.921875-3.585937-22.222656-22.253907-23.378906-57.929688-2.648438-81.578126.855469-1.023437 1.707032-1.960937 2.648438-2.902343 7.253906-7.28125 16.28125-12.546875 26.195312-15.273438 26.140625-7.273437 53.902344 3.984375 67.589844 27.414063 13.691406 23.429687 9.867188 53.140625-9.308594 72.339844zm0 0" fill="#b0d3f0"/><path d="m290.023438 358.257812c-15.945313.058594-31.410157-5.484374-43.691407-15.660156-1.5625-1.285156-3.0625-2.652344-4.488281-4.09375-25.414062-25.445312-26.730469-66.238281-3.011719-93.269531.945313-1.144531 1.949219-2.242187 3.003907-3.285156 8.308593-8.320313 18.636718-14.339844 29.96875-17.46875 13.941406-3.855469 28.742187-3.207031 42.292968 1.851562 9.125 3.394531 17.410156 8.722657 24.285156 15.617188 26.613282 26.679687 26.613282 69.867187 0 96.546875-12.867187 12.726562-30.257812 19.835937-48.359374 19.761718zm0-119.203124c-13.542969.007812-26.53125 5.390624-36.113282 14.96875-.742187.730468-1.445312 1.5-2.105468 2.304687-17.925782 20.253906-17.003907 50.957031 2.105468 70.101563 1.066406 1.058593 2.132813 2.0625 3.277344 2.996093 20.421875 16.800781 50.226562 15.507813 69.121094-2.996093 19.964844-20.011719 19.964844-52.40625 0-72.414063-5.152344-5.15625-11.359375-9.132813-18.195313-11.664063-5.785156-2.167968-11.917969-3.285156-18.097656-3.296874zm0 0" fill="#90bae1"/><path d="m398.484375 372.570312-23.894531 24.148438-29.867188-30.378906c4.167969-2.964844 8.078125-6.277344 11.691406-9.898438 4.449219-4.433594 8.449219-9.289062 11.945313-14.507812zm0 0" fill="#bdc3c7"/></svg>