<svg height="512pt" viewBox="0 0 512.16402 512" width="512pt" xmlns="http://www.w3.org/2000/svg"><g fill="#955ba5"><path d="m176.875 412.371094c-2.300781 0-4.398438-.902344-6-2.5l-68.597656-68.601563c-3.300782-3.300781-3.300782-8.800781 0-12.097656 3.296875-3.300781 8.796875-3.300781 12.097656 0l68.601562 68.597656c2.398438 2.402344 3.199219 6.101563 1.800782 9.300781-1.300782 3.199219-4.402344 5.300782-7.902344 5.300782zm0 0"/><path d="m160.777344 452.96875c-2.300782 0-4.402344-.898438-6-2.5l-93.101563-93.097656c-3.199219-3.300782-3.199219-8.699219.101563-12 3.296875-3.300782 8.597656-3.300782 12-.101563l93.097656 93.101563c2.402344 2.398437 3.199219 6.097656 1.800781 9.300781-1.300781 3.199219-4.398437 5.296875-7.898437 5.296875zm0 0"/><path d="m135.375 484.269531c-2.300781 0-4.398438-.898437-6-2.5l-99.097656-99.097656c-3.203125-3.300781-3.203125-8.703125.097656-12 3.300781-3.300781 8.601562-3.300781 12-.101563l99.101562 99.101563c2.398438 2.398437 3.199219 6.097656 1.800782 9.296875-1.300782 3.203125-4.402344 5.300781-7.902344 5.300781zm0 0"/><path d="m101.976562 507.570312c-2.300781 0-4.402343-.898437-6-2.5l-89-89c-3.199218-3.300781-3.199218-8.699218.097657-12 3.300781-3.300781 8.601562-3.300781 12-.101562l89 89c2.402343 2.402344 3.203125 6.101562 1.800781 9.300781-1.300781 3.300781-4.398438 5.300781-7.898438 5.300781zm0 0"/><path d="m282.375 234.269531c-2.300781 0-4.398438-.898437-6-2.5l-44-44c-3.199219-3.300781-3.199219-8.699219.101562-12 3.300782-3.300781 8.597657-3.300781 12-.097656l44 44c2.398438 2.398437 3.199219 6.097656 1.800782 9.296875-1.402344 3.300781-4.5 5.402344-7.902344 5.300781zm0 0"/><path d="m343.074219 238.371094c-2.296875 0-4.398438-.902344-6-2.5l-63.898438-63.902344c-3.199219-3.296875-3.199219-8.699219.101563-12 3.296875-3.296875 8.597656-3.296875 12-.097656l63.898437 63.898437c2.398438 2.402344 3.199219 6.101563 1.800781 9.300781-1.300781 3.199219-4.402343 5.199219-7.902343 5.300782zm0 0"/><path d="m246.976562 255.671875c-2.300781 0-4.5-.902344-6.101562-2.5l-40.5-40.601563c-3.300781-3.300781-3.300781-8.800781 0-12.101562 3.300781-3.296875 8.800781-3.296875 12.101562 0l40.199219 40.300781c2.601563 2.402344 3.5 6.101563 2.300781 9.402344-1.300781 3.296875-4.402343 5.398437-8 5.5zm0 0"/><path d="m225.574219 290.871094c-2.296875 0-4.398438-.902344-6-2.5l-43.898438-43.902344c-3.300781-3.296875-3.300781-8.699219 0-12.097656 3.300781-3.300782 8.699219-3.300782 12.101563 0l43.898437 43.898437c2.398438 2.402344 3.199219 6.101563 1.800781 9.300781-1.300781 3.199219-4.402343 5.300782-7.902343 5.300782zm0 0"/><path d="m229.574219 351.671875c-2.296875 0-4.398438-.902344-6-2.5l-63.796875-63.800781c-3.203125-3.300782-3.203125-8.699219.097656-12 3.300781-3.300782 8.601562-3.300782 12-.101563l63.800781 63.800781c2.398438 2.398438 3.199219 6.101563 1.800781 9.300782-1.300781 3.199218-4.402343 5.300781-7.902343 5.300781zm0 0"/><path d="m498.976562 110.671875c-2.300781 0-4.402343-.902344-6-2.5l-89-89c-2.199218-2.101563-3.101562-5.300781-2.300781-8.300781s3.101563-5.300782 6.101563-6.101563 6.199218.101563 8.296875 2.300781l89 89c2.402343 2.398438 3.203125 6.101563 1.800781 9.300782-1.300781 3.199218-4.398438 5.300781-7.898438 5.300781zm0 0"/><path d="m475.675781 144.070312c-2.300781 0-4.398437-.898437-6-2.5l-99.101562-99.101562c-3.199219-3.296875-3.199219-8.699219.101562-12 3.300781-3.296875 8.601563-3.296875 12-.097656l99.101563 99.097656c2.398437 2.402344 3.199218 6.101562 1.796875 9.300781-1.398438 3.199219-4.5 5.300781-7.898438 5.300781zm0 0"/><path d="m444.277344 169.371094c-2.300782 0-4.402344-.902344-6-2.5l-93.101563-93.101563c-3.199219-3.300781-3.199219-8.699219.101563-12 3.296875-3.300781 8.597656-3.300781 12-.097656l93.097656 93.097656c2.402344 2.402344 3.199219 6.101563 1.800781 9.300781-1.300781 3.300782-4.398437 5.300782-7.898437 5.300782zm0 0"/><path d="m403.675781 185.46875c-2.300781 0-4.398437-.898438-6-2.5l-68.601562-68.597656c-2.199219-2.199219-3-5.300782-2.199219-8.199219.800781-2.902344 3.101562-5.203125 6-6 2.902344-.800781 6.101562.097656 8.199219 2.199219l68.601562 68.597656c2.398438 2.402344 3.199219 6.101562 1.800781 9.300781-1.199218 3.199219-4.300781 5.300781-7.800781 5.199219zm0 0"/></g><path d="m229.675781 338.371094c-18.398437 4-37.699219 2.300781-55.101562-4.902344-43.796875-20.398438-100.296875-6.898438-140.796875 33.601562-11.5 11.398438-21.101563 24.601563-28.402344 39.199219-2.097656 4.101563-3.597656 7.402344-4.800781 10.5-1.699219 4.402344.5 9.300781 4.800781 11.101563 4.300781 1.800781 9.300781-.5 11.101562-4.800782 1.199219-3.101562 2.597657-6.101562 4.199219-9 6.398438-12.898437 14.898438-24.601562 25.199219-34.699218 34.800781-34.800782 84.800781-47.199219 121.5-30.199219l.101562.097656c13.097657 5.699219 27.300782 8.601563 41.597657 8.5 8 0 16-.800781 23.902343-2.398437 4.597657-.902344 7.597657-5.402344 6.699219-10-.898437-4.902344-5.398437-7.902344-10-7zm0 0" fill="#ff5364"/><path d="m427.574219 5.46875c-.796875-2.097656-2.5-3.796875-4.5-4.699219-2.097657-.898437-4.398438-.898437-6.597657-.097656-3.5 1.398437-7 3-10.300781 4.796875-14.5 7.300781-27.800781 16.902344-39.300781 28.402344-40.398438 40.398437-53.898438 97-33.597656 140.800781v.097656c7.199218 17.402344 8.898437 36.699219 4.898437 55.101563-.101562.597656-.199219 1.097656-.199219 1.699218 0 4.398438 3.398438 8.101563 7.800782 8.398438 4.398437.402344 8.296875-2.699219 9.097656-7 4.699219-21.898438 2.601562-44.699219-6.199219-65.398438l-.101562-.101562c-17.097657-36.699219-4.597657-86.699219 30.203125-121.5 10.199218-10.296875 22-18.796875 34.898437-25.296875 2.898438-1.5 6-2.902344 8.898438-4.101563 4.601562-1.699218 6.703125-6.699218 5-11.101562zm0 0" fill="#ff5364"/><path d="m506.574219 84.46875c-2.097657-.796875-4.5-.796875-6.597657.101562-2.101562.898438-3.699218 2.601563-4.5 4.699219-1.199218 3.101563-2.601562 6.101563-4.199218 9-6.402344 12.902344-14.902344 24.601563-25.203125 34.699219-34.796875 34.800781-84.796875 47.203125-121.5 30.203125h-.199219c-44.300781-19.703125-102.199219-4.800781-144.199219 37.199219s-56.898437 99.898437-37.199219 144.199218l.097657.101563v.097656c17.101562 36.699219 4.601562 86.699219-30.199219 121.5-10.097656 10.199219-21.898438 18.699219-34.800781 25.199219-2.898438 1.5-5.898438 2.902344-8.898438 4.101562-3.800781 1.5-6.101562 5.5-5.300781 9.5s4.300781 7 8.402344 6.898438c1.097656 0 2.097656-.199219 3.097656-.597656 3.101562-1.199219 6.402344-2.699219 10.402344-4.800782 14.5-7.300781 27.796875-16.898437 39.296875-28.398437 40.402343-40.402344 53.902343-96.902344 33.703125-140.601563v-.101562c-16.601563-37.296875-2.800782-88.699219 33.699218-125.199219s87.898438-50.300781 125.199219-33.699219h.101563c13.597656 6.199219 28.398437 9.398438 43.398437 9.300782 36.800781-1 71.699219-16.402344 97.199219-43 11.5-11.402344 21.101562-24.601563 28.402344-39.101563 2.097656-4.097656 3.597656-7.398437 4.796875-10.5.800781-2.097656.800781-4.5-.097657-6.5-1.101562-1.898437-2.800781-3.5-4.902343-4.300781zm0 0" fill="#2fa8cc"/><path d="m307.277344 359.570312c-11.800782 0-23.703125-4-33.5-12.199218-1.203125-1-2.402344-2.101563-3.402344-3.101563-19.398438-19.398437-20.5-50.699219-2.300781-71.300781.703125-.898438 1.5-1.796875 2.402343-2.597656 6.300782-6.402344 14.199219-11 22.898438-13.402344 10.699219-3 21.902344-2.5 32.402344 1.402344 6.898437 2.597656 13.398437 6.699218 18.5 12 20.296875 20.398437 20.296875 53.5 0 73.898437-10.300782 10.199219-23.703125 15.300781-37 15.300781zm0-102.5c-4.5 0-9.101563.601563-13.5 1.800782-8.300782 2.300781-15.902344 6.699218-22 12.898437-.800782.800781-1.601563 1.601563-2.203125 2.402344-17.5 19.898437-16.5 50 2.203125 68.597656 1 1 2.097656 2 3.296875 3 20.101562 16.699219 49.203125 15.402344 67.703125-3 19.5-19.597656 19.5-51.398437 0-71-5-5.097656-11.101563-9.097656-17.800782-11.5-5.800781-2.097656-11.699218-3.199219-17.699218-3.199219zm36.199218 86.5"/><path d="m406.476562 384.570312-22 22-28.601562-28.601562c4.300781-2.898438 8.300781-6.296875 12-10 3.601562-3.597656 7-7.597656 9.902344-11.898438l.796875.5zm0 0" fill="#bdc3c7"/><path d="m494.476562 494.671875c-12.199218 12.097656-31.902343 12.097656-44 0l-71.5-71.5c-3-3.101563-3-7.902344 0-11l33-33c1.5-1.5 3.398438-2.300781 5.5-2.300781 2.097657 0 4.097657.800781 5.5 2.300781l71.5 71.5c12.097657 12.097656 12.097657 31.796875 0 44zm0 0" fill="#95a5a5"/><path d="m367.976562 247.070312c-4.699218-4.699218-9.800781-8.800781-15.402343-12.300781-23.898438-14.898437-53.597657-17-79.398438-5.597656-9.800781 4.199219-18.699219 10.296875-26.199219 17.898437-31.300781 31.199219-33.601562 81.199219-5.300781 115.199219s77.800781 40.800781 114.199219 15.699219h.101562c4.300782-2.898438 8.300782-6.296875 12-10 16-16 25.097657-37.796875 25.097657-60.5-.097657-22.597656-9.097657-44.296875-25.097657-60.398438zm0 0" fill="#547580"/><path d="m343.476562 343.570312c-18.800781 18.699219-48.699218 20-69 3.101563-1.199218-1-2.300781-2-3.300781-3.101563-19.101562-19.101562-20.101562-49.699218-2.300781-70 .699219-.898437 1.5-1.699218 2.300781-2.5 6.199219-6.300781 13.898438-10.800781 22.398438-13.101562 10.5-2.898438 21.601562-2.398438 31.703125 1.402344 6.796875 2.5 13.097656 6.597656 18.199218 11.800781 19.898438 19.898437 19.898438 52.296875 0 72.398437zm0 0" fill="#b0d3f0"/><path d="m305.574219 314.171875c-2.296875 0-4.398438-.902344-6-2.5l-34.5-34.5c-2.199219-2.203125-3-5.300781-2.199219-8.203125.800781-2.898438 3.101562-5.199219 6-6 2.902344-.796875 6.101562.101562 8.199219 2.203125l34.5 34.5c2.402343 2.398437 3.203125 6.097656 1.800781 9.296875-1.300781 3.101562-4.398438 5.203125-7.800781 5.203125zm0 0" fill="#3d324c"/><path d="m338.976562 256.671875c-2-1-4.402343-1.101563-6.5-.402344-2.101562.699219-3.902343 2.300781-4.902343 4.300781-1.5 3-3 6-4.699219 8.800782-13.097656 22.097656-31.5 40.5-53.597656 53.597656-2.800782 1.703125-5.601563 3.101562-8.5 4.5-3.601563 1.703125-5.601563 5.703125-4.800782 9.601562.898438 3.898438 4.300782 6.699219 8.300782 6.699219 1.199218 0 2.398437-.300781 3.5-.800781 3.398437-1.597656 6.699218-3.296875 10-5.199219 24.597656-14.5 45.199218-35.097656 59.699218-59.699219 1.898438-3.300781 3.597657-6.601562 5.199219-9.898437 1-2 1.101563-4.402344.398438-6.5-.5-2.203125-2.097657-4-4.097657-5zm0 0" fill="#2c3e50"/><path d="m307.175781 366.871094c-14 0-27.5-4.800782-38.300781-13.699219-1.398438-1.203125-2.699219-2.402344-3.898438-3.601563-22.300781-22.300781-23.402343-58-2.699218-81.699218.898437-1.101563 1.898437-2.199219 3-3.101563 7.199218-7.199219 16.097656-12.300781 25.898437-15 12.199219-3.300781 25.101563-2.800781 37 1.601563 8 3 15.300781 7.699218 21.300781 13.800781 23.199219 23.398437 23.199219 61.097656 0 84.5-11.199218 11.097656-26.402343 17.296875-42.300781 17.199219zm0-102.300782c-3.898437 0-7.699219.5-11.398437 1.5-7.101563 2-13.5 5.699219-18.703125 10.898438-.597657.601562-1.199219 1.203125-1.796875 1.902344-15 16.898437-14.300782 42.597656 1.699218 58.5.898438.898437 1.800782 1.699218 2.800782 2.597656 17.5 14.703125 43.5 13 58.898437-3.898438 15.398438-16.898437 14.800781-42.898437-1.5-59.101562-4.300781-4.296875-9.398437-7.699219-15.101562-9.796875-4.699219-1.703125-9.796875-2.601563-14.898438-2.601563zm0 0" fill="#90bae1"/></svg>