<svg height="512pt" viewBox="0 -17 512.00748 512" width="512pt" xmlns="http://www.w3.org/2000/svg"><path d="m312.398438 156.207031h-130.171876c-4.792968 0-8.675781-3.886719-8.675781-8.679687 0-4.789063 3.882813-8.675782 8.675781-8.675782h130.171876c4.792968 0 8.675781 3.886719 8.675781 8.675782 0 4.792968-3.882813 8.679687-8.675781 8.679687zm0 0" fill="#802f34"/><path d="m156.195312 185.019531c25.664063-12.175781 39.464844-40.515625 33.226563-68.230469-6.238281-27.710937-30.855469-47.402343-59.261719-47.402343-28.410156 0-53.023437 19.691406-59.261718 47.402343-6.242188 27.714844 7.558593 56.054688 33.226562 68.230469zm0 0" fill="#ff5364"/><path d="m312.742188 338.445312v43.390626c0 47.925781-38.851563 86.777343-86.777344 86.777343h-82.703125c-23.792969.050781-45.554688-13.40625-56.144531-34.710937l-71.507813-83.222656c-9.652344-11.214844-9.253906-27.921876.929687-38.660157 10.179688-10.742187 26.839844-12.035156 38.554688-2.992187l49.03125 37.835937v-208.011719c0-14.378906 11.65625-26.035156 26.035156-26.035156s26.035156 11.65625 26.035156 26.035156v104.136719c0-14.378906 11.652344-26.035156 26.03125-26.035156 14.378907 0 26.035157 11.65625 26.035157 26.035156v17.355469c0-14.378906 11.65625-26.035156 26.035156-26.035156 14.375 0 26.03125 11.65625 26.03125 26.035156v17.355469c0-14.378907 11.65625-26.035157 26.035156-26.035157 14.378907 0 26.035157 11.65625 26.035157 26.035157v60.746093zm0 0" fill="#fdd7ad"/><path d="m321.074219 336.707031v-59.007812c-.003907-12.832031-7.089844-24.617188-18.421875-30.636719-11.335938-6.019531-25.0625-5.300781-35.703125 1.878906-3.5-10.175781-11.539063-18.136718-21.746094-21.539062s-21.414063-1.855469-30.320313 4.179687c-3.3125-9.804687-10.882812-17.59375-20.59375-21.179687-9.710937-3.589844-20.523437-2.597656-29.417968 2.699218v-74.25c0-19.171874-15.539063-34.710937-34.710938-34.710937s-34.710937 15.539063-34.710937 34.710937v190.351563l-35.050781-27.050781c-15.246094-11.710938-36.878907-10.007813-50.105469 3.941406-13.226563 13.953125-13.769531 35.644531-1.261719 50.246094l70.832031 82.4375c12.253907 23.695312 36.722657 38.558594 63.398438 38.515625h82.703125c52.695312-.0625 95.394531-42.765625 95.457031-95.457031v-43.390626c-.050781-.589843-.167969-1.171874-.347656-1.738281zm-95.109375 123.230469h-82.703125c-20.503907.046875-39.257813-11.550781-48.378907-29.914062-.324218-.625-.722656-1.207032-1.1875-1.734376l-71.5-83.25c-6.761718-7.839843-6.492187-19.527343.625-27.046874 7.117188-7.519532 18.773438-8.433594 26.972657-2.109376l45.65625 35.238282v13.355468c0 4.792969 3.882812 8.679688 8.675781 8.679688s8.679688-3.886719 8.679688-8.679688v-225.625c0-9.585937 7.769531-17.355468 17.355468-17.355468 9.585938 0 17.355469 7.769531 17.355469 17.355468v147.523438c0 4.792969 3.886719 8.679688 8.679687 8.679688 4.789063 0 8.675782-3.886719 8.675782-8.679688v-43.386719c0-9.585937 7.769531-17.359375 17.355468-17.359375 9.585938 0 17.355469 7.773438 17.355469 17.359375v43.386719c0 4.792969 3.886719 8.679688 8.679688 8.679688s8.675781-3.886719 8.675781-8.679688v-26.03125c0-9.585938 7.773438-17.355469 17.359375-17.355469 9.582031 0 17.355469 7.769531 17.355469 17.355469v26.03125c0 4.792969 3.882812 8.679688 8.675781 8.679688s8.679687-3.886719 8.679687-8.679688v-8.675781c0-9.585938 7.769532-17.355469 17.355469-17.355469 9.585938 0 17.355469 7.769531 17.355469 17.355469v95.457031c.050781.589844.167969 1.171875.347656 1.734375v6.945313c-.054687 43.109374-34.988281 78.046874-78.101562 78.101562zm0 0" fill="#f09372"/><path d="m442.566406 69.425781c0-19.167969-15.542968-34.710937-34.710937-34.710937-19.171875 0-34.710938 15.542968-34.710938 34.710937h-34.714843c0-38.339843 31.082031-69.42187475 69.425781-69.42187475 38.339843 0 69.421875 31.08203175 69.421875 69.42187475zm0 0" fill="#84b5cb"/><path d="m321.09375 69.425781h173.558594c9.585937 0 17.355468 7.773438 17.355468 17.359375v121.488282c0 9.585937-7.769531 17.355468-17.355468 17.355468h-173.558594c-9.585938 0-17.359375-7.769531-17.359375-17.355468v-121.488282c0-9.585937 7.773437-17.359375 17.359375-17.359375zm0 0" fill="#b19046"/><path d="m338.429688 69.425781h138.847656c9.585937 0 17.355468 7.773438 17.355468 17.359375v121.488282c0 9.585937-7.769531 17.355468-17.355468 17.355468h-138.847656c-9.585938 0-17.355469-7.769531-17.355469-17.355468v-121.488282c0-9.585937 7.769531-17.359375 17.355469-17.359375zm0 0" fill="#e4c05c"/><path d="m425.894531 190.917969h-36.097656c-2.980469-.230469-5.636719-1.96875-7.042969-4.605469s-1.367187-5.808594.097656-8.410156l9.445313-17.582032c1.964844-3.464843 1.300781-7.828124-1.605469-10.550781-8.117187-7.109375-11.007812-18.484375-7.269531-28.605469 3.738281-10.117187 13.332031-16.882812 24.117187-17.011718 10.785157-.125 20.535157 6.414062 24.507813 16.441406s1.351563 21.46875-6.59375 28.765625c-3.128906 2.617187-4.039063 7.042969-2.203125 10.683594l9.546875 17.859375c1.464844 2.597656 1.503906 5.761718.109375 8.394531-1.398438 2.636719-4.039062 4.378906-7.011719 4.621094zm0 0" fill="#2c3e50"/></svg>