<svg height="511pt" viewBox="-4 0 511 511.26885" width="511pt" xmlns="http://www.w3.org/2000/svg"><g fill="#4482c3"><path d="m136.410156 165.320312c-4.023437.011719-7.511718-2.785156-8.367187-6.71875-.855469-3.933593 1.152343-7.929687 4.820312-9.589843 14.3125-6.550781 29.542969-10.867188 45.164063-12.800781 4.679687-.574219 8.941406 2.753906 9.515625 7.433593.574219 4.679688-2.753907 8.941407-7.433594 9.515625-13.890625 1.707032-27.4375 5.542969-40.164063 11.363282-1.109374.515624-2.3125.785156-3.535156.796874zm0 0"/><path d="m72.921875 434.878906c-3.667969.003906-6.929687-2.339844-8.097656-5.820312-3.460938-10.335938-5.21875-21.167969-5.214844-32.066406v-22.273438c0-4.714844 3.824219-8.535156 8.535156-8.535156 4.714844 0 8.535157 3.820312 8.535157 8.535156v21.757812c-.050782 9.230469 1.414062 18.402344 4.332031 27.15625 1.5 4.464844-.90625 9.304688-5.375 10.800782-.875.292968-1.789063.441406-2.714844.445312zm0 0"/><path d="m68.144531 349.117188c-4.710937 0-8.535156-3.820313-8.535156-8.53125v-71.765626c-.027344-14.472656 2.253906-28.855468 6.75-42.609374 4.933594-15.398438 12.660156-29.757813 22.792969-42.359376 4.828125-6.089843 10.214844-11.71875 16.085937-16.808593 3.582031-2.945313 8.855469-2.496094 11.882813 1.015625 3.027344 3.511718 2.699218 8.796875-.738282 11.902344-5.074218 4.394531-9.726562 9.25-13.898437 14.507812-8.855469 11.007812-15.597656 23.558594-19.894531 37.019531-3.945313 12.046875-5.941406 24.652344-5.910156 37.332031v71.765626c0 4.710937-3.820313 8.53125-8.535157 8.53125zm0 0"/><path d="m315.609375 264.167969c-4.257813-.007813-7.859375-3.152344-8.4375-7.371094-7.382813-53.625-46.550781-96.257813-95.230469-103.65625-4.664062-.707031-7.867187-5.058594-7.160156-9.71875s5.058594-7.867187 9.71875-7.160156c56.113281 8.535156 101.171875 57.175781 109.566406 118.214843.644532 4.664063-2.613281 8.96875-7.277344 9.617188-.390624.050781-.785156.074219-1.179687.074219zm0 0"/><path d="m240.046875 501.855469c-1.65625 0-3.277344-.492188-4.65625-1.40625-.699219-.460938-.855469-.554688-62.292969-50.960938l-8.210937-6.734375c-23.421875-19.160156-36.980469-47.84375-36.914063-78.105468-.09375-20.375-.09375-39.671876-.09375-55.636719v-40.191407c-.027344-1.535156.058594-3.070312.253906-4.589843.800782-13.382813 5.941407-26.136719 14.644532-36.328125 9.660156-11.660156 23.160156-19.496094 38.074218-22.101563 3.636719-.675781 7.328126-1.003906 11.027344-.980469 34.496094.1875 62.695313 27.570313 63.90625 62.046876.0625.648437.09375 1.300781.09375 1.953124v42.921876c-.082031 14.875 3.789063 29.507812 11.21875 42.394531 1.683594 2.644531 1.777344 6 .25 8.734375-1.527344 2.738281-4.429687 4.417968-7.566406 4.375-3.132812-.042969-5.992188-1.800782-7.445312-4.578125-8.855469-15.292969-13.523438-32.652344-13.523438-50.328125v-43.519532c-.085938-.421874-.113281-.851562-.085938-1.28125-.78125-25.347656-21.488281-45.527343-46.847656-45.652343-2.660156-.023438-5.3125.210937-7.929687.691406-11 1.902344-20.960938 7.671875-28.082031 16.273437-6.460938 7.617188-10.246094 17.144532-10.769532 27.117188-.125.945312-.175781 1.898438-.152344 2.851562v40.191407c0 15.949219 0 35.21875.085938 55.082031-.199219 25.328125 11.0625 49.386719 30.632812 65.460938l8.210938 6.742187c30.71875 25.171875 59.679688 48.9375 61.351562 50.242187 2.953126 2.214844 4.148438 6.074219 2.964844 9.570313-1.1875 3.496094-4.488281 5.832031-8.175781 5.789063zm0 0"/><path d="m261.851562 475.335938c-.933593 0-1.859374-.15625-2.738281-.460938-1.621093-.546875-1.621093-.546875-8.808593-6.410156l-8.53125-6.902344c-.292969-.226562-.5625-.472656-.8125-.742188-10.476563-8.535156-25.421876-20.703124-41.890626-34.183593-23.46875-19.175781-37.0625-47.894531-37.015624-78.199219v-11.265625c-.085938-16.957031-.085938-32.425781-.085938-44.375v-23.976563c-.03125-15.808593 12.261719-28.902343 28.039062-29.867187 8.074219-.433594 15.960938 2.519531 21.761719 8.148437 6.339844 6.007813 9.945313 14.347657 9.976563 23.082032v13.613281c0 10.675781 0 26.222656-.085938 44.160156v.980469c.113282 24.933594 11.292969 48.53125 30.515625 64.417969 3.496094 2.890625 6.886719 5.683593 10.015625 8.234375 2.472656 1.886718 3.726563 4.96875 3.265625 8.046875-.457031 3.074219-2.554687 5.65625-5.472656 6.738281-2.914063 1.082031-6.191406.492188-8.542969-1.542969-3.183594-2.558593-6.621094-5.410156-10.148437-8.335937-23.125-19.113282-36.566407-47.507813-36.691407-77.507813v-.988281c.085938-18.03125.085938-33.546875.085938-44.203125v-13.570313c-.015625-4.050781-1.691406-7.921874-4.632812-10.707031-2.359376-2.398437-5.632813-3.664062-8.988282-3.472656-6.734375.449219-11.960937 6.050781-11.945312 12.796875v23.980469c0 11.945312 0 27.367187.085937 44.375v11.304687c-.046875 25.183594 11.230469 49.050782 30.71875 65 16.871094 13.804688 32.136719 26.253906 42.667969 34.789063.28125.222656.546875.464843.792969.726562l7.730469 6.289063c2.84375 2.3125 4.734374 3.863281 5.488281 4.445312 3.140625 2.078125 4.546875 5.972656 3.460937 9.578125-1.089844 3.609375-4.414062 6.074219-8.179687 6.070313zm0 0"/><path d="m68.144531 45.417969c-3.988281.027343-7.464843-2.710938-8.371093-6.597657-.90625-3.882812 1-7.878906 4.589843-9.617187 57.277344-28.117187 122.320313-36.226563 184.746094-23.039063 3.023437.59375 5.492187 2.769532 6.460937 5.695313s.28125 6.144531-1.792968 8.421875c-2.070313 2.277344-5.214844 3.261719-8.214844 2.574219-58.679688-12.378907-119.8125-4.746094-173.644531 21.683593-1.175781.578126-2.464844.878907-3.773438.878907zm0 0"/><path d="m315.609375 50.835938c-1.636719-.003907-3.238281-.476563-4.613281-1.367188-10.496094-6.765625-21.507813-12.703125-32.929688-17.746094-2.957031-1.113281-5.054687-3.761718-5.460937-6.890625-.40625-3.128906.945312-6.230469 3.519531-8.054687 2.574219-1.828125 5.945312-2.085938 8.765625-.671875 12.253906 5.410156 24.0625 11.773437 35.320313 19.027343 3.171874 2.050782 4.621093 5.941407 3.558593 9.570313-1.0625 3.625-4.378906 6.121094-8.160156 6.132813zm0 0"/><path d="m27.527344 121.109375c-3.410156-.003906-6.488282-2.03125-7.835938-5.160156-1.34375-3.132813-.703125-6.761719 1.640625-9.238281 43.492188-46.460938 104.34375-72.742188 167.984375-72.558594 20.371094-.035156 40.652344 2.679687 60.296875 8.074218 2.941407.8125 5.222657 3.132813 5.984375 6.085938.765625 2.953125-.101562 6.085938-2.277344 8.226562-2.171874 2.136719-5.324218 2.953126-8.261718 2.140626-18.160156-4.984376-36.910156-7.496094-55.742188-7.460938-58.945312-.164062-115.304687 24.183594-155.585937 67.21875-1.613281 1.703125-3.855469 2.671875-6.203125 2.671875zm0 0"/><path d="m369.464844 138.941406c-2.636719 0-5.125-1.21875-6.742188-3.300781-22.328125-28.710937-51.410156-51.453125-84.65625-66.203125-2.980468-1.089844-5.105468-3.746094-5.523437-6.890625-.414063-3.144531.949219-6.261719 3.539062-8.089844 2.59375-1.832031 5.984375-2.070312 8.808594-.625 35.859375 15.878907 67.226563 40.386719 91.308594 71.335938 2 2.574219 2.359375 6.058593.929687 8.984375-1.425781 2.925781-4.398437 4.785156-7.65625 4.789062zm0 0"/><path d="m76.679688 122.046875c-3.726563.003906-7.027344-2.410156-8.148438-5.960937-1.125-3.554688.1875-7.421876 3.238281-9.5625 18.988281-13.265626 40.035157-23.304688 62.296875-29.710938 4.523438-1.316406 9.261719 1.289062 10.574219 5.8125 1.316406 4.527344-1.289063 9.265625-5.8125 10.578125-20.433594 5.894531-39.75 15.121094-57.175781 27.308594-1.457032 1.015625-3.195313 1.554687-4.972656 1.535156zm0 0"/><path d="m8.667969 217.875c-2.730469 0-5.296875-1.308594-6.902344-3.515625-1.605469-2.210937-2.058594-5.054687-1.214844-7.652344 9.019531-27.921875 24.15625-53.476562 44.304688-74.804687 2.089843-2.222656 5.207031-3.160156 8.179687-2.460938 2.96875.695313 5.339844 2.925782 6.21875 5.847656.878906 2.921876.132813 6.089844-1.957031 8.3125-18.421875 19.492188-32.261719 42.851563-40.515625 68.371094-1.136719 3.515625-4.414062 5.902344-8.113281 5.902344zm0 0"/><path d="m383.878906 256.019531c-4.351562-.003906-8-3.28125-8.472656-7.601562-10.519531-93.21875-89.59375-163.527344-183.398438-163.066407-6.863281.011719-13.722656.394532-20.542968 1.144532-3.058594.386718-6.089844-.90625-7.925782-3.386719-1.832031-2.476563-2.191406-5.753906-.929687-8.566406 1.261719-2.816407 3.941406-4.730469 7.011719-5.011719 7.433594-.820312 14.90625-1.234375 22.386718-1.246094 102.507813-.460937 188.894532 76.402344 200.351563 178.269532.5 4.675781-2.878906 8.875-7.550781 9.386718-.308594.042969-.621094.070313-.929688.078125zm0 0"/><path d="m349.746094 263.785156c-4.433594.015625-8.140625-3.359375-8.535156-7.773437-3.042969-32.683594-16.851563-63.429688-39.253907-87.414063-3.214843-3.449218-3.023437-8.847656.421875-12.0625 3.449219-3.214844 8.847656-3.027344 12.0625.421875 25.011719 26.761719 40.429688 61.066407 43.835938 97.535157.417968 4.695312-3.046875 8.839843-7.738282 9.257812-.289062.027344-.554687.035156-.792968.035156zm0 0"/><path d="m34.078125 307.167969c-4.507813.035156-8.253906-3.460938-8.53125-7.960938-.070313-1.082031-.070313-11.308593-.070313-30.386719 0-2.902343.085938-5.8125.171876-8.621093 1.074218-20.765625 6.089843-41.136719 14.78125-60.03125 27.484374-61.0625 89.007812-99.589844 155.945312-97.65625 3.046875.085937 5.820312 1.785156 7.273438 4.46875 1.453124 2.679687 1.367187 5.933593-.230469 8.53125-1.59375 2.601562-4.453125 4.152343-7.503907 4.070312-80.851562-1.964843-148.664062 60.597657-153.214843 141.34375-.070313 2.433594-.15625 5.164063-.15625 7.894531 0 1.40625 0 27.222657.078125 29.464844.164062 4.675782-3.445313 8.621094-8.113282 8.875zm0 0"/><path d="m281.640625 147.476562c-1.742187 0-3.441406-.535156-4.875-1.527343-13.792969-9.640625-29.175781-16.789063-45.4375-21.121094l-3.046875-.742187c-3.019531-.6875-5.429688-2.953126-6.300781-5.925782-.867188-2.96875-.058594-6.179687 2.113281-8.382812 2.171875-2.207032 5.367188-3.0625 8.351562-2.238282l3.15625.769532c18.222657 4.824218 35.457032 12.8125 50.917969 23.59375 3.066407 2.128906 4.390625 6.003906 3.269531 9.5625-1.117187 3.558594-4.417968 5.980468-8.148437 5.976562zm0 0"/><path d="m197.5 511.25c-1.960938 0-3.863281-.679688-5.382812-1.917969-11.46875-9.386719-26.589844-21.785156-42.796876-35.113281l-18.667968-15.363281c-23.40625-19.160157-36.957032-47.828125-36.90625-78.078125v-111.957032c-.003906-4.234374.28125-8.46875.851562-12.664062 1.617188-13.183594 5.976563-25.878906 12.800782-37.273438 19.679687-33.132812 56.871093-51.746093 95.1875-47.640624 50.410156 6.011718 88.140624 49.121093 87.425781 99.882812v24.617188c-.011719 3.527343.21875 7.050781.691406 10.546874.429687 4.566407-2.824219 8.652344-7.367187 9.257813-4.546876.605469-8.757813-2.488281-9.539063-7.003906-.5625-4.113281-.847656-8.257813-.851563-12.40625v-25.003907c.894532-30.207031-15.105468-58.402343-41.496093-73.125-26.390625-14.722656-58.785157-13.527343-84.019531 3.101563-10.367188 6.785156-19.042969 15.855469-25.363282 26.511719-7.332031 12.496094-11.214844 26.710937-11.253906 41.199218v111.53125c-.136719 25.296876 11.152344 49.304688 30.71875 65.339844l18.664062 15.359375c16.210938 13.3125 31.289063 25.71875 42.75 35.070313 2.800782 2.28125 3.859376 6.078125 2.644532 9.480468-1.210938 3.402344-4.433594 5.671876-8.046875 5.667969zm0 0"/></g><path d="m435.078125 349.503906c0-18.851562-15.28125-34.136718-34.132813-34.136718-18.851562 0-34.132812 15.285156-34.132812 34.136718h-34.132812c0-37.703125 30.5625-68.269531 68.265624-68.269531 37.703126 0 68.265626 30.566406 68.265626 68.269531zm0 0" fill="#84b5cb"/><path d="m315.609375 349.503906h170.667969c9.425781 0 17.066406 7.640625 17.066406 17.066406v119.464844c0 9.425782-7.640625 17.066406-17.066406 17.066406h-170.667969c-9.421875 0-17.066406-7.640624-17.066406-17.066406v-119.464844c0-9.425781 7.644531-17.066406 17.066406-17.066406zm0 0" fill="#b19046"/><path d="m332.660156 349.503906h136.535156c9.425782 0 17.066407 7.640625 17.066407 17.066406v119.464844c0 9.425782-7.640625 17.066406-17.066407 17.066406h-136.535156c-9.425781 0-17.066406-7.640624-17.066406-17.066406v-119.464844c0-9.425781 7.640625-17.066406 17.066406-17.066406zm0 0" fill="#e4c05c"/><path d="m418.667969 468.96875h-35.5c-2.929688-.226562-5.539063-1.933594-6.921875-4.527344-1.382813-2.59375-1.347656-5.710937.097656-8.273437l9.285156-17.289063c1.9375-3.402344 1.289063-7.695312-1.570312-10.375-7.984375-6.988281-10.828125-18.175781-7.152344-28.128906 3.675781-9.949219 13.105469-16.605469 23.714844-16.730469s20.195312 6.308594 24.101562 16.171875c3.90625 9.863282 1.324219 21.113282-6.488281 28.285156-3.074219 2.574219-3.972656 6.925782-2.167969 10.507813l9.429688 17.558594c1.441406 2.5625 1.480468 5.679687.09375 8.273437-1.382813 2.59375-3.992188 4.300782-6.921875 4.527344zm0 0" fill="#2c3e50"/></svg>