<svg height="512pt" viewBox="0 0 512 512" width="512pt" xmlns="http://www.w3.org/2000/svg"><path d="m341.050781 197.886719c4.8125-3.597657 11.226563-4.222657 16.640625-1.621094 17.066406 8.535156 6.996094 29.269531 6.996094 29.269531-4.222656 15.429688-15.582031 27.898438-30.546875 33.535156h-156.28125c-14.964844-5.636718-26.324219-18.105468-30.546875-33.535156 0 0-10.070312-20.734375 6.996094-29.269531 5.414062-2.601563 11.828125-1.976563 16.640625 1.621094zm0 0" fill="#cbb292"/><path d="m310.613281 443.734375h-109.226562c-38.484375-19.199219-30.464844-76.886719-29.011719-85.675781 7.722656-4.082032 14.917969-9.097656 21.417969-14.933594h124.414062c6.5 5.835938 13.695313 10.851562 21.417969 14.933594 1.453125 8.789062 9.472656 66.476562-29.011719 85.675781zm0 0" fill="#fdd7ad"/><path d="m315.734375 315.050781v51.027344c-12.121094 21.609375-34.960937 34.984375-59.734375 34.984375s-47.613281-13.375-59.734375-34.984375v-51.027344zm0 0" fill="#cbb292"/><path d="m201.386719 443.734375h-107.433594c-9.402344-.058594-17.011719-7.664063-17.066406-17.066406 0-2.730469 0-5.460938.082031-8.109375-.679688-4.488282-.179688-9.074219 1.453125-13.3125 3.753906-6.570313 14.164063-10.152344 20.394531-13.566406 9.128906-4.949219 18.175782-9.984376 27.222656-15.273438 9.453126-5.890625 19.84375-10.132812 30.71875-12.542969 5.460938-1.167969 10.71875-3.121093 15.617188-5.804687-1.453125 8.789062-9.472656 66.476562 29.011719 85.675781zm0 0" fill="#3b97d3"/><path d="m435.03125 418.558594c.082031 2.648437.082031 5.378906.082031 8.109375-.054687 9.402343-7.664062 17.007812-17.066406 17.066406h-107.433594c38.484375-19.199219 30.464844-76.886719 29.011719-85.675781 4.898438 2.683594 10.15625 4.636718 15.617188 5.804687 10.875 2.410157 21.265624 6.652344 30.71875 12.542969 9.046874 5.289062 18.09375 10.324219 27.222656 15.273438 6.230468 3.414062 16.640625 6.996093 20.394531 13.566406 1.632813 4.238281 2.132813 8.824218 1.453125 13.3125zm0 0" fill="#3b97d3"/><path d="m340.71875 160c-3.027344-62.984375-78.667969-66.132812-78.667969-66.132812h-12.101562s-75.640625 3.148437-78.667969 66.132812c-3.03125 62.984375 6.050781 69.28125 6.050781 91.308594 0 22.023437-6.050781 40.957031 18.15625 62.984375 24.210938 22.023437 24.203125 44.105469 48.410157 44.105469h24.203124c24.207032 0 24.207032-22.039063 48.410157-44.089844 24.199219-22.050782 18.15625-40.960938 18.15625-62.984375 0-22.023438 9.070312-28.339844 6.050781-91.324219zm0 0" fill="#fdd7ad"/><g fill="#24ae5f"><path d="m8.535156 76.800781c-4.714844 0-8.535156-3.820312-8.535156-8.535156v-25.597656c.0273438-23.554688 19.113281-42.6406252 42.667969-42.667969h25.597656c4.714844 0 8.535156 3.820312 8.535156 8.535156 0 4.710938-3.820312 8.53125-8.535156 8.53125h-25.597656c-14.140625 0-25.601563 11.460938-25.601563 25.601563v25.597656c0 4.714844-3.820312 8.535156-8.53125 8.535156zm0 0"/><path d="m68.265625 512h-25.597656c-23.554688-.027344-42.6406252-19.113281-42.667969-42.667969v-25.597656c0-4.714844 3.820312-8.535156 8.535156-8.535156 4.710938 0 8.53125 3.820312 8.53125 8.535156v25.597656c0 14.140625 11.460938 25.601563 25.601563 25.601563h25.597656c4.714844 0 8.535156 3.820312 8.535156 8.53125 0 4.714844-3.820312 8.535156-8.535156 8.535156zm0 0"/><path d="m469.332031 512h-25.597656c-4.714844 0-8.535156-3.820312-8.535156-8.535156 0-4.710938 3.820312-8.53125 8.535156-8.53125h25.597656c14.140625 0 25.601563-11.460938 25.601563-25.601563v-25.597656c0-4.714844 3.820312-8.535156 8.53125-8.535156 4.714844 0 8.535156 3.820312 8.535156 8.535156v25.597656c-.027344 23.554688-19.113281 42.640625-42.667969 42.667969zm0 0"/><path d="m503.464844 76.800781c-4.710938 0-8.53125-3.820312-8.53125-8.535156v-25.597656c0-14.140625-11.460938-25.601563-25.601563-25.601563h-25.597656c-4.714844 0-8.535156-3.820312-8.535156-8.53125 0-4.714844 3.820312-8.535156 8.535156-8.535156h25.597656c23.554688.0273438 42.640625 19.113281 42.667969 42.667969v25.597656c0 4.714844-3.820312 8.535156-8.535156 8.535156zm0 0"/><path d="m42.667969 76.800781c-4.714844 0-8.535157-3.820312-8.535157-8.535156v-17.066406c0-9.425781 7.640626-17.066407 17.066407-17.066407h17.066406c4.714844 0 8.535156 3.820313 8.535156 8.535157 0 4.710937-3.820312 8.53125-8.535156 8.53125h-17.066406v17.066406c0 4.714844-3.820313 8.535156-8.53125 8.535156zm0 0"/><path d="m68.265625 477.867188h-17.066406c-9.425781 0-17.066407-7.640626-17.066407-17.066407v-17.066406c0-4.714844 3.820313-8.535156 8.535157-8.535156 4.710937 0 8.53125 3.820312 8.53125 8.535156v17.066406h17.066406c4.714844 0 8.535156 3.820313 8.535156 8.53125 0 4.714844-3.820312 8.535157-8.535156 8.535157zm0 0"/><path d="m460.800781 477.867188h-17.066406c-4.714844 0-8.535156-3.820313-8.535156-8.535157 0-4.710937 3.820312-8.53125 8.535156-8.53125h17.066406v-17.066406c0-4.714844 3.820313-8.535156 8.53125-8.535156 4.714844 0 8.535157 3.820312 8.535157 8.535156v17.066406c0 9.425781-7.640626 17.066407-17.066407 17.066407zm0 0"/><path d="m469.332031 76.800781c-4.710937 0-8.53125-3.820312-8.53125-8.535156v-17.066406h-17.066406c-4.714844 0-8.535156-3.820313-8.535156-8.53125 0-4.714844 3.820312-8.535157 8.535156-8.535157h17.066406c9.425781 0 17.066407 7.640626 17.066407 17.066407v17.066406c0 4.714844-3.820313 8.535156-8.535157 8.535156zm0 0"/></g><path d="m256 452.265625c-117.820312 0-213.332031-95.511719-213.332031-213.332031 0-117.820313 95.511719-213.332032 213.332031-213.332032s213.332031 95.511719 213.332031 213.332032c-.128906 117.765625-95.566406 213.203125-213.332031 213.332031zm0-409.597656c-108.394531 0-196.265625 87.871093-196.265625 196.265625 0 108.394531 87.871094 196.265625 196.265625 196.265625s196.265625-87.871094 196.265625-196.265625c-.121094-108.34375-87.921875-196.144532-196.265625-196.265625zm0 0" fill="#ff5364"/><path d="m256 59.734375c-4.710938 0-8.535156-3.820313-8.535156-8.535156v-34.132813c0-4.710937 3.824218-8.53125 8.535156-8.53125s8.535156 3.820313 8.535156 8.53125v34.132813c0 4.714843-3.824218 8.535156-8.535156 8.535156zm0 0" fill="#c03a2b"/><path d="m477.867188 247.464844h-34.132813c-4.714844 0-8.535156-3.820313-8.535156-8.53125 0-4.714844 3.820312-8.535156 8.535156-8.535156h34.132813c4.710937 0 8.53125 3.820312 8.53125 8.535156 0 4.710937-3.820313 8.53125-8.53125 8.53125zm0 0" fill="#c03a2b"/><path d="m68.265625 247.464844h-34.132813c-4.710937 0-8.53125-3.820313-8.53125-8.53125 0-4.714844 3.820313-8.535156 8.53125-8.535156h34.132813c4.714844 0 8.535156 3.820312 8.535156 8.535156 0 4.710937-3.820312 8.53125-8.535156 8.53125zm0 0" fill="#c03a2b"/><path d="m256 469.332031c-4.710938 0-8.535156-3.820312-8.535156-8.53125v-34.132812c0-4.714844 3.824218-8.535157 8.535156-8.535157s8.535156 3.820313 8.535156 8.535157v34.132812c0 4.710938-3.824218 8.53125-8.535156 8.53125zm0 0" fill="#c03a2b"/></svg>