<svg height="512pt" viewBox="0 0 512 512" width="512pt" xmlns="http://www.w3.org/2000/svg"><path d="m445.695312 240.128906c-15.933593 16.96875-28.992187 36.421875-38.65625 57.597656-10.410156 20.992188-19.199218 42.753907-30.292968 63.402344-4.730469 8.960938-10.003906 17.625-15.785156 25.941406-6.484376 9.304688-14.679688 17.152344-21.847657 25.941407-6.09375 6.941406-10.605469 15.125-13.226562 23.980469-1.730469 10.085937-2.273438 20.335937-1.621094 30.550781v2.984375c-.628906 8.957031-8.085937 15.894531-17.066406 15.871094h-129.277344c-8.734375-.050782-15.785156-7.140626-15.789063-15.871094v-40.277344c-.253906-3.25-1.441406-6.363281-3.414062-8.960938-5.425781-7.753906-9.867188-16.152343-13.226562-25l-70.226563-202.753906c-4.441406-12.082031 1.125-25.550781 12.796875-30.976562 6.117188-2.585938 13.03125-2.53125 19.105469.152344 6.074219 2.679687 10.769531 7.753906 12.980469 14.015624h-.085938l28.589844 83.113282c1.359375 3.871094 5.433594 6.082031 9.421875 5.113281 3.984375-.972656 6.589843-4.804687 6.023437-8.867187l-26.113281-171.949219c-.171875-1.183594-.257813-2.382813-.257813-3.582031-.050781-12.535157 9.597657-22.980469 22.097657-23.921876 12.5-.945312 23.605469 7.9375 25.433593 20.335938l24.066407 155.734375c.660156 4.097656 4.347656 7.003906 8.484375 6.691406 4.136718-.308593 7.34375-3.738281 7.386718-7.886719v-182.101562c.011719-6.546875 2.714844-12.804688 7.476563-17.304688 4.757813-4.503906 11.15625-6.851562 17.695313-6.5 13.027343 1.078126 22.96875 12.101563 22.699218 25.171876v180.136718c.011719 1.007813.773438 1.847656 1.773438 1.957032 1 .109374 1.925781-.546876 2.152344-1.527344l36.609374-156.585938c1.933594-8.324218 8.164063-14.984375 16.339844-17.46875 8.175782-2.484375 17.054688-.417968 23.296875 5.417969 6.238281 5.839844 8.890625 14.5625 6.953125 22.886719l-35.925781 153.34375c-9.042969 47.699218 8.535156 59.734375 8.535156 59.734375 13.535157-9.183594 25.085938-20.996094 33.960938-34.730469 15.789062-23.808594 47.359375-55.640625 63.148437-55.640625 15.785156 0 31.574219 15.960937 15.785156 31.832031zm0 0" fill="#fdd7ad"/><path d="m290.132812 443.734375h-8.53125c-4.714843 0-8.535156-3.820313-8.535156-8.535156 0-4.710938 3.820313-8.53125 8.535156-8.53125h8.53125c4.714844 0 8.535157 3.820312 8.535157 8.53125 0 4.714843-3.820313 8.535156-8.535157 8.535156zm0 0" fill="#f09372"/><path d="m247.464844 443.734375h-51.199219c-4.710937 0-8.53125-3.820313-8.53125-8.535156 0-4.710938 3.820313-8.53125 8.53125-8.53125h51.199219c4.714844 0 8.535156 3.820312 8.535156 8.53125 0 4.714843-3.820312 8.535156-8.535156 8.535156zm0 0" fill="#f09372"/><path d="m332.800781 298.667969c-6.554687 3.636719-13.585937 6.339843-20.890625 8.027343-10.28125 2.660157-19.207031 9.046876-25.046875 17.921876-3.46875 4.878906-5.3125 10.726562-5.261719 16.714843" fill="#fdd7ad"/><path d="m459.023438 217.738281c-5.347657-11.160156-16.722657-18.167969-29.097657-17.921875-21.851562 0-56.574219 38.707032-70.3125 59.433594-6.902343 10.445312-15.371093 19.769531-25.105469 27.640625-3.183593-6.492187-6.828124-20.25-1.902343-46.242187l35.839843-153.113282c1.992188-8.367187.5625-17.179687-3.976562-24.484375-4.539062-7.304687-11.808594-12.492187-20.191406-14.410156-8.375-1.96875-17.1875-.527344-24.5 4.003906s-12.523438 11.785157-14.488282 20.160157l-23.6875 101.402343v-123.46875c.339844-17.625-13.207031-32.421875-30.796874-33.628906-8.875-.46875-17.550782 2.726563-24.003907 8.835937-6.453125 6.113282-10.113281 14.601563-10.132812 23.488282v174.769531l-22.960938-148.46875c-2.03125-12.945313-11.636719-23.40625-24.363281-26.527344-12.726562-3.125-26.082031 1.699219-33.878906 12.234375-5.121094 6.878906-7.273438 15.523438-5.972656 24.003906l25.15625 165.777344-26.453126-77.175781v-.136719c-2.960937-8.519531-9.332031-15.425781-17.585937-19.0625-8.25-3.640625-17.644531-3.6875-25.933594-.128906-15.785156 7.199219-23.390625 25.316406-17.476562 41.625l70.1875 202.734375c3.597656 9.578125 8.382812 18.664063 14.25 27.042969.996093 1.164062 1.65625 2.570312 1.921875 4.078125v40.285156c-.011719 6.476563 2.550781 12.691406 7.121094 17.277344 4.574218 4.585937 10.78125 7.164062 17.257812 7.171875h129.261719c13.738281.132812 25.089843-10.691406 25.601562-24.421875v-2.945313c0-1.980468 0-3.984375-.058593-5.972656-.445313-7.546875.050781-15.121094 1.472656-22.546875 2.261718-7.660156 6.207031-14.71875 11.546875-20.65625 2.636719-3.234375 5.425781-6.332031 8.21875-9.449219 5.015625-5.359375 9.695312-11.03125 14.011719-16.972656 5.953124-8.582031 11.394531-17.511719 16.289062-26.742188 6.707031-12.507812 12.648438-25.507812 18.390625-38.074218 3.914063-8.59375 7.832031-17.179688 12.015625-25.601563 9.222656-20.367187 21.753906-39.070312 37.085938-55.347656 8.183593-7.007813 11.085937-18.398437 7.25-28.464844zm-19.359376 16.355469c-16.652343 17.578125-30.273437 37.792969-40.304687 59.828125-4.265625 8.617187-8.242187 17.355469-12.226563 26.085937-5.640624 12.332032-11.460937 25.082032-17.921874 37.121094-4.59375 8.644532-9.6875 17.011719-15.257813 25.0625-3.914063 5.375-8.15625 10.507813-12.707031 15.359375-2.96875 3.300781-5.972656 6.613281-8.734375 10.042969-6.933594 7.933594-12.023438 17.304688-14.910157 27.4375-1.796874 8.816406-2.453124 17.832031-1.953124 26.816406l.085937 8.664063c-.59375 4.246093-4.246094 7.394531-8.535156 7.355469h-129.261719c-4.039062-.027344-7.289062-3.320313-7.269531-7.355469v-40.285157c-.191407-4.960937-1.898438-9.746093-4.890625-13.707031-4.976563-7.125-9.070313-14.832031-12.1875-22.945312l-70.246094-202.792969c-2.917969-7.84375.546875-16.628906 8.039062-20.363281 4.105469-1.753907 8.769532-1.65625 12.800782.265625 3.640625 1.800781 6.445312 4.9375 7.832031 8.753906v.0625l28.527344 83.085938c2.183593 6.664062 8.398437 11.171874 15.414062 11.171874 1.398438 0 2.796875-.171874 4.152344-.511718 8.363281-1.910156 13.789063-10.003906 12.382813-18.464844l-26.085938-171.914062c-.617188-3.996094.390625-8.074219 2.800781-11.324219 3.691407-5.007813 10.03125-7.304688 16.074219-5.832031 6.042969 1.476562 10.609375 6.4375 11.582031 12.582031l24.019531 155.664062c1.097657 8.085938 8.054688 14.082031 16.214844 13.980469.460938 0 .921875 0 1.382813-.0625 8.65625-.511719 15.378906-7.753906 15.246093-16.425781v-182.015625c-.027343-4.195313 1.691407-8.214844 4.746094-11.09375 3.078125-2.929688 7.234375-4.453125 11.476563-4.207032 8.464843.851563 14.832031 8.101563 14.585937 16.605469v180.183594c.011719 5.335937 4.019532 9.820313 9.324219 10.429687 5.304687.609376 10.226563-2.84375 11.453125-8.042968l36.597656-156.578125c.933594-3.972657 3.414063-7.410157 6.886719-9.554688 3.476563-2.144531 7.660156-2.816406 11.632813-1.871093 3.964843.882812 7.410156 3.320312 9.5625 6.765624 2.152343 3.441407 2.835937 7.605469 1.898437 11.554688l-35.933594 153.363281v.195313c0 .070312-.0625.101562-.070312.164062-5.777344 30.566406-1.28125 48.273438 3.824219 58.023438-2.1875.761718-4.464844 1.453125-7.082032 2.21875l-3.167968.933594c-12.246094 3.234374-22.863282 10.882812-29.804688 21.476562-4.351562 6.257812-6.65625 13.710938-6.589844 21.332031 0 4.714844 3.820313 8.535157 8.535156 8.535157 4.710938 0 8.53125-3.820313 8.53125-8.535157-.0625-4.382812 1.320313-8.667969 3.941407-12.183593 4.746093-7.117188 11.976562-12.207032 20.277343-14.269532l3.0625-.902344c6.925782-1.71875 13.578126-4.402343 19.753907-7.972656 14.640625-9.800781 27.113281-22.503906 36.644531-37.324218 17.679688-26.675782 46.589844-51.789063 56.089844-51.789063 5.472656-.167969 10.597656 2.683594 13.335937 7.425781 1.230469 2.867188.015625 6.167969-3.574219 9.777344zm0 0" fill="#f09372"/><g fill="#24ae5f"><path d="m8.535156 76.800781c-4.714844 0-8.535156-3.820312-8.535156-8.535156v-25.597656c.0273438-23.554688 19.113281-42.6406252 42.667969-42.667969h25.597656c4.714844 0 8.535156 3.820312 8.535156 8.535156 0 4.710938-3.820312 8.53125-8.535156 8.53125h-25.597656c-14.140625 0-25.601563 11.460938-25.601563 25.601563v25.597656c0 4.714844-3.820312 8.535156-8.53125 8.535156zm0 0"/><path d="m68.265625 512h-25.597656c-23.554688-.027344-42.6406252-19.113281-42.667969-42.667969v-25.597656c0-4.714844 3.820312-8.535156 8.535156-8.535156 4.710938 0 8.53125 3.820312 8.53125 8.535156v25.597656c0 14.140625 11.460938 25.601563 25.601563 25.601563h25.597656c4.714844 0 8.535156 3.820312 8.535156 8.53125 0 4.714844-3.820312 8.535156-8.535156 8.535156zm0 0"/><path d="m469.332031 512h-25.597656c-4.714844 0-8.535156-3.820312-8.535156-8.535156 0-4.710938 3.820312-8.53125 8.535156-8.53125h25.597656c14.140625 0 25.601563-11.460938 25.601563-25.601563v-25.597656c0-4.714844 3.820312-8.535156 8.53125-8.535156 4.714844 0 8.535156 3.820312 8.535156 8.535156v25.597656c-.027344 23.554688-19.113281 42.640625-42.667969 42.667969zm0 0"/><path d="m503.464844 76.800781c-4.710938 0-8.53125-3.820312-8.53125-8.535156v-25.597656c0-14.140625-11.460938-25.601563-25.601563-25.601563h-25.597656c-4.714844 0-8.535156-3.820312-8.535156-8.53125 0-4.714844 3.820312-8.535156 8.535156-8.535156h25.597656c23.554688.0273438 42.640625 19.113281 42.667969 42.667969v25.597656c0 4.714844-3.820312 8.535156-8.535156 8.535156zm0 0"/><path d="m42.667969 76.800781c-4.714844 0-8.535157-3.820312-8.535157-8.535156v-17.066406c0-9.425781 7.640626-17.066407 17.066407-17.066407h17.066406c4.714844 0 8.535156 3.820313 8.535156 8.535157 0 4.710937-3.820312 8.53125-8.535156 8.53125h-17.066406v17.066406c0 4.714844-3.820313 8.535156-8.53125 8.535156zm0 0"/><path d="m68.265625 477.867188h-17.066406c-9.425781 0-17.066407-7.640626-17.066407-17.066407v-17.066406c0-4.714844 3.820313-8.535156 8.535157-8.535156 4.710937 0 8.53125 3.820312 8.53125 8.535156v17.066406h17.066406c4.714844 0 8.535156 3.820313 8.535156 8.53125 0 4.714844-3.820312 8.535157-8.535156 8.535157zm0 0"/><path d="m460.800781 477.867188h-17.066406c-4.714844 0-8.535156-3.820313-8.535156-8.535157 0-4.710937 3.820312-8.53125 8.535156-8.53125h17.066406v-17.066406c0-4.714844 3.820313-8.535156 8.53125-8.535156 4.714844 0 8.535157 3.820312 8.535157 8.535156v17.066406c0 9.425781-7.640626 17.066407-17.066407 17.066407zm0 0"/><path d="m469.332031 76.800781c-4.710937 0-8.53125-3.820312-8.53125-8.535156v-17.066406h-17.066406c-4.714844 0-8.535156-3.820313-8.535156-8.53125 0-4.714844 3.820312-8.535157 8.535156-8.535157h17.066406c9.425781 0 17.066407 7.640626 17.066407 17.066407v17.066406c0 4.714844-3.820313 8.535156-8.535157 8.535156zm0 0"/></g><path d="m477.867188 332.800781h-443.734376c-4.710937 0-8.53125 3.820313-8.53125 8.53125 0 4.714844 3.820313 8.535157 8.53125 8.535157h17.066407v42.667968c0 4.710938 3.820312 8.53125 8.535156 8.53125 4.710937 0 8.53125-3.820312 8.53125-8.53125v-42.667968h17.066406v42.667968c0 4.710938 3.820313 8.53125 8.535157 8.53125 4.710937 0 8.53125-3.820312 8.53125-8.53125v-42.667968h119.46875v42.667968c0 4.710938 3.820312 8.53125 8.53125 8.53125 4.714843 0 8.535156-3.820312 8.535156-8.53125v-42.667968h17.066406v42.667968c0 4.710938 3.820312 8.53125 8.535156 8.53125 4.710938 0 8.53125-3.820312 8.53125-8.53125v-42.667968h136.535156v42.667968c0 4.710938 3.820313 8.53125 8.53125 8.53125 4.714844 0 8.535157-3.820312 8.535157-8.53125v-42.667968h17.066406v42.667968c0 4.710938 3.820313 8.53125 8.53125 8.53125 4.714844 0 8.535156-3.820312 8.535156-8.53125v-42.667968h17.066407c4.710937 0 8.53125-3.820313 8.53125-8.535157 0-4.710937-3.820313-8.53125-8.53125-8.53125zm0 0" fill="#c03a2b"/></svg>