<svg height="512pt" viewBox="0 0 512.13311 512" width="512pt" xmlns="http://www.w3.org/2000/svg"><path d="m443.84375 74.746094c4.988281-4.292969 11.664062-6.078125 18.128906-4.851563 9.421875 2.734375 4.714844 27.894531 4.714844 27.894531-4.511719 12.484376-14.65625 22.105469-27.363281 25.953126h-110.585938c-12.726562-3.851563-22.902343-13.464844-27.46875-25.953126 0 0-4.636719-25.160156 4.871094-27.894531 6.445313-1.242187 13.097656.550781 18.050781 4.851563zm0 0" fill="#cbb292"/><path d="m52.964844 70.6875h141.242187c29.25 0 52.964844 23.714844 52.964844 52.964844v335.449218c0 29.25-23.714844 52.964844-52.964844 52.964844h-141.242187c-29.25 0-52.964844-23.714844-52.964844-52.964844v-335.449218c0-29.25 23.714844-52.964844 52.964844-52.964844zm0 0" fill="#35495e"/><path d="m0 141.308594h247.171875v308.964844h-247.171875zm0 0" fill="#547580"/><path d="m158.898438 114.824219h-70.621094c-4.875 0-8.828125-3.953125-8.828125-8.828125s3.953125-8.824219 8.828125-8.824219h70.621094c4.875 0 8.824218 3.949219 8.824218 8.824219s-3.949218 8.828125-8.824218 8.828125zm0 0" fill="#2c2f38"/><path d="m203.035156 114.824219h-8.828125c-4.875 0-8.828125-3.953125-8.828125-8.828125s3.953125-8.824219 8.828125-8.824219h8.828125c4.875 0 8.828125 3.949219 8.828125 8.824219s-3.953125 8.828125-8.828125 8.828125zm0 0" fill="#2c2f38"/><path d="m164.785156 252.007812s10.59375-6.179687 16.773438-4.152343c6.175781 2.03125 3.089844 20.480469 3.089844 20.480469s.6875 12.800781-22.792969 21.71875h-76.519531c-23.480469-8.917969-22.792969-21.71875-22.792969-21.71875s-3.027344-18.449219 3.089843-20.480469c6.117188-2.027344 16.773438 4.152343 16.773438 4.152343zm0 0" fill="#cbb292"/><path d="m157.484375 397.308594h-67.796875c-21.980469-10.503906-19.507812-40.167969-18.273438-48.90625 8.984376-5.476563 17.109376-12.261719 24.101563-20.125 6.621094 9.003906 9.621094 16.066406 20.566406 16.066406h15.007813c10.945312 0 13.949218-7.0625 20.566406-16.066406 6.996094 7.863281 15.117188 14.648437 24.101562 20.125 1.234376 8.738281 3.707032 38.402344-18.273437 48.90625zm0 0" fill="#cbb292"/><g fill="#e64c3c"><path d="m89.6875 397.308594h-43.871094c-5.65625.09375-10.316406-4.410156-10.417968-10.0625v-4.855469c-.433594-2.660156-.09375-5.386719.972656-7.859375 11.019531-9.5625 22.730468-18.296875 35.042968-26.128906-1.234374 8.738281-3.707031 38.402344 18.273438 48.90625zm0 0"/><path d="m95.515625 328.277344h56.140625c-6.617188 9.003906-9.621094 16.066406-20.566406 16.066406h-15.007813c-10.945312 0-13.945312-7.0625-20.566406-16.066406zm0 0"/><path d="m211.773438 382.390625v4.855469c-.101563 5.652344-4.761719 10.15625-10.417969 10.0625h-43.871094c21.980469-10.503906 19.507813-40.167969 18.273437-48.90625 12.3125 7.832031 24.027344 16.566406 35.046876 26.128906 1.0625 2.472656 1.402343 5.199219.96875 7.859375zm0 0"/></g><path d="m172.402344 279.988281c0 13.242188 3.796875 24.628907-11.300782 37.871094-3.507812 3.125-6.675781 6.617187-9.445312 10.417969-6.617188 9.003906-9.621094 16.066406-20.566406 16.066406h-15.007813c-10.945312 0-13.945312-7.0625-20.566406-16.066406-2.769531-3.800782-5.933594-7.292969-9.445313-10.417969-15.097656-13.242187-11.300781-24.628906-11.300781-37.871094 0-13.242187-5.648437-16.949219-3.796875-54.816406 1.855469-37.871094 48.816406-39.726563 48.816406-39.726563h7.59375s46.875 1.855469 48.816407 39.726563c1.941406 37.867187-3.796875 41.574219-3.796875 54.816406zm0 0" fill="#fdd7ad"/><path d="m432.550781 150.136719v61.4375s-8.828125 35.664062-44.136719 35.664062h-8.828124c-35.308594 0-44.136719-35.664062-44.136719-35.664062v-61.4375zm0 0" fill="#cbb292"/><path d="m449.730469 50.824219c-2.347657-48.339844-61.035157-50.7578128-61.035157-50.7578128h-9.390624s-58.6875 2.4179688-61.035157 50.7578128c-2.347656 48.339843 4.695313 53.179687 4.695313 70.09375 0 16.910156-4.695313 31.425781 14.125 48.347656 18.820312 16.921875 18.742187 33.835937 37.519531 33.835937h18.78125c18.777344 0 18.777344-16.921874 37.554687-33.835937 18.777344-16.914063 14.125-31.425781 14.125-48.347656 0-16.925781 7.007813-21.753907 4.660157-70.09375zm0 0" fill="#fdd7ad"/><path d="m510.675781 243.355469c-3.089843-5.386719-37.164062-31.78125-46.078125-33.546875-2.261718-.441406-4.480468-1.089844-6.621094-1.941406-8.566406-3.609376-16.472656-8.621094-23.394531-14.828126h-2.03125v18.535157s-8.828125 35.664062-44.136719 35.664062h-8.828124c-35.308594 0-44.136719-35.664062-44.136719-35.664062v-18.535157h-2.03125c-6.921875 6.207032-14.828125 11.21875-23.394531 14.828126-2.140626.851562-4.359376 1.5-6.621094 1.941406-8.851563 2.003906-17.316406 5.433594-25.070313 10.152344-7.324219 4.238281-14.652343 8.296874-22.066406 12.359374-2.5625 1.414063-5.914063 2.824219-9.09375 4.589844v36.546875c1.628906.644531 3.367187.972657 5.121094.972657h245.757812c3.667969.011718 7.1875-1.429688 9.785157-4.015626 2.601562-2.582031 4.066406-6.09375 4.074218-9.757812v-6.621094c.53125-3.605468.105469-7.289062-1.234375-10.679687zm0 0" fill="#fdd7ad"/><path d="m335.976562 274.429688h-83.683593c-1.753907 0-3.492188-.328126-5.121094-.972657v-36.546875c3.179687-1.765625 6.53125-3.175781 9.09375-4.589844 7.414063-4.0625 14.742187-8.121093 22.066406-12.359374 7.753907-4.71875 16.21875-8.148438 25.070313-10.152344 2.261718-.441406 4.480468-1.089844 6.621094-1.941406-1.765626 12.183593-5.03125 52.347656 25.953124 66.5625zm0 0" fill="#e64c3c"/><path d="m511.910156 254.035156v6.621094c-.007812 3.664062-1.472656 7.175781-4.074218 9.757812-2.597657 2.585938-6.117188 4.027344-9.785157 4.015626h-66.027343c30.984374-14.214844 27.71875-54.378907 25.953124-66.5625 2.140626.851562 4.359376 1.5 6.621094 1.941406 8.914063 1.765625 42.988282 28.160156 46.078125 33.546875 1.339844 3.390625 1.765625 7.074219 1.234375 10.679687zm0 0" fill="#e64c3c"/><path d="m132.414062 485.582031v26.484375h-17.65625v-26.484375c0-4.875 3.953126-8.824219 8.828126-8.824219s8.828124 3.949219 8.828124 8.824219zm0 0" fill="#2c2f38"/></svg>