<svg height="503pt" viewBox="0 0 503 503.808" width="503pt" xmlns="http://www.w3.org/2000/svg"><path d="m442.933594 457.300781c-4.691406-7.933593-17.492188-12.203125-25.257813-16.382812-10.921875-5.804688-21.84375-11.691407-32.597656-17.75-11.964844-7.386719-25.089844-12.695313-38.824219-15.703125-5.035156-.976563-9.933594-2.554688-14.59375-4.691406-11.507812-5.269532-22.199218-12.164063-31.742187-20.480469h-154.285157c-9.679687 8.449219-20.546874 15.4375-32.253906 20.738281-4.484375 2-9.179687 3.488281-13.996094 4.433594-13.742187 2.980468-26.875 8.289062-38.828124 15.703125-10.835938 6.058593-21.757813 11.945312-32.679688 17.75-7.765625 4.179687-20.566406 8.449219-25.175781 16.382812-2.097657 5.070313-2.7734378 10.617188-1.960938 16.042969v21.929688c0 4.714843 3.820313 8.535156 8.53125 8.535156h427.007813c4.714844 0 8.535156-3.820313 8.535156-8.535156v-21.929688c.839844-5.417969.191406-10.964844-1.878906-16.042969zm0 0" fill="#fdd7ad"/><path d="m318.09375 206.335938s12.421875-12.542969 19.515625-8.363282c5 2.988282 4.640625 23.039063 4.035156 34.304688-.324219 5.652344-1.777343 11.179687-4.265625 16.265625-5.800781 12.984375-14.96875 24.179687-26.558594 32.425781h-176.636718c-11.984375-8.382812-21.375-19.957031-27.101563-33.410156-2.167969-4.746094-3.417969-9.863282-3.679687-15.078125-.613282-11.183594-1-31.570313 4.105468-34.542969 7.242188-4.179688 19.429688 8.363281 19.429688 8.363281zm0 0" fill="#cbb292"/><path d="m145.632812 346.710938v62.890624s.085938 59.730469 68.351563 59.730469h16.984375c68.265625 0 68.351562-59.730469 68.351562-59.730469v-62.890624" fill="#cbb292"/><path d="m151.605469 503.808594h-142.335938c-4.710937 0-8.53125-3.820313-8.53125-8.535156v-21.929688c-.8124998-5.425781-.136719-10.972656 1.960938-16.042969 4.609375-7.933593 17.410156-12.203125 25.175781-16.382812 10.921875-5.804688 21.84375-11.691407 32.679688-17.75 11.953124-7.414063 25.085937-12.722657 38.828124-15.703125 4.816407-.945313 9.511719-2.433594 13.996094-4.433594-2.5625 16.210938-8.875 78.929688 38.226563 100.777344zm0 0" fill="#e64c3c"/><path d="m444.8125 473.34375v21.929688c0 4.714843-3.820312 8.535156-8.535156 8.535156h-142.847656c47.363281-21.929688 40.707031-85.164063 38.230468-101.035156 4.660156 2.136718 9.558594 3.714843 14.59375 4.691406 13.734375 3.007812 26.859375 8.316406 38.824219 15.703125 10.753906 6.058593 21.675781 11.945312 32.597656 17.75 7.765625 4.179687 20.566407 8.449219 25.257813 16.382812 2.070312 5.078125 2.71875 10.625 1.878906 16.042969zm0 0" fill="#e64c3c"/><path d="m324.832031 174.933594c.429688 57.941406-7.933593 67.5-7.933593 93.011718 0 29.183594 7.253906 54.1875-21.761719 83.371094-29.011719 29.183594-29.011719 58.285156-58.109375 58.285156h-29.015625c-29.097657 0-29.097657-29.1875-58.109375-58.285156-29.015625-29.097656-21.761719-54.1875-21.761719-83.371094 0-29.183593-10.921875-37.460937-7.253906-120.746093 3.667969-83.285157 94.378906-87.464844 94.378906-87.464844h14.507813c3.289062.214844 6.566406.617187 9.8125 1.195313" fill="#fdd7ad"/><path d="m495.585938 25.601562v119.464844c0 9.425782-7.640626 17.066406-17.066407 17.066406h-125.160156c-7.382813 0-14.570313 2.394532-20.480469 6.828126l-45.507812 34.132812c-2.585938 1.9375-6.042969 2.25-8.933594.804688-2.890625-1.445313-4.71875-4.398438-4.71875-7.632813v-25.597656c0-4.714844-3.820312-8.535157-8.53125-8.535157h-8.535156c-9.425782 0-17.066406-7.640624-17.066406-17.066406v-119.464844c0-9.425781 7.640624-17.066406 17.066406-17.066406h221.867187c9.425781 0 17.066407 7.640625 17.066407 17.066406zm0 0" fill="#b0d3f0"/><path d="m282.253906 213.332031c-9.417968-.023437-17.042968-7.648437-17.066406-17.066406v-25.597656h-8.535156c-14.136719 0-25.601563-11.460938-25.601563-25.601563v-119.464844c0-14.140624 11.464844-25.601562 25.601563-25.601562h221.867187c14.136719 0 25.597657 11.460938 25.597657 25.601562v119.464844c0 14.140625-11.460938 25.601563-25.597657 25.601563h-125.160156c-5.535156.007812-10.921875 1.804687-15.359375 5.117187l-45.507812 34.136719c-2.953126 2.214844-6.546876 3.410156-10.238282 3.410156zm-25.601562-196.265625c-4.710938 0-8.535156 3.820313-8.535156 8.535156v119.464844c0 4.714844 3.824218 8.535156 8.535156 8.535156h8.535156c9.425781 0 17.066406 7.640626 17.066406 17.066407v25.597656l45.507813-34.132813c7.394531-5.519531 16.371093-8.511718 25.597656-8.53125h125.160156c4.710938 0 8.53125-3.820312 8.53125-8.535156v-119.464844c0-4.714843-3.820312-8.535156-8.53125-8.535156zm0 0" fill="#90bae1"/><path d="m333.453125 136.535156h-.128906c-3.722657-.058594-6.980469-2.519531-8.046875-6.085937l-18.578125-61.925781-7.984375 19.984374c-1.300782 3.238282-4.4375 5.363282-7.929688 5.359376h-17.066406c-4.710938 0-8.53125-3.820313-8.53125-8.535157 0-4.710937 3.820312-8.53125 8.53125-8.53125h11.289062l14.917969-37.308593c1.371094-3.347657 4.6875-5.488282 8.300781-5.359376 3.628907.160157 6.757813 2.597657 7.800782 6.078126l17.851562 59.507812 8.535156-25.597656c1.078126-3.292969 4.042969-5.609375 7.5-5.855469 3.4375-.207031 6.671876 1.640625 8.242188 4.703125l8.3125 16.621094 18.722656-49.933594c1.386719-3.347656 4.652344-5.527344 8.277344-5.523438 3.664062.121094 6.839844 2.570313 7.890625 6.085938l16.675781 55.59375 9.539063-38.152344c.921875-3.683594 4.160156-6.316406 7.953125-6.460937 3.800781-.183594 7.25 2.207031 8.414062 5.828125l6.597656 19.773437h10.914063c4.710937 0 8.53125 3.820313 8.53125 8.53125 0 4.714844-3.820313 8.535157-8.53125 8.535157h-17.066406c-2.960938 0-5.707031-1.53125-7.261719-4.046876l-10.0625 40.253907c-.933594 3.726562-4.238281 6.371093-8.082031 6.460937-3.851563.125-7.300781-2.378906-8.371094-6.085937l-18.277344-61.082031-16.707031 44.5625c-1.191406 3.179687-4.160156 5.351562-7.554688 5.527343-3.402343.238281-6.605468-1.628906-8.078124-4.710937l-7.851563-15.707032-10.546875 31.65625c-1.167969 3.503907-4.449219 5.855469-8.140625 5.839844zm0 0" fill="#2980ba"/></svg>