<svg height="512pt" viewBox="-88 0 512 512" width="512pt" xmlns="http://www.w3.org/2000/svg"><path d="m44.136719 0h247.171875c24.378906 0 44.140625 19.761719 44.140625 44.136719v423.726562c0 24.375-19.761719 44.136719-44.140625 44.136719h-247.171875c-24.375 0-44.136719-19.761719-44.136719-44.136719v-423.726562c0-24.375 19.761719-44.136719 44.136719-44.136719zm0 0" fill="#35495e"/><path d="m0 70.621094h335.449219v379.585937h-335.449219zm0 0" fill="#547580"/><path d="m203.035156 44.136719h-70.621094c-4.875 0-8.828124-3.949219-8.828124-8.828125 0-4.875 3.953124-8.824219 8.828124-8.824219h70.621094c4.875 0 8.828125 3.949219 8.828125 8.824219 0 4.878906-3.953125 8.828125-8.828125 8.828125zm0 0" fill="#2c2f38"/><path d="m256 44.136719h-8.828125c-4.875 0-8.828125-3.949219-8.828125-8.828125 0-4.875 3.953125-8.824219 8.828125-8.824219h8.828125c4.875 0 8.828125 3.949219 8.828125 8.824219 0 4.878906-3.953125 8.828125-8.828125 8.828125zm0 0" fill="#2c2f38"/><path d="m176.550781 494.34375v17.65625h-17.652343v-17.65625c0-4.875 3.949218-8.828125 8.824218-8.828125s8.828125 3.953125 8.828125 8.828125zm0 0" fill="#2c2f38"/><g fill="#f0c419"><path d="m176.550781 406.070312c-2.625.003907-5.117187-1.160156-6.796875-3.179687l-56.292968-67.523437c-10.558594-12.703126-16.347657-28.699219-16.359376-45.222657v-51.800781c0-34.125 27.667969-61.792969 61.796876-61.792969 34.125 0 61.792968 27.667969 61.792968 61.792969v18.910156c.015625 12.023438 4.101563 23.683594 11.597656 33.085938l14.035157 17.53125c3.046875 3.808594 2.429687 9.363281-1.375 12.410156-3.808594 3.046875-9.367188 2.433594-12.414063-1.375l-14.035156-17.542969c-10-12.539062-15.449219-28.097656-15.464844-44.136719v-18.882812c0-24.375-19.761718-44.136719-44.136718-44.136719-24.378907 0-44.140626 19.761719-44.140626 44.136719v51.800781c.007813 12.394531 4.355469 24.394531 12.289063 33.917969l56.292969 67.527344c2.191406 2.632812 2.664062 6.296875 1.210937 9.398437-1.457031 3.101563-4.574219 5.082031-8 5.082031zm0 0"/><path d="m194.207031 370.757812c-2.589843 0-5.046875-1.132812-6.726562-3.105468l-44.535157-52.296875c-6.792968-7.988281-10.523437-18.132813-10.53125-28.617188v-48.394531c0-14.625 11.855469-26.480469 26.484376-26.480469 14.625 0 26.480468 11.855469 26.480468 26.480469v40.609375c.003906 6.007813 2.050782 11.835937 5.800782 16.53125l45.019531 51.863281c2.183593 2.367188 2.90625 5.730469 1.886719 8.785156-1.019532 3.050782-3.621094 5.308594-6.785157 5.886719-3.167969.578125-6.398437-.613281-8.429687-3.109375l-45.25-52.152344c-6.371094-7.871093-9.863282-17.679687-9.898438-27.804687v-40.609375c0-4.875-3.949218-8.828125-8.824218-8.828125-4.878907 0-8.828126 3.953125-8.828126 8.828125v48.394531c0 6.292969 2.246094 12.378907 6.328126 17.167969l44.535156 52.304688c2.230468 2.621093 2.734375 6.300781 1.289062 9.425781-1.445312 3.125-4.574218 5.125-8.015625 5.121093zm0 0"/><path d="m300.136719 282.484375c-2.5-.003906-4.886719-1.070313-6.558594-2.933594-6.453125-6.367187-12.359375-13.261719-17.652344-20.621093-1.65625-4.242188-2.40625-8.78125-2.207031-13.328126l-.0625-7.257812c.023438-15.324219-3.042969-30.5-9.023438-44.613281-1.320312-2.917969-.957031-6.324219.953126-8.898438 1.910156-2.574219 5.066406-3.910156 8.242187-3.492187 3.175781.417968 5.878906 2.523437 7.058594 5.503906 6.910156 16.289062 10.453125 33.808594 10.421875 51.5v6.621094c.167968 1.96875.425781 4.519531.628906 6.082031 2.488281 2.941406 8.949219 10.242187 14.757812 16.710937 2.328126 2.59375 2.914063 6.308594 1.496094 9.488282-1.417968 3.183594-4.570312 5.234375-8.054687 5.238281zm0 0"/><path d="m206.953125 133.296875c-1.179687 0-2.347656-.242187-3.433594-.707031-28.542969-11.976563-60.703125-11.976563-89.246093 0-4.480469 1.859375-9.621094-.246094-11.511719-4.714844s.179687-9.625 4.632812-11.546875c32.941407-13.832031 70.0625-13.832031 103.003907 0 3.878906 1.632813 6.070312 5.773437 5.230468 9.894531-.835937 4.125-4.46875 7.085938-8.675781 7.074219zm0 0"/><path d="m45.019531 199.113281c-2.960937.003907-5.730469-1.480469-7.363281-3.953125-1.636719-2.46875-1.925781-5.597656-.765625-8.324218 6.675781-15.726563 16.328125-30.007813 28.433594-42.0625 3.464843-3.347657 8.96875-3.296876 12.375.105468 3.40625 3.40625 3.453125 8.910156.105469 12.375-10.484376 10.460938-18.847657 22.855469-24.628907 36.492188-1.390625 3.269531-4.605469 5.382812-8.15625 5.367187zm0 0"/><path d="m35.308594 289.414062c-4.875 0-8.824219-3.953124-8.824219-8.828124v-42.242188c0-4.875 3.949219-8.828125 8.824219-8.828125 4.878906 0 8.828125 3.953125 8.828125 8.828125v42.242188c0 4.875-3.949219 8.828124-8.828125 8.828124zm0 0"/><path d="m82.792969 408.152344c-2.765625.015625-5.378907-1.265625-7.0625-3.460938l-21.582031-28.246094c-8.917969-11.671874-15.863282-24.722656-20.558594-38.640624-2.335938-6.933594-4.105469-14.046876-5.296875-21.265626-.546875-3.125.625-6.304687 3.070312-8.328124 2.445313-2.019532 5.785157-2.574219 8.753907-1.449219s5.101562 3.757812 5.59375 6.890625c2.085937 12.582031 6.203124 24.738281 12.1875 36 2.992187 5.628906 6.4375 11 10.304687 16.066406l21.582031 28.246094c2.949219 3.871094 2.210938 9.398437-1.652344 12.359375-1.527343 1.183593-3.40625 1.828125-5.339843 1.828125zm0 0"/><path d="m132.414062 414.898438c-2.765624.015624-5.378906-1.265626-7.0625-3.460938l-43.175781-56.417969c-13.199219-17.355469-20.359375-38.550781-20.382812-60.355469v-56.320312c0-53.628906 43.476562-97.101562 97.105469-97.101562 53.625 0 97.101562 43.472656 97.101562 97.101562v8.828125c0 16.359375 4.652344 22.15625 15.890625 36.195313l1.984375 2.480468c3.007812 3.808594 2.375 9.332032-1.414062 12.363282-3.792969 3.03125-9.320313 2.433593-12.375-1.339844l-1.96875-2.453125c-11.898438-14.875-19.773438-24.671875-19.773438-47.246094v-8.828125c0-43.878906-35.570312-79.445312-79.445312-79.445312-43.878907 0-79.449219 35.566406-79.449219 79.445312v56.320312c.03125 17.925782 5.917969 35.347657 16.769531 49.613282l43.175781 56.40625c2.953125 3.871094 2.214844 9.398437-1.648437 12.359375-1.523438 1.191406-3.398438 1.84375-5.332032 1.855469zm0 0"/></g></svg>