<svg height="512pt" viewBox="0 0 512 512" width="512pt" xmlns="http://www.w3.org/2000/svg"><path d="m494.933594 264.535156s-107.265625 139.261719-231.253906 144.894532h-.253907c-2.476562.085937-4.949219.171874-7.425781.171874s-4.949219-.085937-7.425781-.171874h-.253907c-123.988281-5.632813-231.253906-144.894532-231.253906-144.894532s107.265625-139.265625 231.253906-144.898437h.253907c2.476562-.085938 4.949219-.171875 7.425781-.171875s4.949219.085937 7.425781.171875h.253907c123.988281 5.632812 231.253906 144.898437 231.253906 144.898437zm0 0" fill="#d1d4d1"/><path d="m430.558594 244.8125c8.386718 11.808594 8.386718 27.632812 0 39.441406-27.382813 38.621094-94.125 120.875-168.527344 125.175782h-.195312c-1.945313.085937-3.890626.171874-5.835938.171874s-3.890625-.085937-5.835938-.171874h-.195312c-74.402344-4.265626-141.144531-86.554688-168.527344-125.175782-8.386718-11.808594-8.386718-27.632812 0-39.441406 27.382813-38.621094 94.125-120.875 168.527344-125.175781h.195312c1.945313-.085938 3.890626-.171875 5.835938-.171875s3.890625.085937 5.835938.171875h.195312c74.402344 4.300781 141.144531 86.554687 168.527344 125.175781zm0 0" fill="#fff"/><path d="m401.066406 264.535156c0 80.117188-64.949218 145.066406-145.066406 145.066406s-145.066406-64.949218-145.066406-145.066406c0-80.121094 64.949218-145.070312 145.066406-145.070312s145.066406 64.949218 145.066406 145.070312zm0 0" fill="#2fa8cc"/><path d="m256 418.132812c-84.832031 0-153.601562-68.769531-153.601562-153.597656 0-84.832031 68.769531-153.601562 153.601562-153.601562s153.601562 68.769531 153.601562 153.601562c-.101562 84.789063-68.8125 153.5-153.601562 153.597656zm0-290.132812c-75.40625 0-136.535156 61.128906-136.535156 136.535156 0 75.402344 61.128906 136.53125 136.535156 136.53125s136.535156-61.128906 136.535156-136.53125c-.089844-75.371094-61.167968-136.445312-136.535156-136.535156zm0 0" fill="#285680"/><path d="m256 418.132812c-2.558594 0-5.121094-.085937-7.722656-.179687-126.839844-5.742187-233.496094-142.394531-237.96875-148.214844-2.363282-3.066406-2.363282-7.34375 0-10.410156 4.472656-5.820313 111.128906-142.507813 237.628906-148.214844 5.828125-.1875 10.640625-.1875 15.785156 0 126.839844 5.742188 233.496094 142.394531 237.96875 148.214844 2.363282 3.066406 2.363282 7.34375 0 10.410156-4.472656 5.820313-111.128906 142.507813-237.628906 148.214844-2.941406.09375-5.503906.179687-8.0625.179687zm-227.941406-153.597656c20.820312 25.007813 115.53125 131.589844 220.644531 136.371094 5.121094.160156 9.667969.160156 14.421875 0 105.257812-4.78125 199.988281-111.363281 220.816406-136.371094-20.820312-25.011718-115.53125-131.59375-220.644531-136.371094-5.121094-.164062-9.667969-.164062-14.421875 0-105.257812 4.777344-199.988281 111.359376-220.816406 136.371094zm0 0" fill="#f0785a"/><path d="m341.332031 264.535156c0 47.125-38.203125 85.332032-85.332031 85.332032s-85.332031-38.207032-85.332031-85.332032c0-47.128906 38.203125-85.335937 85.332031-85.335937s85.332031 38.207031 85.332031 85.335937zm0 0" fill="#285680"/><g fill="#24ae5f"><path d="m8.535156 76.800781c-4.714844 0-8.535156-3.820312-8.535156-8.535156v-25.597656c.0273438-23.554688 19.113281-42.6406252 42.667969-42.667969h25.597656c4.714844 0 8.535156 3.820312 8.535156 8.535156 0 4.710938-3.820312 8.53125-8.535156 8.53125h-25.597656c-14.140625 0-25.601563 11.460938-25.601563 25.601563v25.597656c0 4.714844-3.820312 8.535156-8.53125 8.535156zm0 0"/><path d="m68.265625 512h-25.597656c-23.554688-.027344-42.6406252-19.113281-42.667969-42.667969v-25.597656c0-4.714844 3.820312-8.535156 8.535156-8.535156 4.710938 0 8.53125 3.820312 8.53125 8.535156v25.597656c0 14.140625 11.460938 25.601563 25.601563 25.601563h25.597656c4.714844 0 8.535156 3.820312 8.535156 8.53125 0 4.714844-3.820312 8.535156-8.535156 8.535156zm0 0"/><path d="m469.332031 512h-25.597656c-4.714844 0-8.535156-3.820312-8.535156-8.535156 0-4.710938 3.820312-8.53125 8.535156-8.53125h25.597656c14.140625 0 25.601563-11.460938 25.601563-25.601563v-25.597656c0-4.714844 3.820312-8.535156 8.53125-8.535156 4.714844 0 8.535156 3.820312 8.535156 8.535156v25.597656c-.027344 23.554688-19.113281 42.640625-42.667969 42.667969zm0 0"/><path d="m503.464844 76.800781c-4.710938 0-8.53125-3.820312-8.53125-8.535156v-25.597656c0-14.140625-11.460938-25.601563-25.601563-25.601563h-25.597656c-4.714844 0-8.535156-3.820312-8.535156-8.53125 0-4.714844 3.820312-8.535156 8.535156-8.535156h25.597656c23.554688.0273438 42.640625 19.113281 42.667969 42.667969v25.597656c0 4.714844-3.820312 8.535156-8.535156 8.535156zm0 0"/><path d="m42.667969 76.800781c-4.714844 0-8.535157-3.820312-8.535157-8.535156v-17.066406c0-9.425781 7.640626-17.066407 17.066407-17.066407h17.066406c4.714844 0 8.535156 3.820313 8.535156 8.535157 0 4.710937-3.820312 8.53125-8.535156 8.53125h-17.066406v17.066406c0 4.714844-3.820313 8.535156-8.53125 8.535156zm0 0"/><path d="m68.265625 477.867188h-17.066406c-9.425781 0-17.066407-7.640626-17.066407-17.066407v-17.066406c0-4.714844 3.820313-8.535156 8.535157-8.535156 4.710937 0 8.53125 3.820312 8.53125 8.535156v17.066406h17.066406c4.714844 0 8.535156 3.820313 8.535156 8.53125 0 4.714844-3.820312 8.535157-8.535156 8.535157zm0 0"/><path d="m460.800781 477.867188h-17.066406c-4.714844 0-8.535156-3.820313-8.535156-8.535157 0-4.710937 3.820312-8.53125 8.535156-8.53125h17.066406v-17.066406c0-4.714844 3.820313-8.535156 8.53125-8.535156 4.714844 0 8.535157 3.820312 8.535157 8.535156v17.066406c0 9.425781-7.640626 17.066407-17.066407 17.066407zm0 0"/><path d="m469.332031 76.800781c-4.710937 0-8.53125-3.820312-8.53125-8.535156v-17.066406h-17.066406c-4.714844 0-8.535156-3.820313-8.535156-8.53125 0-4.714844 3.820312-8.535157 8.535156-8.535157h17.066406c9.425781 0 17.066407 7.640626 17.066407 17.066407v17.066406c0 4.714844-3.820313 8.535156-8.535157 8.535156zm0 0"/></g><path d="m290.132812 264.535156c0 18.847656-15.28125 34.132813-34.132812 34.132813s-34.132812-15.285157-34.132812-34.132813c0-18.851562 15.28125-34.136718 34.132812-34.136718s34.132812 15.285156 34.132812 34.136718zm0 0" fill="#2c2f38"/><path d="m503.464844 307.199219h-494.929688c-4.714844 0-8.535156-3.820313-8.535156-8.53125 0-4.714844 3.820312-8.535157 8.535156-8.535157h494.929688c4.714844 0 8.535156 3.820313 8.535156 8.535157 0 4.710937-3.820312 8.53125-8.535156 8.53125zm0 0" fill="#e64c3c"/><path d="m247.464844 200.535156c0 16.492188-13.371094 29.863282-29.863282 29.863282-16.496093 0-29.867187-13.371094-29.867187-29.863282 0-16.496094 13.371094-29.867187 29.867187-29.867187 16.492188 0 29.863282 13.371093 29.863282 29.867187zm0 0" fill="#fff"/></svg>