<svg height="512pt" viewBox="0 0 512 512" width="512pt" xmlns="http://www.w3.org/2000/svg"><path d="m442.027344 395.777344c-3.925782-6.742188-14.761719-10.410156-21.335938-13.910156-9.554687-5.121094-19.113281-10.242188-28.5-15.617188-9.984375-6.011719-20.878906-10.363281-32.253906-12.882812-5.597656-1.160157-11.035156-2.964844-16.214844-5.378907-9.78125-4.449219-19.148437-9.761719-27.988281-15.871093h-119.46875c-8.839844 6.109374-18.207031 11.421874-27.988281 15.871093-5.179688 2.414063-10.617188 4.21875-16.214844 5.378907-11.375 2.519531-22.269531 6.871093-32.253906 12.882812-9.386719 5.375-18.945313 10.496094-28.5 15.617188-6.574219 3.5-17.410156 7.167968-21.335938 13.910156-1.742187 4.296875-2.273437 8.988281-1.535156 13.566406-.085938 2.816406-.085938 5.632812 0 8.363281.039062 4.6875 1.941406 9.164063 5.289062 12.445313 3.34375 3.28125 7.859376 5.097656 12.546876 5.046875h339.453124c4.6875.050781 9.203126-1.765625 12.546876-5.046875 3.347656-3.28125 5.25-7.757813 5.289062-12.445313.085938-2.730469.085938-5.546875 0-8.363281.738281-4.578125.207031-9.269531-1.535156-13.566406zm0 0" fill="#fdd7ad"/><path d="m198.828125 435.199219h-112.554687c-4.6875.050781-9.203126-1.765625-12.546876-5.046875-3.347656-3.28125-5.25-7.757813-5.289062-12.445313-.085938-2.730469-.085938-5.546875 0-8.363281-.738281-4.578125-.207031-9.269531 1.535156-13.566406 3.925782-6.742188 14.761719-10.410156 21.335938-13.910156 9.554687-5.121094 19.113281-10.242188 28.5-15.617188 9.984375-6.011719 20.878906-10.363281 32.253906-12.882812 5.597656-1.160157 11.035156-2.964844 16.214844-5.378907-1.621094 10.496094-9.128906 67.925781 30.550781 87.210938zm0 0" fill="#e64c3c"/><path d="m443.5625 409.34375c.085938 2.816406.085938 5.632812 0 8.363281-.039062 4.6875-1.941406 9.164063-5.289062 12.445313-3.34375 3.28125-7.859376 5.097656-12.546876 5.046875h-112.554687c39.679687-19.285157 32.171875-76.714844 30.550781-87.210938 5.179688 2.414063 10.617188 4.21875 16.214844 5.378907 11.375 2.519531 22.269531 6.871093 32.253906 12.882812 9.386719 5.375 18.945313 10.496094 28.5 15.617188 6.574219 3.5 17.410156 7.167968 21.335938 13.910156 1.742187 4.296875 2.273437 8.988281 1.535156 13.566406zm0 0" fill="#e64c3c"/><path d="m315.734375 309.675781v48.722657s-8.535156 42.667968-59.734375 42.667968-59.734375-42.667968-59.734375-42.667968v-48.722657zm0 0" fill="#cbb292"/><path d="m342.785156 186.027344c4.601563-5.117188 11.546875-7.445313 18.304688-6.144532 9.386718 3.328126 4.675781 33.621094 4.675781 33.621094-4.136719 14.71875-15.019531 26.597656-29.320313 32h-160.863281c-14.304687-5.421875-25.207031-17.285156-29.398437-32 0 0-4.589844-30.292968 4.839844-33.621094 6.730468-1.300781 13.648437 1.03125 18.21875 6.144532zm0 0" fill="#cbb292"/><path d="m349.183594 145.066406c-3.328125-65.015625-86.527344-68.265625-86.527344-68.265625h-13.3125s-83.199219 3.25-86.527344 68.265625 6.65625 71.519532 6.65625 94.277344-6.65625 42.257812 19.96875 65.015625c26.621094 22.757813 26.621094 45.507813 53.246094 45.507813h26.625c26.625 0 26.625-22.757813 53.246094-45.507813 26.625-22.75 19.96875-42.265625 19.96875-65.015625s9.984375-29.261719 6.65625-94.277344zm0 0" fill="#fdd7ad"/><g fill="#24ae5f"><path d="m8.535156 76.800781c-4.714844 0-8.535156-3.820312-8.535156-8.535156v-25.597656c.0273438-23.554688 19.113281-42.6406252 42.667969-42.667969h25.597656c4.714844 0 8.535156 3.820312 8.535156 8.535156 0 4.710938-3.820312 8.53125-8.535156 8.53125h-25.597656c-14.140625 0-25.601563 11.460938-25.601563 25.601563v25.597656c0 4.714844-3.820312 8.535156-8.53125 8.535156zm0 0"/><path d="m68.265625 512h-25.597656c-23.554688-.027344-42.6406252-19.113281-42.667969-42.667969v-25.597656c0-4.714844 3.820312-8.535156 8.535156-8.535156 4.710938 0 8.53125 3.820312 8.53125 8.535156v25.597656c0 14.140625 11.460938 25.601563 25.601563 25.601563h25.597656c4.714844 0 8.535156 3.820312 8.535156 8.53125 0 4.714844-3.820312 8.535156-8.535156 8.535156zm0 0"/><path d="m469.332031 512h-25.597656c-4.714844 0-8.535156-3.820312-8.535156-8.535156 0-4.710938 3.820312-8.53125 8.535156-8.53125h25.597656c14.140625 0 25.601563-11.460938 25.601563-25.601563v-25.597656c0-4.714844 3.820312-8.535156 8.53125-8.535156 4.714844 0 8.535156 3.820312 8.535156 8.535156v25.597656c-.027344 23.554688-19.113281 42.640625-42.667969 42.667969zm0 0"/><path d="m503.464844 76.800781c-4.710938 0-8.53125-3.820312-8.53125-8.535156v-25.597656c0-14.140625-11.460938-25.601563-25.601563-25.601563h-25.597656c-4.714844 0-8.535156-3.820312-8.535156-8.53125 0-4.714844 3.820312-8.535156 8.535156-8.535156h25.597656c23.554688.0273438 42.640625 19.113281 42.667969 42.667969v25.597656c0 4.714844-3.820312 8.535156-8.535156 8.535156zm0 0"/><path d="m42.667969 76.800781c-4.714844 0-8.535157-3.820312-8.535157-8.535156v-17.066406c0-9.425781 7.640626-17.066407 17.066407-17.066407h17.066406c4.714844 0 8.535156 3.820313 8.535156 8.535157 0 4.710937-3.820312 8.53125-8.535156 8.53125h-17.066406v17.066406c0 4.714844-3.820313 8.535156-8.53125 8.535156zm0 0"/><path d="m68.265625 477.867188h-17.066406c-9.425781 0-17.066407-7.640626-17.066407-17.066407v-17.066406c0-4.714844 3.820313-8.535156 8.535157-8.535156 4.710937 0 8.53125 3.820312 8.53125 8.535156v17.066406h17.066406c4.714844 0 8.535156 3.820313 8.535156 8.53125 0 4.714844-3.820312 8.535157-8.535156 8.535157zm0 0"/><path d="m460.800781 477.867188h-17.066406c-4.714844 0-8.535156-3.820313-8.535156-8.535157 0-4.710937 3.820312-8.53125 8.535156-8.53125h17.066406v-17.066406c0-4.714844 3.820313-8.535156 8.53125-8.535156 4.714844 0 8.535157 3.820312 8.535157 8.535156v17.066406c0 9.425781-7.640626 17.066407-17.066407 17.066407zm0 0"/><path d="m469.332031 76.800781c-4.710937 0-8.53125-3.820312-8.53125-8.535156v-17.066406h-17.066406c-4.714844 0-8.535156-3.820313-8.535156-8.53125 0-4.714844 3.820312-8.535157 8.535156-8.535157h17.066406c9.425781 0 17.066407 7.640626 17.066407 17.066407v17.066406c0 4.714844-3.820313 8.535156-8.535157 8.535156zm0 0"/><path d="m341.332031 17.066406h-170.664062c-4.714844 0-8.535157-3.820312-8.535157-8.53125 0-4.714844 3.820313-8.535156 8.535157-8.535156h170.664062c4.714844 0 8.535157 3.820312 8.535157 8.535156 0 4.710938-3.820313 8.53125-8.535157 8.53125zm0 0"/><path d="m324.265625 51.199219h-136.53125c-4.714844 0-8.535156-3.820313-8.535156-8.53125 0-4.714844 3.820312-8.535157 8.535156-8.535157h136.53125c4.714844 0 8.535156 3.820313 8.535156 8.535157 0 4.710937-3.820312 8.53125-8.535156 8.53125zm0 0"/><path d="m324.265625 477.867188h-136.53125c-4.714844 0-8.535156-3.820313-8.535156-8.535157 0-4.710937 3.820312-8.53125 8.535156-8.53125h136.53125c4.714844 0 8.535156 3.820313 8.535156 8.53125 0 4.714844-3.820312 8.535157-8.535156 8.535157zm0 0"/><path d="m341.332031 512h-170.664062c-4.714844 0-8.535157-3.820312-8.535157-8.535156 0-4.710938 3.820313-8.53125 8.535157-8.53125h170.664062c4.714844 0 8.535157 3.820312 8.535157 8.53125 0 4.714844-3.820313 8.535156-8.535157 8.535156zm0 0"/><path d="m8.535156 349.867188c-4.714844 0-8.535156-3.820313-8.535156-8.535157v-170.664062c0-4.714844 3.820312-8.535157 8.535156-8.535157 4.710938 0 8.53125 3.820313 8.53125 8.535157v170.664062c0 4.714844-3.820312 8.535157-8.53125 8.535157zm0 0"/><path d="m42.667969 332.800781c-4.714844 0-8.535157-3.820312-8.535157-8.535156v-136.53125c0-4.714844 3.820313-8.535156 8.535157-8.535156 4.710937 0 8.53125 3.820312 8.53125 8.535156v136.53125c0 4.714844-3.820313 8.535156-8.53125 8.535156zm0 0"/><path d="m469.332031 332.800781c-4.710937 0-8.53125-3.820312-8.53125-8.535156v-136.53125c0-4.714844 3.820313-8.535156 8.53125-8.535156 4.714844 0 8.535157 3.820312 8.535157 8.535156v136.53125c0 4.714844-3.820313 8.535156-8.535157 8.535156zm0 0"/><path d="m503.464844 349.867188c-4.710938 0-8.53125-3.820313-8.53125-8.535157v-170.664062c0-4.714844 3.820312-8.535157 8.53125-8.535157 4.714844 0 8.535156 3.820313 8.535156 8.535157v170.664062c0 4.714844-3.820312 8.535157-8.535156 8.535157zm0 0"/></g><path d="m273.066406 273.066406h-34.132812c-4.714844 0-8.535156-3.820312-8.535156-8.53125 0-4.714844 3.820312-8.535156 8.535156-8.535156h34.132812c4.714844 0 8.535156 3.820312 8.535156 8.535156 0 4.710938-3.820312 8.53125-8.535156 8.53125zm0 0" fill="#ff5364"/><path d="m195.328125 156.765625c-4.199219.019531-7.789063-3.019531-8.464844-7.164063-.671875-4.144531 1.769531-8.164062 5.757813-9.476562l44.554687-14.847656c4.476563-1.492188 9.316407.929687 10.808594 5.40625 1.488281 4.476562-.929687 9.316406-5.40625 10.808594l-44.554687 14.847656c-.867188.285156-1.78125.429687-2.695313.425781zm0 0" fill="#ff5364"/><path d="m215.722656 257.203125c-3.53125-.003906-6.695312-2.179687-7.960937-5.476563l-30.386719-79.199218c-1.121094-2.851563-.625-6.085938 1.296875-8.472656 1.921875-2.386719 4.976563-3.558594 8-3.070313 3.023437.484375 5.558594 2.554687 6.632813 5.425781l30.386718 79.195313c1.011719 2.625.664063 5.578125-.929687 7.898437-1.59375 2.316406-4.226563 3.699219-7.039063 3.699219zm0 0" fill="#ff5364"/><path d="m296.277344 257.203125c-2.8125 0-5.445313-1.382813-7.039063-3.699219-1.59375-2.320312-1.941406-5.273437-.929687-7.898437l30.386718-79.207031c1.710938-4.363282 6.625-6.527344 11-4.847657 4.378907 1.683594 6.578126 6.578125 4.929688 10.96875l-30.386719 79.214844c-1.265625 3.292969-4.429687 5.46875-7.960937 5.46875zm0 0" fill="#ff5364"/><path d="m316.671875 156.765625c-.917969 0-1.828125-.152344-2.695313-.445313l-44.554687-14.847656c-4.476563-1.488281-6.894531-6.328125-5.40625-10.804687 1.492187-4.476563 6.332031-6.898438 10.808594-5.40625l44.554687 14.847656c3.988282 1.3125 6.429688 5.328125 5.757813 9.476563-.675781 4.144531-4.265625 7.183593-8.464844 7.164062zm0 0" fill="#ff5364"/><path d="m281.695312 258.21875c-3.054687.007812-5.882812-1.621094-7.410156-4.265625l-17.234375-30.03125c-1.527343-2.640625-1.523437-5.898437.003907-8.539063 1.527343-2.640624 4.347656-4.269531 7.398437-4.265624 3.050781 0 5.867187 1.628906 7.394531 4.273437l17.234375 30.027344c1.527344 2.640625 1.527344 5.894531 0 8.535156-1.523437 2.640625-4.339843 4.265625-7.386719 4.265625zm0 0" fill="#ff5364"/><path d="m230.304688 258.21875c-3.046876 0-5.863282-1.625-7.386719-4.265625-1.527344-2.640625-1.527344-5.894531 0-8.535156l17.234375-30.027344c1.527344-2.644531 4.34375-4.273437 7.394531-4.273437 3.050781-.003907 5.871094 1.625 7.398437 4.265624 1.527344 2.640626 1.53125 5.898438.003907 8.539063l-17.234375 30.03125c-1.527344 2.644531-4.355469 4.273437-7.410156 4.265625zm0 0" fill="#ff5364"/><path d="m256 196.265625c-4.710938 0-8.535156-3.820313-8.535156-8.53125v-42.667969c0-4.710937 3.824218-8.53125 8.535156-8.53125s8.535156 3.820313 8.535156 8.53125v42.667969c0 4.710937-3.824218 8.53125-8.535156 8.53125zm0 0" fill="#ff5364"/><path d="m270.257812 203.863281c-3.757812 0-7.074218-2.457031-8.167968-6.050781-1.09375-3.597656.292968-7.484375 3.417968-9.574219l48.296876-32.265625c2.535156-1.695312 5.78125-1.910156 8.515624-.5625 2.738282 1.347656 4.546876 4.054688 4.746094 7.097656.199219 3.042969-1.238281 5.960938-3.773437 7.65625l-48.296875 32.261719c-1.40625.933594-3.050782 1.433594-4.738282 1.4375zm0 0" fill="#ff5364"/><path d="m241.742188 203.863281c-1.6875 0-3.335938-.5-4.738282-1.4375l-48.296875-32.261719c-3.917969-2.621093-4.972656-7.921874-2.351562-11.839843 2.621093-3.917969 7.921875-4.972657 11.839843-2.351563l48.296876 32.265625c3.125 2.089844 4.511718 5.976563 3.417968 9.574219-1.09375 3.59375-4.410156 6.050781-8.167968 6.050781zm0 0" fill="#ff5364"/><path d="m263.585938 326.058594c-2.953126-.011719-5.691407-1.554688-7.234376-4.070313-1.542968-2.519531-1.679687-5.65625-.351562-8.292969l18.953125-37.71875c1.371094-2.722656 4.09375-4.507812 7.136719-4.683593 3.046875-.171875 5.953125 1.289062 7.625 3.839843 1.671875 2.550782 1.859375 5.800782.488281 8.523438l-18.953125 37.71875c-1.460938 2.886719-4.429688 4.703125-7.664062 4.683594zm0 0" fill="#ff5364"/><path d="m248.414062 326.058594c-3.226562 0-6.179687-1.816406-7.628906-4.703125l-18.917968-37.714844c-2.121094-4.210937-.425782-9.34375 3.785156-11.464844 4.210937-2.121093 9.34375-.425781 11.464844 3.785157l18.882812 37.734374c1.328125 2.644532 1.191406 5.789063-.359375 8.308594-1.554687 2.519532-4.300781 4.054688-7.261719 4.054688zm0 0" fill="#ff5364"/><path d="m196.265625 153.601562c0 9.425782-7.640625 17.066407-17.066406 17.066407s-17.066407-7.640625-17.066407-17.066407c0-9.425781 7.640626-17.066406 17.066407-17.066406s17.066406 7.640625 17.066406 17.066406zm0 0" fill="#f0c419"/><path d="m273.066406 128c0 9.425781-7.640625 17.066406-17.066406 17.066406s-17.066406-7.640625-17.066406-17.066406 7.640625-17.066406 17.066406-17.066406 17.066406 7.640625 17.066406 17.066406zm0 0" fill="#f0c419"/><path d="m349.867188 153.601562c0 9.425782-7.640626 17.066407-17.066407 17.066407s-17.066406-7.640625-17.066406-17.066407c0-9.425781 7.640625-17.066406 17.066406-17.066406s17.066407 7.640625 17.066407 17.066406zm0 0" fill="#f0c419"/><path d="m238.933594 264.535156c0 9.425782-7.640625 17.066406-17.066406 17.066406-9.425782 0-17.066407-7.640624-17.066407-17.066406 0-9.425781 7.640625-17.070312 17.066407-17.070312 9.425781 0 17.066406 7.644531 17.066406 17.070312zm0 0" fill="#f0c419"/><path d="m273.066406 332.800781c0 9.425781-7.640625 17.066407-17.066406 17.066407s-17.066406-7.640626-17.066406-17.066407 7.640625-17.066406 17.066406-17.066406 17.066406 7.640625 17.066406 17.066406zm0 0" fill="#f0c419"/><path d="m307.199219 264.535156c0 9.425782-7.640625 17.066406-17.066407 17.066406-9.425781 0-17.066406-7.640624-17.066406-17.066406 0-9.425781 7.640625-17.070312 17.066406-17.070312 9.425782 0 17.066407 7.644531 17.066407 17.070312zm0 0" fill="#f0c419"/><path d="m273.066406 204.800781c0 9.425781-7.640625 17.066407-17.066406 17.066407s-17.066406-7.640626-17.066406-17.066407 7.640625-17.066406 17.066406-17.066406 17.066406 7.640625 17.066406 17.066406zm0 0" fill="#f0c419"/></svg>