<svg height="512pt" viewBox="0 0 512 512" width="512pt" xmlns="http://www.w3.org/2000/svg"><path d="m442.027344 395.777344c-3.925782-6.742188-14.761719-10.410156-21.335938-13.910156-9.554687-5.121094-19.113281-10.242188-28.5-15.617188-9.984375-6.011719-20.878906-10.363281-32.253906-12.882812-5.597656-1.160157-11.035156-2.964844-16.214844-5.378907-9.78125-4.449219-19.148437-9.761719-27.988281-15.871093h-119.46875c-8.839844 6.109374-18.207031 11.421874-27.988281 15.871093-5.179688 2.414063-10.617188 4.21875-16.214844 5.378907-11.375 2.519531-22.269531 6.871093-32.253906 12.882812-9.386719 5.375-18.945313 10.496094-28.5 15.617188-6.574219 3.5-17.410156 7.167968-21.335938 13.910156-1.742187 4.296875-2.273437 8.988281-1.535156 13.566406-.085938 2.816406-.085938 5.632812 0 8.363281.039062 4.6875 1.941406 9.164063 5.289062 12.445313 3.34375 3.28125 7.859376 5.097656 12.546876 5.046875h339.453124c4.6875.050781 9.203126-1.765625 12.546876-5.046875 3.347656-3.28125 5.25-7.757813 5.289062-12.445313.085938-2.730469.085938-5.546875 0-8.363281.738281-4.578125.207031-9.269531-1.535156-13.566406zm0 0" fill="#fdd7ad"/><path d="m198.828125 435.199219h-112.554687c-4.6875.050781-9.203126-1.765625-12.546876-5.046875-3.347656-3.28125-5.25-7.757813-5.289062-12.445313-.085938-2.730469-.085938-5.546875 0-8.363281-.738281-4.578125-.207031-9.269531 1.535156-13.566406 3.925782-6.742188 14.761719-10.410156 21.335938-13.910156 9.554687-5.121094 19.113281-10.242188 28.5-15.617188 9.984375-6.011719 20.878906-10.363281 32.253906-12.882812 5.597656-1.160157 11.035156-2.964844 16.214844-5.378907-1.621094 10.496094-9.128906 67.925781 30.550781 87.210938zm0 0" fill="#e64c3c"/><path d="m443.5625 409.34375c.085938 2.816406.085938 5.632812 0 8.363281-.039062 4.6875-1.941406 9.164063-5.289062 12.445313-3.34375 3.28125-7.859376 5.097656-12.546876 5.046875h-112.554687c39.679687-19.285157 32.171875-76.714844 30.550781-87.210938 5.179688 2.414063 10.617188 4.21875 16.214844 5.378907 11.375 2.519531 22.269531 6.871093 32.253906 12.882812 9.386719 5.375 18.945313 10.496094 28.5 15.617188 6.574219 3.5 17.410156 7.167968 21.335938 13.910156 1.742187 4.296875 2.273437 8.988281 1.535156 13.566406zm0 0" fill="#e64c3c"/><path d="m315.734375 309.675781v48.722657s-8.535156 42.667968-59.734375 42.667968-59.734375-42.667968-59.734375-42.667968v-48.722657zm0 0" fill="#cbb292"/><path d="m342.785156 186.027344c4.601563-5.117188 11.546875-7.445313 18.304688-6.144532 9.386718 3.328126 4.675781 33.621094 4.675781 33.621094-4.136719 14.71875-15.019531 26.597656-29.320313 32h-160.863281c-14.304687-5.421875-25.207031-17.285156-29.398437-32 0 0-4.589844-30.292968 4.839844-33.621094 6.730468-1.300781 13.648437 1.03125 18.21875 6.144532zm0 0" fill="#cbb292"/><path d="m349.183594 145.066406c-3.328125-65.015625-86.527344-68.265625-86.527344-68.265625h-13.3125s-83.199219 3.25-86.527344 68.265625 6.65625 71.519532 6.65625 94.277344-6.65625 42.257812 19.96875 65.015625c26.621094 22.757813 26.621094 45.507813 53.246094 45.507813h26.625c26.625 0 26.625-22.757813 53.246094-45.507813 26.625-22.75 19.96875-42.265625 19.96875-65.015625s9.984375-29.261719 6.65625-94.277344zm0 0" fill="#fdd7ad"/><g fill="#24ae5f"><path d="m8.535156 76.800781c-4.714844 0-8.535156-3.820312-8.535156-8.535156v-25.597656c.0273438-23.554688 19.113281-42.6406252 42.667969-42.667969h25.597656c4.714844 0 8.535156 3.820312 8.535156 8.535156 0 4.710938-3.820312 8.53125-8.535156 8.53125h-25.597656c-14.140625 0-25.601563 11.460938-25.601563 25.601563v25.597656c0 4.714844-3.820312 8.535156-8.53125 8.535156zm0 0"/><path d="m68.265625 512h-25.597656c-23.554688-.027344-42.6406252-19.113281-42.667969-42.667969v-25.597656c0-4.714844 3.820312-8.535156 8.535156-8.535156 4.710938 0 8.53125 3.820312 8.53125 8.535156v25.597656c0 14.140625 11.460938 25.601563 25.601563 25.601563h25.597656c4.714844 0 8.535156 3.820312 8.535156 8.53125 0 4.714844-3.820312 8.535156-8.535156 8.535156zm0 0"/><path d="m469.332031 512h-25.597656c-4.714844 0-8.535156-3.820312-8.535156-8.535156 0-4.710938 3.820312-8.53125 8.535156-8.53125h25.597656c14.140625 0 25.601563-11.460938 25.601563-25.601563v-25.597656c0-4.714844 3.820312-8.535156 8.53125-8.535156 4.714844 0 8.535156 3.820312 8.535156 8.535156v25.597656c-.027344 23.554688-19.113281 42.640625-42.667969 42.667969zm0 0"/><path d="m503.464844 76.800781c-4.710938 0-8.53125-3.820312-8.53125-8.535156v-25.597656c0-14.140625-11.460938-25.601563-25.601563-25.601563h-25.597656c-4.714844 0-8.535156-3.820312-8.535156-8.53125 0-4.714844 3.820312-8.535156 8.535156-8.535156h25.597656c23.554688.0273438 42.640625 19.113281 42.667969 42.667969v25.597656c0 4.714844-3.820312 8.535156-8.535156 8.535156zm0 0"/><path d="m42.667969 76.800781c-4.714844 0-8.535157-3.820312-8.535157-8.535156v-17.066406c0-9.425781 7.640626-17.066407 17.066407-17.066407h17.066406c4.714844 0 8.535156 3.820313 8.535156 8.535157 0 4.710937-3.820312 8.53125-8.535156 8.53125h-17.066406v17.066406c0 4.714844-3.820313 8.535156-8.53125 8.535156zm0 0"/><path d="m68.265625 477.867188h-17.066406c-9.425781 0-17.066407-7.640626-17.066407-17.066407v-17.066406c0-4.714844 3.820313-8.535156 8.535157-8.535156 4.710937 0 8.53125 3.820312 8.53125 8.535156v17.066406h17.066406c4.714844 0 8.535156 3.820313 8.535156 8.53125 0 4.714844-3.820312 8.535157-8.535156 8.535157zm0 0"/><path d="m460.800781 477.867188h-17.066406c-4.714844 0-8.535156-3.820313-8.535156-8.535157 0-4.710937 3.820312-8.53125 8.535156-8.53125h17.066406v-17.066406c0-4.714844 3.820313-8.535156 8.53125-8.535156 4.714844 0 8.535157 3.820312 8.535157 8.535156v17.066406c0 9.425781-7.640626 17.066407-17.066407 17.066407zm0 0"/><path d="m469.332031 76.800781c-4.710937 0-8.53125-3.820312-8.53125-8.535156v-17.066406h-17.066406c-4.714844 0-8.535156-3.820313-8.535156-8.53125 0-4.714844 3.820312-8.535157 8.535156-8.535157h17.066406c9.425781 0 17.066407 7.640626 17.066407 17.066407v17.066406c0 4.714844-3.820313 8.535156-8.535157 8.535156zm0 0"/><path d="m341.332031 17.066406h-170.664062c-4.714844 0-8.535157-3.820312-8.535157-8.53125 0-4.714844 3.820313-8.535156 8.535157-8.535156h170.664062c4.714844 0 8.535157 3.820312 8.535157 8.535156 0 4.710938-3.820313 8.53125-8.535157 8.53125zm0 0"/><path d="m324.265625 51.199219h-136.53125c-4.714844 0-8.535156-3.820313-8.535156-8.53125 0-4.714844 3.820312-8.535157 8.535156-8.535157h136.53125c4.714844 0 8.535156 3.820313 8.535156 8.535157 0 4.710937-3.820312 8.53125-8.535156 8.53125zm0 0"/><path d="m324.265625 477.867188h-136.53125c-4.714844 0-8.535156-3.820313-8.535156-8.535157 0-4.710937 3.820312-8.53125 8.535156-8.53125h136.53125c4.714844 0 8.535156 3.820313 8.535156 8.53125 0 4.714844-3.820312 8.535157-8.535156 8.535157zm0 0"/><path d="m341.332031 512h-170.664062c-4.714844 0-8.535157-3.820312-8.535157-8.535156 0-4.710938 3.820313-8.53125 8.535157-8.53125h170.664062c4.714844 0 8.535157 3.820312 8.535157 8.53125 0 4.714844-3.820313 8.535156-8.535157 8.535156zm0 0"/><path d="m8.535156 349.867188c-4.714844 0-8.535156-3.820313-8.535156-8.535157v-170.664062c0-4.714844 3.820312-8.535157 8.535156-8.535157 4.710938 0 8.53125 3.820313 8.53125 8.535157v170.664062c0 4.714844-3.820312 8.535157-8.53125 8.535157zm0 0"/><path d="m42.667969 332.800781c-4.714844 0-8.535157-3.820312-8.535157-8.535156v-136.53125c0-4.714844 3.820313-8.535156 8.535157-8.535156 4.710937 0 8.53125 3.820312 8.53125 8.535156v136.53125c0 4.714844-3.820313 8.535156-8.53125 8.535156zm0 0"/><path d="m469.332031 332.800781c-4.710937 0-8.53125-3.820312-8.53125-8.535156v-136.53125c0-4.714844 3.820313-8.535156 8.53125-8.535156 4.714844 0 8.535157 3.820312 8.535157 8.535156v136.53125c0 4.714844-3.820313 8.535156-8.535157 8.535156zm0 0"/><path d="m503.464844 349.867188c-4.710938 0-8.53125-3.820313-8.53125-8.535157v-170.664062c0-4.714844 3.820312-8.535157 8.53125-8.535157 4.714844 0 8.535156 3.820313 8.535156 8.535157v170.664062c0 4.714844-3.820312 8.535157-8.535156 8.535157zm0 0"/></g><path d="m477.867188 273.066406h-443.734376c-4.710937 0-8.53125-3.820312-8.53125-8.53125 0-4.714844 3.820313-8.535156 8.53125-8.535156h443.734376c4.710937 0 8.53125 3.820312 8.53125 8.535156 0 4.710938-3.820313 8.53125-8.53125 8.53125zm0 0" fill="#e64c3c"/></svg>