<svg height="512pt" viewBox="0 0 512 512" width="512pt" xmlns="http://www.w3.org/2000/svg"><g fill="#24ae5f"><path d="m8.535156 76.800781c-4.714844 0-8.535156-3.820312-8.535156-8.535156v-25.597656c.0273438-23.554688 19.113281-42.6406252 42.667969-42.667969h25.597656c4.714844 0 8.535156 3.820312 8.535156 8.535156 0 4.710938-3.820312 8.53125-8.535156 8.53125h-25.597656c-14.140625 0-25.601563 11.460938-25.601563 25.601563v25.597656c0 4.714844-3.820312 8.535156-8.53125 8.535156zm0 0"/><path d="m68.265625 512h-25.597656c-23.554688-.027344-42.6406252-19.113281-42.667969-42.667969v-25.597656c0-4.714844 3.820312-8.535156 8.535156-8.535156 4.710938 0 8.53125 3.820312 8.53125 8.535156v25.597656c0 14.140625 11.460938 25.601563 25.601563 25.601563h25.597656c4.714844 0 8.535156 3.820312 8.535156 8.53125 0 4.714844-3.820312 8.535156-8.535156 8.535156zm0 0"/><path d="m469.332031 512h-25.597656c-4.714844 0-8.535156-3.820312-8.535156-8.535156 0-4.710938 3.820312-8.53125 8.535156-8.53125h25.597656c14.140625 0 25.601563-11.460938 25.601563-25.601563v-25.597656c0-4.714844 3.820312-8.535156 8.53125-8.535156 4.714844 0 8.535156 3.820312 8.535156 8.535156v25.597656c-.027344 23.554688-19.113281 42.640625-42.667969 42.667969zm0 0"/><path d="m503.464844 76.800781c-4.710938 0-8.53125-3.820312-8.53125-8.535156v-25.597656c0-14.140625-11.460938-25.601563-25.601563-25.601563h-25.597656c-4.714844 0-8.535156-3.820312-8.535156-8.53125 0-4.714844 3.820312-8.535156 8.535156-8.535156h25.597656c23.554688.0273438 42.640625 19.113281 42.667969 42.667969v25.597656c0 4.714844-3.820312 8.535156-8.535156 8.535156zm0 0"/><path d="m42.667969 76.800781c-4.714844 0-8.535157-3.820312-8.535157-8.535156v-17.066406c0-9.425781 7.640626-17.066407 17.066407-17.066407h17.066406c4.714844 0 8.535156 3.820313 8.535156 8.535157 0 4.710937-3.820312 8.53125-8.535156 8.53125h-17.066406v17.066406c0 4.714844-3.820313 8.535156-8.53125 8.535156zm0 0"/><path d="m68.265625 477.867188h-17.066406c-9.425781 0-17.066407-7.640626-17.066407-17.066407v-17.066406c0-4.714844 3.820313-8.535156 8.535157-8.535156 4.710937 0 8.53125 3.820312 8.53125 8.535156v17.066406h17.066406c4.714844 0 8.535156 3.820313 8.535156 8.53125 0 4.714844-3.820312 8.535157-8.535156 8.535157zm0 0"/><path d="m460.800781 477.867188h-17.066406c-4.714844 0-8.535156-3.820313-8.535156-8.535157 0-4.710937 3.820312-8.53125 8.535156-8.53125h17.066406v-17.066406c0-4.714844 3.820313-8.535156 8.53125-8.535156 4.714844 0 8.535157 3.820312 8.535157 8.535156v17.066406c0 9.425781-7.640626 17.066407-17.066407 17.066407zm0 0"/><path d="m469.332031 76.800781c-4.710937 0-8.53125-3.820312-8.53125-8.535156v-17.066406h-17.066406c-4.714844 0-8.535156-3.820313-8.535156-8.53125 0-4.714844 3.820312-8.535157 8.535156-8.535157h17.066406c9.425781 0 17.066407 7.640626 17.066407 17.066407v17.066406c0 4.714844-3.820313 8.535156-8.535157 8.535156zm0 0"/></g><path d="m375.382812 303.957031c-7.941406 18.003907-10.917968 37.804688-8.621093 57.34375 1.378906 12.722657 3.921875 25.289063 7.59375 37.546875 1.980469 6.347656 4.433593 12.539063 7.339843 18.519532 3.726563 5.5625 7.066407 11.378906 9.984376 17.40625l-156.074219.425781s-9.386719-37.886719-30.71875-47.445313c-17.773438 6.332032-35.859375 11.746094-54.1875 16.214844-8.875 1.910156-17.675781-3.507812-19.96875-12.289062-1.691407-4.371094-2.304688-9.082032-1.792969-13.738282 1.414062-4.753906 1.90625-9.738281 1.453125-14.675781-1.621094-6.230469-7.597656-7.765625-12.375-11.09375-3.753906-2.730469 3.074219-11.4375 3.074219-11.4375s-7.339844-5.375-9.984375-7.679687c-2.648438-2.300782 1.109375-6.058594 4.605469-13.226563 1.414062-3.125 1.832031-6.609375 1.195312-9.984375-1.28125-6.65625-11.433594-9.128906-16.382812-12.796875-2.390626-1.707031-6.144532-4.355469-6.570313-7.425781-.683594-4.4375 4.523437-10.582032 7.082031-13.652344 10.847656-13.851562 20.144532-28.84375 27.734375-44.714844 1.023438-1.648437 1.609375-3.527344 1.707031-5.460937-.085937-8.789063-12.972656-12.460938-14.167968-20.992188-.171875-2.515625.265625-5.03125 1.28125-7.339843 3.605468-7.570313 6.683594-15.382813 9.214844-23.382813 1.53125-7.285156 3.527343-14.46875 5.972656-21.503906 5.15625-14.238281 13.207031-27.253907 23.636718-38.226563 16.378907-15.085937 36.933594-24.871094 58.96875-28.074218 19.535157-4.257813 39.355469-7.082032 59.304688-8.449219 39.851562-1.960938 71.339844 11.433593 102.144531 35.328125 16.796875 12.375 29.085938 29.90625 34.988281 49.917968 4.523438 16.449219 6.652344 33.464844 6.3125 50.519532-.15625 16.84375-5.097656 33.300781-14.25 47.445312-9.300781 14.507813-21.503906 27.050782-28.5 42.921875zm0 0" fill="#fdd7ad"/><path d="m266.324219 349.097656c.429687 18.261719-26.878907 27.050782-35.328125 29.695313-3.496094 1.109375-13.652344 4.78125-26.109375 8.960937" fill="#fdd7ad"/><path d="m235.578125 443.734375c-3.917969-.003906-7.332031-2.675781-8.277344-6.476563-2.191406-8.816406-10.402343-32.011718-23.15625-40.246093-16.964843 6.023437-34.242187 11.125-51.757812 15.285156-13.035157 2.71875-25.976563-5.03125-29.730469-17.808594-2.117188-5.636719-2.871094-11.695312-2.199219-17.683593.238281-1.703126.597657-3.410157.964844-5.066407.65625-2.046875.898437-4.207031.707031-6.347656-.246094-.957031-1.28125-1.707031-4.453125-3.464844-1.566406-.855469-3.089843-1.789062-4.558593-2.800781-2.535157-1.785156-4.214844-4.539062-4.640626-7.613281-.320312-2.914063.15625-5.863281 1.382813-8.53125-1.65625-1.28125-3.277344-2.558594-4.335937-3.492188-7.253907-6.03125-2.457032-14.445312-.144532-18.488281.792969-1.410156 1.707032-3.023438 2.609375-4.890625.640625-1.476563.8125-3.109375.496094-4.683594-1.960937-1.394531-4.054687-2.597656-6.246094-3.585937-2.375-1.125-4.660156-2.4375-6.828125-3.925782-4.949218-2.832031-8.539062-7.550781-9.941406-13.082031.082031-7.554687 3.210938-14.753906 8.679688-19.96875 10.550781-13.480469 19.597656-28.074219 26.980468-43.519531.332032-.597656.617188-1.21875.855469-1.859375-1.285156-1.605469-2.738281-3.070313-4.328125-4.378906-5.023438-3.679688-8.523438-9.078125-9.828125-15.171875-.40625-3.9375.214844-7.914063 1.800781-11.542969 1.125-2.972656 2.429688-5.855469 3.726563-8.738281 2.132812-4.335938 3.847656-8.867188 5.121093-13.527344l.488282-2.082031c1.46875-6.941407 3.390625-13.785157 5.75-20.480469 5.585937-15.304688 14.253906-29.304688 25.464844-41.128906 14.207031-14.867188 34.984374-24.859375 63.527343-30.550782 19.933594-4.304687 40.148438-7.15625 60.496094-8.53125 39.03125-1.996093 72.242187 9.480469 107.800781 37.117188 18.210938 13.480469 31.546875 32.511719 38 54.230469 4.769532 17.261719 7.015625 35.121093 6.664063 53.027343-.132813 18.441407-5.546875 36.460938-15.601563 51.925782-3.539062 5.546875-7.457031 10.769531-11.230468 15.800781-6.523438 7.996094-12.121094 16.707031-16.6875 25.960937-7.34375 16.582032-10.085938 34.832032-7.9375 52.835938 1.304687 12.203125 3.730468 24.261719 7.234374 36.019531 1.839844 5.9375 4.144532 11.722657 6.886719 17.296875 1.136719 2.171875 2.414063 4.265625 3.824219 6.265625 2.800781 3.800781 5.035156 7.988281 6.640625 12.433594.792969 2.582031.316406 5.386719-1.28125 7.5625-1.601563 2.175781-4.136719 3.464844-6.835937 3.480469l-156.074219.425781zm-12.917969-53.078125c8.8125 10.574219 15.390625 22.824219 19.335938 36.011719l135.015625-.367188c-1.09375-1.683593-2.089844-3.425781-2.980469-5.222656-3.121094-6.355469-5.742188-12.941406-7.839844-19.703125-3.824218-12.746094-6.464844-25.8125-7.894531-39.042969-2.515625-21.054687.683594-42.398437 9.269531-61.789062 5.054688-10.445313 11.289063-20.277344 18.585938-29.300781 3.753906-5.019532 7.300781-9.753907 10.511718-14.753907 8.339844-12.804687 12.828126-27.730469 12.9375-43.011719.335938-16.238281-1.675781-32.4375-5.976562-48.101562-5.40625-18.257812-16.675781-34.226562-32.066406-45.4375-32.109375-24.960938-61.875-35.277344-96.425782-33.5625-19.515624 1.355469-38.910156 4.113281-58.027343 8.25-24.976563 4.984375-42.820313 13.363281-54.527344 25.601562-9.605469 10.148438-17.027344 22.160157-21.804687 35.292969-2.101563 6.023438-3.8125 12.179688-5.117188 18.425781l-.496094 2.105469c-1.515625 5.742188-3.59375 11.316407-6.203125 16.648438-1.160156 2.558593-2.332031 5.121093-3.328125 7.773437-.472656.980469-.761718 2.039063-.855468 3.125.15625 1.03125 2.714843 3.359375 4.402343 4.898438 5.648438 4.007812 9.261719 10.28125 9.890625 17.175781-.097656 3.335937-1.019531 6.59375-2.6875 9.480469-7.867187 16.40625-17.5 31.90625-28.722656 46.226562-1.816406 2.0625-3.433594 4.292969-4.828125 6.664063.722656.632812 1.707031 1.363281 2.292969 1.78125 1.53125 1.074219 3.15625 2.003906 4.855468 2.785156 5.753907 2.910156 13.65625 6.894531 15.308594 15.597656.996094 5.171875.339844 10.523438-1.875 15.300781-1.078125 2.234376-2.1875 4.207032-3.160156 5.914063 2.828125 2.175781 5.90625 4.425781 5.976562 4.445313 1.867188 1.367187 3.101563 3.4375 3.414063 5.734374.3125 2.296876-.324219 4.625-1.761719 6.441407-.332031.425781-.679687.921875-1.003906 1.425781 5.726562 2.640625 10.046875 7.613281 11.859375 13.652344.964844 4.761718.742187 9.691406-.648437 14.34375-.273438 1.214844-.554688 2.425781-.707032 3.636718-.308594 3.316407.167969 6.65625 1.390625 9.753907.445313 2.261719 1.78125 4.25 3.707031 5.519531 1.925782 1.265625 4.277344 1.707031 6.53125 1.222656 17.996094-4.347656 35.742188-9.660156 53.164063-15.914062h.058594c6.015625-2.039063 11.511719-3.953125 15.96875-5.496094 4.835937-1.707031 8.488281-2.945312 10.332031-3.515625 25.746094-8.023437 29.40625-16.804687 29.292969-21.335937-.050781-2.261719.796875-4.453126 2.363281-6.089844 1.5625-1.636719 3.710938-2.585938 5.976562-2.636719 2.277344-.121094 4.503907.703125 6.15625 2.277344 1.652344 1.574219 2.582032 3.757812 2.574219 6.042969.390625 16.578124-13.5 29.371093-41.285156 38.023437-1.707031.546875-5.207031 1.707031-9.804687 3.34375zm-106.050781-64.128906.1875.152344zm0 0" fill="#f0785a"/><path d="m256 503.464844c-136.671875 0-247.464844-110.792969-247.464844-247.464844s110.792969-247.464844 247.464844-247.464844 247.464844 110.792969 247.464844 247.464844c-.152344 136.609375-110.855469 247.3125-247.464844 247.464844zm0-477.863282c-127.246094 0-230.398438 103.152344-230.398438 230.398438s103.152344 230.398438 230.398438 230.398438 230.398438-103.152344 230.398438-230.398438c-.140626-127.1875-103.210938-230.257812-230.398438-230.398438zm0 0" fill="#ff5364"/><path d="m256 51.199219c-4.710938 0-8.535156-3.820313-8.535156-8.53125v-34.132813c0-4.714844 3.824218-8.535156 8.535156-8.535156s8.535156 3.820312 8.535156 8.535156v34.132813c0 4.710937-3.824218 8.53125-8.535156 8.53125zm0 0" fill="#c03a2b"/><path d="m503.464844 273.066406h-34.132813c-4.710937 0-8.53125-3.820312-8.53125-8.53125 0-4.714844 3.820313-8.535156 8.53125-8.535156h34.132813c4.714844 0 8.535156 3.820312 8.535156 8.535156 0 4.710938-3.820312 8.53125-8.535156 8.53125zm0 0" fill="#c03a2b"/><path d="m42.667969 273.066406h-34.132813c-4.714844 0-8.535156-3.820312-8.535156-8.53125 0-4.714844 3.820312-8.535156 8.535156-8.535156h34.132813c4.710937 0 8.53125 3.820312 8.53125 8.535156 0 4.710938-3.820313 8.53125-8.53125 8.53125zm0 0" fill="#c03a2b"/><path d="m256 512c-4.710938 0-8.535156-3.820312-8.535156-8.535156v-34.132813c0-4.710937 3.824218-8.53125 8.535156-8.53125s8.535156 3.820313 8.535156 8.53125v34.132813c0 4.714844-3.824218 8.535156-8.535156 8.535156zm0 0" fill="#c03a2b"/></svg>